<svg width="95" height="95" viewBox="0 0 95 95" fill="none" xmlns="http://www.w3.org/2000/svg">
<path d="M95 31.1941C95 13.9655 81.0345 0 63.8059 0C57.8294 0 52.2459 1.68064 47.5013 4.59587C42.7541 1.68064 37.1706 0 31.1941 0C13.9655 0 0 13.9655 0 31.1941C0 37.1706 1.68064 42.7541 4.59587 47.4987C1.68064 52.2459 0 57.8294 0 63.8059C0 81.0345 13.9655 95 31.1941 95C37.1706 95 42.7541 93.3194 47.4987 90.4041C52.2432 93.3194 57.8268 95 63.8033 95C81.0318 95 94.9973 81.0345 94.9973 63.8059C94.9973 57.8294 93.3167 52.2459 90.4015 47.5013C93.3194 42.7541 95 37.1706 95 31.1941Z" fill="#FFE0DE"/>
<path d="M81.5894 66.6953L82.5983 67.306C83.2275 67.6883 84.0187 67.6883 84.648 67.306L85.6569 66.6953L85.0462 67.7042C84.6639 68.3335 84.6639 69.1247 85.0462 69.7539L85.6569 70.7628L84.648 70.1522C84.0187 69.7698 83.2275 69.7698 82.5983 70.1522L81.5894 70.7628L82.2 69.7539C82.5823 69.1247 82.5823 68.3335 82.2 67.7042L81.5894 66.6953Z" fill="#94E3FF"/>
<path d="M81.5894 71.0279C81.5203 71.0279 81.454 71.0013 81.4008 70.9509C81.3132 70.8632 81.2973 70.7305 81.361 70.6243L81.9717 69.6154C82.3036 69.0684 82.3036 68.3887 81.9717 67.8418L81.361 66.8329C81.2973 66.7293 81.3132 66.5939 81.4008 66.5063C81.4885 66.4187 81.6212 66.4028 81.7274 66.4665L82.7363 67.0772C83.2833 67.409 83.963 67.409 84.5099 67.0772L85.5188 66.4665C85.6224 66.4028 85.7578 66.4187 85.8454 66.5063C85.933 66.5939 85.9489 66.7267 85.8852 66.8329L85.2746 67.8418C84.9427 68.3887 84.9427 69.0684 85.2746 69.6154L85.8852 70.6243C85.9489 70.7278 85.933 70.8632 85.8454 70.9509C85.7578 71.0385 85.625 71.0544 85.5188 70.9907L84.5099 70.38C83.963 70.0481 83.2833 70.0481 82.7363 70.38L81.7274 70.9907C81.6849 71.0146 81.6372 71.0279 81.5894 71.0279ZM82.3779 67.4834L82.4284 67.5657C82.8638 68.2825 82.8638 69.1746 82.4284 69.8915L82.3779 69.9738L82.4602 69.9234C83.1771 69.4879 84.0692 69.4879 84.786 69.9234L84.8683 69.9738L84.8179 69.8915C84.3825 69.1746 84.3825 68.2825 84.8179 67.5657L84.8683 67.4834L84.786 67.5338C84.0692 67.9693 83.1771 67.9693 82.4602 67.5338L82.3779 67.4834Z" fill="#3B5C91"/>
<path d="M83.623 10.0675L84.77 9.78608C85.4842 9.61085 86.0444 9.05329 86.2197 8.33643L86.5011 7.18945L86.7825 8.33643C86.9578 9.05064 87.5153 9.61085 88.2322 9.78608L89.3792 10.0675L88.2322 10.349C87.518 10.5242 86.9578 11.0817 86.7825 11.7986L86.5011 12.9456L86.2197 11.7986C86.0444 11.0844 85.4869 10.5242 84.77 10.349L83.623 10.0675Z" fill="#FFD385"/>
<path d="M86.4985 13.211C86.3764 13.211 86.2702 13.1287 86.241 13.0092L85.9596 11.8622C85.8082 11.2409 85.3277 10.7604 84.7037 10.6064L83.5568 10.3249C83.4373 10.2957 83.355 10.1895 83.355 10.0674C83.355 9.94526 83.4373 9.83906 83.5568 9.80986L84.7037 9.52842C85.325 9.37709 85.8056 8.89652 85.9596 8.27259L86.241 7.12561C86.2702 7.00613 86.3764 6.92383 86.4985 6.92383C86.6207 6.92383 86.7269 7.00613 86.7561 7.12561L87.0375 8.27259C87.1889 8.89387 87.6694 9.37443 88.2934 9.52842L89.4403 9.80986C89.5598 9.83906 89.6421 9.94526 89.6421 10.0674C89.6421 10.1895 89.5598 10.2957 89.4403 10.3249L88.2934 10.6064C87.6721 10.7577 87.1915 11.2383 87.0375 11.8622L86.7561 13.0092C86.7269 13.126 86.6207 13.211 86.4985 13.211ZM84.7383 10.0674L84.8312 10.0913C85.6463 10.2904 86.2755 10.9197 86.4747 11.7348L86.4985 11.8277L86.5224 11.7348C86.7216 10.9197 87.3508 10.2904 88.1659 10.0913L88.2588 10.0674L88.1659 10.0435C87.3508 9.84437 86.7216 9.21513 86.5224 8.40003L86.4985 8.3071L86.4747 8.40003C86.2755 9.21513 85.6463 9.84437 84.8312 10.0435L84.7383 10.0674Z" fill="#3B5C91"/>
<path d="M2.79857 26.8124L3.73315 30.3011C3.88979 30.8878 4.62259 31.0843 5.0527 30.6542L7.60685 28.1001C8.03697 27.6699 7.84049 26.9371 7.25373 26.7805L3.76501 25.8459C3.17824 25.6893 2.63927 26.2256 2.79857 26.8124Z" fill="#FFD385"/>
<path d="M4.50037 31.1525C4.40744 31.1525 4.31452 31.1393 4.22159 31.1154C3.85254 31.0171 3.57376 30.7384 3.47552 30.3693L2.54095 26.8806C2.44271 26.5115 2.5436 26.1319 2.81442 25.861C3.08523 25.5902 3.4649 25.4893 3.83395 25.5876L7.32268 26.5222C7.69173 26.6204 7.97051 26.8992 8.06874 27.2682C8.16698 27.6373 8.06609 28.0169 7.79527 28.2878L5.24112 30.8419C5.03934 31.0437 4.77384 31.1525 4.50037 31.1525ZM3.05337 26.7425L3.98795 30.2312C4.03574 30.4144 4.17645 30.5525 4.357 30.6003C4.54019 30.6481 4.7287 30.5976 4.86145 30.4649L7.4156 27.9107C7.54835 27.778 7.5988 27.5868 7.55101 27.4063C7.50322 27.2231 7.3625 27.085 7.18196 27.0372L3.69324 26.1027C3.51004 26.0549 3.32153 26.1053 3.18878 26.2381C3.05603 26.3708 3.00558 26.5593 3.05337 26.7425Z" fill="#3B5C91"/>
<path d="M53.5683 90.3183L54.1603 86.7553C54.2612 86.1552 53.6745 85.6747 53.1036 85.8871L49.7211 87.1562C49.1529 87.3686 49.0282 88.1173 49.4981 88.5049L52.2885 90.7989C52.7585 91.1839 53.47 90.9184 53.5683 90.3183Z" fill="#FF9494"/>
<path d="M52.7876 91.2458C52.5486 91.2458 52.315 91.1635 52.1212 91.0042L49.3307 88.7102C49.036 88.4686 48.898 88.0995 48.959 87.7225C49.0227 87.3455 49.2723 87.0428 49.6281 86.9074L53.0106 85.6383C53.3664 85.5056 53.7567 85.5693 54.0514 85.8109C54.3461 86.0525 54.4842 86.4216 54.4231 86.7986L53.831 90.3616C53.7673 90.7387 53.5177 91.0413 53.162 91.1767C53.0372 91.2245 52.9124 91.2458 52.7876 91.2458ZM53.385 86.103C53.3239 86.103 53.2602 86.1136 53.1991 86.1375L49.8166 87.4066C49.6387 87.473 49.5139 87.6243 49.4847 87.8101C49.4529 87.996 49.5219 88.1792 49.6679 88.3013L52.4584 90.5953C52.6044 90.7148 52.7982 90.7466 52.9761 90.6802C53.154 90.6139 53.2788 90.4625 53.308 90.2767L53.9001 86.7136C53.9319 86.5278 53.8629 86.3446 53.7169 86.2224C53.6186 86.1454 53.5018 86.103 53.385 86.103Z" fill="#3B5C91"/>
<path d="M5.32338 77.5345L6.34291 76.5149C6.57656 76.2813 6.57656 75.9043 6.34291 75.6733C6.10927 75.4396 5.73225 75.4396 5.50126 75.6733L4.48173 76.6928L3.46219 75.6733C3.22855 75.4396 2.85153 75.4396 2.62055 75.6733C2.3869 75.9069 2.3869 76.2839 2.62055 76.5149L3.64008 77.5345L2.62055 78.554C2.3869 78.7876 2.3869 79.1647 2.62055 79.3956C2.85419 79.6293 3.2312 79.6293 3.46219 79.3956L4.48173 78.3761L5.50126 79.3956C5.73491 79.6293 6.11192 79.6293 6.34291 79.3956C6.57656 79.162 6.57656 78.785 6.34291 78.554L5.32338 77.5345Z" fill="#FF9494"/>
<path d="M40.6089 5.56425H39.3186V4.2739C39.3186 3.97919 39.0796 3.74023 38.7849 3.74023C38.4902 3.74023 38.2513 3.97919 38.2513 4.2739V5.56425H36.9609C36.6662 5.56425 36.4272 5.8032 36.4272 6.09791C36.4272 6.39262 36.6662 6.63157 36.9609 6.63157H38.2513V7.92192C38.2513 8.21663 38.4902 8.45559 38.7849 8.45559C39.0796 8.45559 39.3186 8.21663 39.3186 7.92192V6.63157H40.6089C40.9036 6.63157 41.1426 6.39262 41.1426 6.09791C41.1426 5.8032 40.9036 5.56425 40.6089 5.56425Z" fill="#FF9494"/>
<path d="M25.1088 75.3378C24.1901 75.3378 23.2794 75.213 22.4086 74.9714C21.5643 74.7351 20.7571 74.3873 20.0058 73.936C18.5694 73.0731 17.364 71.8438 16.5197 70.3809C15.6754 68.9179 15.2134 67.2585 15.1842 65.5859C15.1683 64.7097 15.2718 63.8362 15.4895 62.9866C15.7152 62.1104 16.0604 61.2608 16.5224 60.4643L38.1264 23.0468C38.5857 22.2503 39.1486 21.5255 39.7938 20.8936C40.4204 20.2803 41.1266 19.7546 41.8913 19.3297C43.3568 18.5173 45.0242 18.0898 46.7128 18.0898C48.4014 18.0898 50.0688 18.52 51.5344 19.3297C52.299 19.7546 53.0053 20.2803 53.6319 20.8936C54.2797 21.5255 54.8399 22.2503 55.2992 23.0468L76.9033 60.4669C77.3626 61.2635 77.7104 62.1131 77.9361 62.9892C78.1538 63.8388 78.2547 64.7124 78.2414 65.5885C78.2122 67.2638 77.7502 68.9206 76.9059 70.3835C76.0616 71.8464 74.8563 73.0757 73.4199 73.9386C72.6685 74.39 71.8614 74.7378 71.0171 74.9741C70.1462 75.2183 69.2382 75.3405 68.3169 75.3405H25.1088V75.3378Z" fill="#FF6D64"/>
<path d="M78.4113 62.8641C78.175 61.9428 77.8112 61.0534 77.328 60.2197L77.113 59.8454L55.724 22.7996C55.2407 21.9632 54.654 21.2039 53.9743 20.5401C53.3158 19.8976 52.5751 19.3454 51.7706 18.8993C50.2333 18.0471 48.4837 17.5957 46.7101 17.5957C44.9365 17.5957 43.1869 18.0471 41.6496 18.8993C40.8451 19.3454 40.1044 19.8976 39.4459 20.5401C38.7662 21.2039 38.1768 21.9632 37.6962 22.7996L16.0948 60.2197C15.6116 61.0561 15.2479 61.9455 15.0116 62.8641C14.7832 63.7562 14.677 64.6722 14.693 65.5935C14.7248 67.3512 15.208 69.0902 16.0948 70.6275C16.9816 72.1621 18.2454 73.4524 19.7535 74.3578C20.542 74.8304 21.3916 75.1968 22.2758 75.4464C23.1917 75.7013 24.1423 75.8314 25.1087 75.8314H68.3168C69.2806 75.8314 70.2338 75.7013 71.1497 75.4464C72.0365 75.1995 72.8835 74.8331 73.672 74.3578C75.1774 73.4524 76.4439 72.1621 77.3307 70.6275C78.2175 69.0929 78.7007 67.3512 78.7325 65.5935C78.7458 64.6749 78.6396 63.7562 78.4113 62.8641ZM77.7475 65.5749C77.7183 67.1653 77.2802 68.7424 76.4784 70.1336C75.6739 71.5249 74.5296 72.6931 73.1649 73.5135C72.4507 73.941 71.6834 74.2729 70.8842 74.4959C70.0559 74.7269 69.193 74.8463 68.3168 74.8463H25.1087C24.2325 74.8463 23.3696 74.7295 22.5413 74.4959C21.7394 74.2729 20.9721 73.941 20.2606 73.5135C18.8959 72.6931 17.7516 71.5249 16.9471 70.1336C16.1426 68.7424 15.7045 67.1653 15.6753 65.5749C15.6621 64.7439 15.7576 63.9129 15.9647 63.1084C16.1771 62.2747 16.509 61.4676 16.9471 60.7109L38.5512 23.2908C38.9892 22.5314 39.5229 21.8438 40.1362 21.2411C40.7309 20.6596 41.4027 20.1605 42.1275 19.7569C43.5187 18.9843 45.1038 18.5781 46.7101 18.5781C48.3164 18.5781 49.9015 18.9869 51.2927 19.7569C52.0202 20.1605 52.6892 20.6596 53.284 21.2411C53.8999 21.8438 54.4336 22.5314 54.869 23.2908L74.4234 57.1611L76.4731 60.7109C76.9112 61.4702 77.2404 62.2747 77.4528 63.1084C77.6652 63.9155 77.7634 64.7439 77.7475 65.5749Z" fill="#3B5C91"/>
<path d="M25.0701 70.9916C23.0576 70.9916 21.2549 69.9508 20.2486 68.2065C19.2423 66.4621 19.2423 64.3806 20.2486 62.6389L41.8527 25.2187C42.8589 23.4744 44.6617 22.4336 46.6742 22.4336C48.6867 22.4336 50.4895 23.4744 51.4958 25.2187L73.0998 62.6389C74.1061 64.3832 74.1061 66.4648 73.0998 68.2065C72.0936 69.9508 70.2908 70.9916 68.2783 70.9916H25.0701Z" fill="#FFD385"/>
<path d="M73.5246 62.3922L65.1984 47.97L51.9205 24.9747C50.7549 22.9542 48.7132 21.9453 46.6715 21.9453C44.6298 21.9453 42.5907 22.9542 41.4225 24.9747L19.8211 62.3922C17.4873 66.4332 20.4052 71.4831 25.0701 71.4831H68.2782C72.9431 71.4831 75.8584 66.4332 73.5246 62.3922ZM73.3626 65.5012C73.3467 66.3562 73.1104 67.2084 72.675 67.9625C72.2395 68.7165 71.6209 69.3484 70.8881 69.7891C70.1022 70.2617 69.2234 70.5007 68.2782 70.5007H25.0701C24.1249 70.5007 23.2461 70.2617 22.4602 69.7891C21.7274 69.3484 21.1088 68.7165 20.6733 67.9625C20.2379 67.2084 19.999 66.3562 19.9857 65.5012C19.9698 64.5853 20.2007 63.7038 20.6733 62.886L42.2774 25.4659C42.75 24.6455 43.3978 24.0056 44.1997 23.5622C44.9484 23.148 45.8033 22.9277 46.6768 22.9277C47.5477 22.9277 48.4026 23.148 49.154 23.5622C49.9558 24.0056 50.6036 24.6481 51.0762 25.4659L62.5194 45.2858L72.6803 62.8834C73.1476 63.7038 73.3786 64.5826 73.3626 65.5012Z" fill="#3B5C91"/>
<path d="M47.0064 53.5583C46.4859 53.5583 45.9908 53.3592 45.6165 52.9969C45.2423 52.6362 45.0245 52.1531 45.0041 51.6325L44.3185 41.1175V41.1124C44.2913 40.3724 44.5584 39.6715 45.0722 39.1373C45.5859 38.6032 46.2766 38.3105 47.0166 38.3105C47.7583 38.3105 48.449 38.6049 48.9645 39.139C49.4782 39.6732 49.7453 40.3758 49.7164 41.1175V41.1226L49.0087 51.6359C48.9866 52.1548 48.7688 52.6379 48.3946 52.9969C48.0203 53.3609 47.527 53.5583 47.0064 53.5583Z" fill="#B63F37"/>
<path d="M49.8287 39.9223C49.6943 39.577 49.5003 39.264 49.2503 38.9884C49.2316 38.9663 49.2111 38.9459 49.1907 38.9254C49.1431 38.8744 49.0921 38.8268 49.041 38.7808C48.7977 38.5597 48.5222 38.3811 48.2193 38.2501C47.84 38.0851 47.4351 38 47.0166 38C46.5998 38 46.1949 38.0834 45.8156 38.2484C45.4498 38.4066 45.1232 38.6345 44.8442 38.9237C44.5669 39.2129 44.3526 39.5464 44.2063 39.9189C44.0548 40.3051 43.9868 40.7117 44.0021 41.1285V41.137V41.1455L44.6877 51.652C44.7098 52.1743 44.9037 52.6659 45.2389 53.0589C45.2882 53.1167 45.3409 53.1729 45.3954 53.2256C45.4294 53.2579 45.4634 53.2885 45.4992 53.3192C45.9193 53.6781 46.4484 53.8738 47.0047 53.8738C47.6069 53.8738 48.1768 53.6441 48.6123 53.2273C49.0444 52.8122 49.2962 52.2542 49.3217 51.6571L50.0277 41.1523V41.1438V41.1353C50.0481 40.7168 49.9801 40.3085 49.8287 39.9223ZM49.4017 41.1098L48.694 51.6231C48.6583 52.5298 47.9131 53.246 47.0064 53.246C46.5522 53.246 46.1388 53.0657 45.8343 52.7731C45.5298 52.4805 45.3358 52.0739 45.3188 51.6197L44.6332 41.1047C44.5822 39.7522 45.6659 38.6294 47.0183 38.6294C48.3725 38.6294 49.4561 39.7556 49.4017 41.1098Z" fill="#B63F37"/>
<path d="M47.3243 62.6873C48.9854 62.6873 50.332 61.3407 50.332 59.6796C50.332 58.0185 48.9854 56.6719 47.3243 56.6719C45.6632 56.6719 44.3167 58.0185 44.3167 59.6796C44.3167 61.3407 45.6632 62.6873 47.3243 62.6873Z" fill="#B63F37"/>
<path d="M50.638 59.4349C50.6125 59.0725 50.5274 58.7204 50.3862 58.3852C50.2195 57.9889 49.9797 57.635 49.6735 57.3288C49.3689 57.0243 49.0134 56.7844 48.617 56.6177C48.2819 56.4765 47.9297 56.3914 47.5674 56.3659C47.4857 56.3608 47.4058 56.3574 47.3224 56.3574C46.8733 56.3574 46.4395 56.4459 46.0295 56.6194C45.6331 56.7861 45.2793 57.026 44.9731 57.3305C44.6686 57.635 44.4287 57.9906 44.262 58.3869C44.0885 58.7969 44 59.2324 44 59.6798C44 60.1272 44.0885 60.5627 44.262 60.9727C44.4134 61.3317 44.6243 61.6566 44.8897 61.9407C44.9169 61.9696 44.9459 61.9985 44.9731 62.0275C45.002 62.0564 45.0309 62.0836 45.0598 62.1108C45.3439 62.3762 45.6706 62.5872 46.0295 62.7386C46.4395 62.9121 46.875 63.0005 47.3224 63.0005C47.7698 63.0005 48.2053 62.9121 48.6153 62.7386C49.0117 62.5718 49.3655 62.332 49.6718 62.0275C49.9763 61.723 50.2161 61.3674 50.3845 60.971C50.5581 60.561 50.6465 60.1255 50.6465 59.6781C50.6465 59.5982 50.6431 59.5165 50.638 59.4349ZM47.3241 62.3728C45.8373 62.3728 44.6311 61.1667 44.6311 59.6798C44.6311 58.193 45.8373 56.9869 47.3241 56.9869C47.7154 56.9869 48.0879 57.0702 48.4231 57.2199C49.027 57.4904 49.5135 57.9769 49.784 58.5809C49.9337 58.916 50.0171 59.2886 50.0171 59.6798C50.0171 61.1667 48.811 62.3728 47.3241 62.3728Z" fill="#B63F37"/>
</svg>
