<svg width="18" height="21" viewBox="0 0 18 21" fill="none" xmlns="http://www.w3.org/2000/svg">
<path d="M16.5708 9.5858L8.43912 17.7175C6.87642 19.2802 4.34497 19.2802 2.78227 17.7175C1.21956 16.1548 1.21956 13.6234 2.78227 12.0607L11.6211 3.22184C12.5969 2.24603 14.1808 2.24603 15.1566 3.22184C16.1324 4.19764 16.1324 5.78156 15.1566 6.75737L7.73201 14.182C7.34311 14.5709 6.70671 14.5709 6.3178 14.182C5.92889 13.7931 5.92889 13.1567 6.3178 12.7678L13.0353 6.05026L11.9747 4.9896L5.25714 11.7071C4.28133 12.6829 4.28133 14.2668 5.25714 15.2427C6.23295 16.2185 7.81687 16.2185 8.79267 15.2427L16.2173 7.81803C17.78 6.25533 17.78 3.72388 16.2173 2.16118C14.6546 0.598471 12.1231 0.598472 10.5604 2.16118L1.72161 11C-0.427998 13.1496 -0.427998 16.6286 1.72161 18.7782C3.87121 20.9278 7.35018 20.9278 9.49978 18.7782L17.6315 10.6465L16.5708 9.5858Z" fill="#089DDD"/>
</svg>
