<svg width="20" height="21" viewBox="0 0 20 21" fill="none" xmlns="http://www.w3.org/2000/svg">
<path d="M15.3366 0.810059L19.9436 4.65506L18.6636 6.19006L14.0536 2.34706L15.3366 0.810059ZM4.66264 0.810059L5.94464 2.34606L1.33664 6.19006L0.0566406 4.65406L4.66264 0.810059ZM9.99964 3.00006C5.02964 3.00006 0.999641 7.03006 0.999641 12.0001C0.999641 16.9701 5.02964 21.0001 9.99964 21.0001C14.9696 21.0001 18.9996 16.9701 18.9996 12.0001C18.9996 7.03006 14.9696 3.00006 9.99964 3.00006ZM9.99964 19.0001C6.13964 19.0001 2.99964 15.8601 2.99964 12.0001C2.99964 8.14006 6.13964 5.00006 9.99964 5.00006C13.8596 5.00006 16.9996 8.14006 16.9996 12.0001C16.9996 15.8601 13.8596 19.0001 9.99964 19.0001ZM10.9996 8.00006H8.99964V11.0001H5.99964V13.0001H8.99964V16.0001H10.9996V13.0001H13.9996V11.0001H10.9996V8.00006Z" fill="#08B7DD"/>
</svg>
