<svg width="95" height="95" viewBox="0 0 95 95" fill="none" xmlns="http://www.w3.org/2000/svg">
<g id="Frame 8091">
<g id="Group 13215">
<path id="Vector" d="M95 76.865C95 75.1422 81.0345 73.7456 63.8059 73.7456C57.8294 73.7456 52.2459 73.9137 47.5013 74.2052C42.7541 73.9137 37.1706 73.7456 31.1941 73.7456C13.9655 73.7456 0 75.1422 0 76.865C0 77.4627 1.68064 78.021 4.59587 78.4955C1.68064 78.9702 0 79.5285 0 80.1262C0 81.8491 13.9655 83.2456 31.1941 83.2456C37.1706 83.2456 42.7541 83.0775 47.4987 82.786C52.2432 83.0775 57.8268 83.2456 63.8033 83.2456C81.0318 83.2456 94.9973 81.8491 94.9973 80.1262C94.9973 79.5285 93.3167 78.9702 90.4015 78.4957C93.3194 78.021 95 77.4627 95 76.865Z" fill="#E4E4E4"/>
<g id="Group 13214">
<path id="Vector_2" d="M10.9632 68.6078L10.9633 68.6077L41.3787 15.9255L41.3788 15.9253C42.7062 13.6243 45.0791 12.2544 47.7338 12.2544C50.3885 12.2544 52.7614 13.6243 54.0887 15.9253L54.0888 15.9255L84.5042 68.6075C85.8317 70.9089 85.8315 73.6488 84.5043 75.946L84.5042 75.9463C83.1768 78.2473 80.8039 79.6172 78.1492 79.6172H17.3183C14.6637 79.6172 12.2907 78.2473 10.9634 75.9463C9.63584 73.645 9.63603 70.905 10.9632 68.6078Z" fill="#FFC45C" stroke="#784B4B"/>
<path id="Vector_3" d="M17.3183 80.126C14.485 80.126 11.9469 78.6608 10.5303 76.2049C9.11361 73.7491 9.11361 70.8186 10.5303 68.3665L20.7341 49.6667C20.7341 49.6667 25.8633 63.3851 32.3074 69.7352C47.0573 84.27 84.9373 76.2049 84.9373 76.2049C83.5206 78.6608 80.9826 80.126 78.1492 80.126H17.3183Z" fill="#E1A231"/>
<g id="Group">
<path id="Vector_4" d="M48.166 54.8404C47.4889 54.8404 46.8449 54.5815 46.3581 54.1102C45.8713 53.6411 45.5881 53.0126 45.5615 52.3355L44.6698 38.6581V38.6515C44.6343 37.6889 44.9818 36.7772 45.65 36.0824C46.3183 35.3876 47.2167 35.007 48.1793 35.007C49.1441 35.007 50.0425 35.3898 50.713 36.0846C51.3812 36.7794 51.7286 37.6933 51.691 38.6581V38.6647L50.7705 52.3399C50.7417 53.0148 50.4585 53.6433 49.9717 54.1102C49.4848 54.5837 48.8431 54.8404 48.166 54.8404Z" fill="#CF281E"/>
<path id="Vector_5" d="M51.837 37.1037C51.6622 36.6545 51.4099 36.2474 51.0846 35.8889C51.0603 35.8601 51.0338 35.8336 51.0072 35.807C50.9452 35.7406 50.8789 35.6787 50.8125 35.6189C50.496 35.3313 50.1376 35.0989 49.7437 34.9285C49.2502 34.7139 48.7236 34.6032 48.1792 34.6032C47.6371 34.6032 47.1104 34.7117 46.617 34.9263C46.1412 35.1321 45.7164 35.4286 45.3535 35.8048C44.9928 36.181 44.714 36.6147 44.5237 37.0993C44.3267 37.6016 44.2382 38.1305 44.2581 38.6726V38.6837V38.6947L45.1499 52.3611C45.1786 53.0404 45.4309 53.6799 45.8668 54.1911C45.931 54.2663 45.9996 54.3393 46.0704 54.4079C46.1147 54.45 46.1589 54.4898 46.2054 54.5296C46.752 54.9965 47.4401 55.251 48.1637 55.251C48.9471 55.251 49.6884 54.9523 50.2548 54.4101C50.8169 53.8702 51.1444 53.1444 51.1776 52.3677L52.0959 38.7036V38.6925V38.6815C52.1225 38.1371 52.0339 37.606 51.837 37.1037ZM51.2816 38.6483L50.3611 52.3235C50.3146 53.5029 49.3454 54.4345 48.1659 54.4345C47.5751 54.4345 47.0374 54.1999 46.6413 53.8193C46.2452 53.4387 45.993 52.9099 45.9708 52.319L45.0791 38.6416C45.0127 36.8824 46.4222 35.422 48.1814 35.422C49.9428 35.422 51.3524 36.8869 51.2816 38.6483Z" fill="#CF281E"/>
</g>
<g id="Group_2">
<path id="Vector_6" d="M48.5796 66.7149C50.7403 66.7149 52.4919 64.9633 52.4919 62.8027C52.4919 60.642 50.7403 58.8904 48.5796 58.8904C46.4189 58.8904 44.6674 60.642 44.6674 62.8027C44.6674 64.9633 46.4189 66.7149 48.5796 66.7149Z" fill="#CF281E"/>
<path id="Vector_7" d="M52.8898 62.4843C52.8566 62.0129 52.7459 61.5549 52.5623 61.119C52.3454 60.6034 52.0334 60.1431 51.6351 59.7448C51.239 59.3487 50.7765 59.0367 50.261 58.8198C49.825 58.6362 49.367 58.5255 48.8956 58.4924C48.7894 58.4857 48.6854 58.4813 48.577 58.4813C47.9928 58.4813 47.4285 58.5964 46.8953 58.8221C46.3797 59.0389 45.9194 59.3509 45.5211 59.747C45.125 60.1431 44.813 60.6056 44.5961 61.1212C44.3704 61.6545 44.2554 62.2209 44.2554 62.8029C44.2554 63.3849 44.3704 63.9514 44.5961 64.4847C44.7931 64.9516 45.0675 65.3742 45.4127 65.7437C45.4481 65.7814 45.4857 65.819 45.5211 65.8566C45.5587 65.8942 45.5963 65.9296 45.634 65.965C46.0035 66.3102 46.4284 66.5846 46.8953 66.7816C47.4285 67.0073 47.995 67.1223 48.577 67.1223C49.159 67.1223 49.7254 67.0073 50.2587 66.7816C50.7743 66.5647 51.2346 66.2527 51.6329 65.8566C52.029 65.4605 52.341 64.998 52.5601 64.4824C52.7858 63.9492 52.9008 63.3827 52.9008 62.8007C52.9008 62.6967 52.8964 62.5905 52.8898 62.4843ZM48.5792 66.3058C46.6452 66.3058 45.0763 64.7369 45.0763 62.8029C45.0763 60.8689 46.6452 59.3 48.5792 59.3C49.0882 59.3 49.5728 59.4085 50.0087 59.6032C50.7942 59.955 51.4271 60.5879 51.7789 61.3734C51.9737 61.8094 52.0821 62.294 52.0821 62.8029C52.0821 64.7369 50.5132 66.3058 48.5792 66.3058Z" fill="#CF281E"/>
</g>
</g>
</g>
</g>
</svg>
