<svg width="156" height="200" viewBox="0 0 156 200" fill="none" xmlns="http://www.w3.org/2000/svg">
<rect x="0.5" y="0.5" width="155" height="199" rx="7.5" fill="#FAFAFA"/>
<path d="M78 79C81.85 79 85 82.15 85 86C85 89.85 81.85 93 78 93C74.15 93 71 89.85 71 86C71 82.15 74.15 79 78 79ZM78 110.5C87.45 110.5 98.3 115.015 99 117.5V121H57V117.535C57.7 115.015 68.55 110.5 78 110.5V110.5ZM78 72C70.265 72 64 78.265 64 86C64 93.735 70.265 100 78 100C85.735 100 92 93.735 92 86C92 78.265 85.735 72 78 72V72ZM78 103.5C68.655 103.5 50 108.19 50 117.5V128H106V117.5C106 108.19 87.345 103.5 78 103.5V103.5Z" fill="#C5CED9"/>
<rect x="0.5" y="0.5" width="155" height="199" rx="7.5" stroke="#C5CED9"/>
</svg>
