<svg width="24" height="25" viewBox="0 0 24 25" fill="none" xmlns="http://www.w3.org/2000/svg">
<g clip-path="url(#clip0_9362_19926)">
<path d="M14.82 11.991H21.95C21.48 7.27102 17.72 3.51102 13 3.04102V10.171C13.85 10.481 14.51 11.141 14.82 11.991ZM15 5.57102C17 6.39102 18.6 7.99102 19.42 9.99102H15.99C15.71 9.62102 15.37 9.28102 15 9.00102V5.57102ZM2 12.991C2 18.181 5.95 22.441 11 22.941V15.811C9.84 15.391 9 14.291 9 12.991C9 11.691 9.84 10.591 11 10.171V3.04102C5.95 3.54102 2 7.80102 2 12.991ZM9 5.57102V9.01102C7.77 9.93102 7 11.401 7 12.991C7 14.581 7.77 16.051 9 16.981V20.421C6.04 19.231 4 16.341 4 12.991C4 9.64102 6.04 6.75102 9 5.57102ZM13 15.811V22.941C17.72 22.471 21.48 18.711 21.95 13.991H14.82C14.51 14.841 13.85 15.501 13 15.811ZM15 16.981C15.37 16.701 15.71 16.371 15.99 15.991H19.42C18.6 17.991 17 19.591 15 20.411V16.981Z" fill="#455A64"/>
</g>
<defs>
<clipPath id="clip0_9362_19926">
<rect width="24" height="24" fill="white" transform="translate(0 0.990234)"/>
</clipPath>
</defs>
</svg>
