<svg width="40" height="40" viewBox="0 0 40 40" fill="none" xmlns="http://www.w3.org/2000/svg">
<g filter="url(#filter0_d_355_8437)">
<rect x="4" y="4" width="32" height="32" rx="16" fill="white"/>
<path d="M27.2 13.8H24.347L22.7 12H17.3L15.653 13.8H12.8C11.81 13.8 11 14.61 11 15.6V26.4C11 27.39 11.81 28.2 12.8 28.2H27.2C28.19 28.2 29 27.39 29 26.4V15.6C29 14.61 28.19 13.8 27.2 13.8ZM27.2 26.4H12.8V15.6H16.445L18.092 13.8H21.908L23.555 15.6H27.2V26.4ZM20 16.5C17.516 16.5 15.5 18.516 15.5 21C15.5 23.484 17.516 25.5 20 25.5C22.484 25.5 24.5 23.484 24.5 21C24.5 18.516 22.484 16.5 20 16.5ZM20 23.7C18.515 23.7 17.3 22.485 17.3 21C17.3 19.515 18.515 18.3 20 18.3C21.485 18.3 22.7 19.515 22.7 21C22.7 22.485 21.485 23.7 20 23.7Z" fill="#089DDD"/>
</g>
<defs>
<filter id="filter0_d_355_8437" x="0" y="0" width="40" height="40" filterUnits="userSpaceOnUse" color-interpolation-filters="sRGB">
<feFlood flood-opacity="0" result="BackgroundImageFix"/>
<feColorMatrix in="SourceAlpha" type="matrix" values="0 0 0 0 0 0 0 0 0 0 0 0 0 0 0 0 0 0 127 0" result="hardAlpha"/>
<feOffset/>
<feGaussianBlur stdDeviation="2"/>
<feComposite in2="hardAlpha" operator="out"/>
<feColorMatrix type="matrix" values="0 0 0 0 0 0 0 0 0 0 0 0 0 0 0 0 0 0 0.25 0"/>
<feBlend mode="normal" in2="BackgroundImageFix" result="effect1_dropShadow_355_8437"/>
<feBlend mode="normal" in="SourceGraphic" in2="effect1_dropShadow_355_8437" result="shape"/>
</filter>
</defs>
</svg>
