<svg width="82" height="82" viewBox="0 0 82 82" fill="none" xmlns="http://www.w3.org/2000/svg">
<rect x="0.347656" y="0.3479" width="80.7065" height="80.7065" rx="8" fill="white"/>
<path d="M12.3324 10.2302H10.231V12.3317H12.3324V10.2302Z" fill="black"/>
<path d="M14.4338 10.2302H12.3324V12.3317H14.4338V10.2302Z" fill="black"/>
<path d="M16.5353 10.2302H14.4338V12.3317H16.5353V10.2302Z" fill="black"/>
<path d="M18.6367 10.2302H16.5353V12.3317H18.6367V10.2302Z" fill="black"/>
<path d="M20.7381 10.2302H18.6367V12.3317H20.7381V10.2302Z" fill="black"/>
<path d="M22.8396 10.2302H20.7381V12.3317H22.8396V10.2302Z" fill="black"/>
<path d="M24.941 10.2302H22.8396V12.3317H24.941V10.2302Z" fill="black"/>
<path d="M29.1439 10.2302H27.0424V12.3317H29.1439V10.2302Z" fill="black"/>
<path d="M33.3468 10.2302H31.2453V12.3317H33.3468V10.2302Z" fill="black"/>
<path d="M43.8539 10.2302H41.7525V12.3317H43.8539V10.2302Z" fill="black"/>
<path d="M45.9554 10.2302H43.8539V12.3317H45.9554V10.2302Z" fill="black"/>
<path d="M50.1582 10.2302H48.0568V12.3317H50.1582V10.2302Z" fill="black"/>
<path d="M54.3611 10.2302H52.2597V12.3317H54.3611V10.2302Z" fill="black"/>
<path d="M58.564 10.2302H56.4626V12.3317H58.564V10.2302Z" fill="black"/>
<path d="M60.6654 10.2302H58.564V12.3317H60.6654V10.2302Z" fill="black"/>
<path d="M62.7669 10.2302H60.6654V12.3317H62.7669V10.2302Z" fill="black"/>
<path d="M64.8683 10.2302H62.7669V12.3317H64.8683V10.2302Z" fill="black"/>
<path d="M66.9697 10.2302H64.8683V12.3317H66.9697V10.2302Z" fill="black"/>
<path d="M69.0712 10.2302H66.9697V12.3317H69.0712V10.2302Z" fill="black"/>
<path d="M71.1726 10.2302H69.0712V12.3317H71.1726V10.2302Z" fill="black"/>
<path d="M12.3324 12.3317H10.231V14.4331H12.3324V12.3317Z" fill="black"/>
<path d="M24.941 12.3317H22.8396V14.4331H24.941V12.3317Z" fill="black"/>
<path d="M31.2453 12.3317H29.1439V14.4331H31.2453V12.3317Z" fill="black"/>
<path d="M33.3468 12.3317H31.2453V14.4331H33.3468V12.3317Z" fill="black"/>
<path d="M35.4482 12.3317H33.3468V14.4331H35.4482V12.3317Z" fill="black"/>
<path d="M37.5496 12.3317H35.4482V14.4331H37.5496V12.3317Z" fill="black"/>
<path d="M41.7525 12.3317H39.6511V14.4331H41.7525V12.3317Z" fill="black"/>
<path d="M43.8539 12.3317H41.7525V14.4331H43.8539V12.3317Z" fill="black"/>
<path d="M58.564 12.3317H56.4626V14.4331H58.564V12.3317Z" fill="black"/>
<path d="M71.1726 12.3317H69.0712V14.4331H71.1726V12.3317Z" fill="black"/>
<path d="M12.3324 14.4331H10.231V16.5345H12.3324V14.4331Z" fill="black"/>
<path d="M16.5353 14.4331H14.4338V16.5345H16.5353V14.4331Z" fill="black"/>
<path d="M18.6367 14.4331H16.5353V16.5345H18.6367V14.4331Z" fill="black"/>
<path d="M20.7381 14.4331H18.6367V16.5345H20.7381V14.4331Z" fill="black"/>
<path d="M24.941 14.4331H22.8396V16.5345H24.941V14.4331Z" fill="black"/>
<path d="M33.3468 14.4331H31.2453V16.5345H33.3468V14.4331Z" fill="black"/>
<path d="M35.4482 14.4331H33.3468V16.5345H35.4482V14.4331Z" fill="black"/>
<path d="M37.5496 14.4331H35.4482V16.5345H37.5496V14.4331Z" fill="black"/>
<path d="M39.6511 14.4331H37.5496V16.5345H39.6511V14.4331Z" fill="black"/>
<path d="M43.8539 14.4331H41.7525V16.5345H43.8539V14.4331Z" fill="black"/>
<path d="M45.9554 14.4331H43.8539V16.5345H45.9554V14.4331Z" fill="black"/>
<path d="M52.2597 14.4331H50.1582V16.5345H52.2597V14.4331Z" fill="black"/>
<path d="M54.3611 14.4331H52.2597V16.5345H54.3611V14.4331Z" fill="black"/>
<path d="M58.564 14.4331H56.4626V16.5345H58.564V14.4331Z" fill="black"/>
<path d="M62.7669 14.4331H60.6654V16.5345H62.7669V14.4331Z" fill="black"/>
<path d="M64.8683 14.4331H62.7669V16.5345H64.8683V14.4331Z" fill="black"/>
<path d="M66.9697 14.4331H64.8683V16.5345H66.9697V14.4331Z" fill="black"/>
<path d="M71.1726 14.4331H69.0712V16.5345H71.1726V14.4331Z" fill="black"/>
<path d="M12.3324 16.5345H10.231V18.636H12.3324V16.5345Z" fill="black"/>
<path d="M16.5353 16.5345H14.4338V18.636H16.5353V16.5345Z" fill="black"/>
<path d="M18.6367 16.5345H16.5353V18.636H18.6367V16.5345Z" fill="black"/>
<path d="M20.7381 16.5345H18.6367V18.636H20.7381V16.5345Z" fill="black"/>
<path d="M24.941 16.5345H22.8396V18.636H24.941V16.5345Z" fill="black"/>
<path d="M29.1439 16.5345H27.0424V18.636H29.1439V16.5345Z" fill="black"/>
<path d="M31.2453 16.5345H29.1439V18.636H31.2453V16.5345Z" fill="black"/>
<path d="M33.3468 16.5345H31.2453V18.636H33.3468V16.5345Z" fill="black"/>
<path d="M35.4482 16.5345H33.3468V18.636H35.4482V16.5345Z" fill="black"/>
<path d="M39.6511 16.5345H37.5496V18.636H39.6511V16.5345Z" fill="black"/>
<path d="M45.9554 16.5345H43.8539V18.636H45.9554V16.5345Z" fill="black"/>
<path d="M52.2597 16.5345H50.1582V18.636H52.2597V16.5345Z" fill="black"/>
<path d="M58.564 16.5345H56.4626V18.636H58.564V16.5345Z" fill="black"/>
<path d="M62.7669 16.5345H60.6654V18.636H62.7669V16.5345Z" fill="black"/>
<path d="M64.8683 16.5345H62.7669V18.636H64.8683V16.5345Z" fill="black"/>
<path d="M66.9697 16.5345H64.8683V18.636H66.9697V16.5345Z" fill="black"/>
<path d="M71.1726 16.5345H69.0712V18.636H71.1726V16.5345Z" fill="black"/>
<path d="M12.3324 18.636H10.231V20.7374H12.3324V18.636Z" fill="black"/>
<path d="M16.5353 18.636H14.4338V20.7374H16.5353V18.636Z" fill="black"/>
<path d="M18.6367 18.636H16.5353V20.7374H18.6367V18.636Z" fill="black"/>
<path d="M20.7381 18.636H18.6367V20.7374H20.7381V18.636Z" fill="black"/>
<path d="M24.941 18.636H22.8396V20.7374H24.941V18.636Z" fill="black"/>
<path d="M39.6511 18.636H37.5496V20.7374H39.6511V18.636Z" fill="black"/>
<path d="M41.7525 18.636H39.6511V20.7374H41.7525V18.636Z" fill="black"/>
<path d="M43.8539 18.636H41.7525V20.7374H43.8539V18.636Z" fill="black"/>
<path d="M48.0568 18.636H45.9554V20.7374H48.0568V18.636Z" fill="black"/>
<path d="M58.564 18.636H56.4626V20.7374H58.564V18.636Z" fill="black"/>
<path d="M62.7669 18.636H60.6654V20.7374H62.7669V18.636Z" fill="black"/>
<path d="M64.8683 18.636H62.7669V20.7374H64.8683V18.636Z" fill="black"/>
<path d="M66.9697 18.636H64.8683V20.7374H66.9697V18.636Z" fill="black"/>
<path d="M71.1726 18.636H69.0712V20.7374H71.1726V18.636Z" fill="black"/>
<path d="M12.3324 20.7374H10.231V22.8388H12.3324V20.7374Z" fill="black"/>
<path d="M24.941 20.7374H22.8396V22.8388H24.941V20.7374Z" fill="black"/>
<path d="M29.1439 20.7374H27.0424V22.8388H29.1439V20.7374Z" fill="black"/>
<path d="M31.2453 20.7374H29.1439V22.8388H31.2453V20.7374Z" fill="black"/>
<path d="M33.3468 20.7374H31.2453V22.8388H33.3468V20.7374Z" fill="black"/>
<path d="M35.4482 20.7374H33.3468V22.8388H35.4482V20.7374Z" fill="black"/>
<path d="M37.5496 20.7374H35.4482V22.8388H37.5496V20.7374Z" fill="black"/>
<path d="M39.6511 20.7374H37.5496V22.8388H39.6511V20.7374Z" fill="black"/>
<path d="M43.8539 20.7374H41.7525V22.8388H43.8539V20.7374Z" fill="black"/>
<path d="M45.9554 20.7374H43.8539V22.8388H45.9554V20.7374Z" fill="black"/>
<path d="M58.564 20.7374H56.4626V22.8388H58.564V20.7374Z" fill="black"/>
<path d="M71.1726 20.7374H69.0712V22.8388H71.1726V20.7374Z" fill="black"/>
<path d="M12.3324 22.8388H10.231V24.9403H12.3324V22.8388Z" fill="black"/>
<path d="M14.4338 22.8388H12.3324V24.9403H14.4338V22.8388Z" fill="black"/>
<path d="M16.5353 22.8388H14.4338V24.9403H16.5353V22.8388Z" fill="black"/>
<path d="M18.6367 22.8388H16.5353V24.9403H18.6367V22.8388Z" fill="black"/>
<path d="M20.7381 22.8388H18.6367V24.9403H20.7381V22.8388Z" fill="black"/>
<path d="M22.8396 22.8388H20.7381V24.9403H22.8396V22.8388Z" fill="black"/>
<path d="M24.941 22.8388H22.8396V24.9403H24.941V22.8388Z" fill="black"/>
<path d="M29.1439 22.8388H27.0424V24.9403H29.1439V22.8388Z" fill="black"/>
<path d="M33.3468 22.8388H31.2453V24.9403H33.3468V22.8388Z" fill="black"/>
<path d="M37.5496 22.8388H35.4482V24.9403H37.5496V22.8388Z" fill="black"/>
<path d="M41.7525 22.8388H39.6511V24.9403H41.7525V22.8388Z" fill="black"/>
<path d="M45.9554 22.8388H43.8539V24.9403H45.9554V22.8388Z" fill="black"/>
<path d="M50.1582 22.8388H48.0568V24.9403H50.1582V22.8388Z" fill="black"/>
<path d="M54.3611 22.8388H52.2597V24.9403H54.3611V22.8388Z" fill="black"/>
<path d="M58.564 22.8388H56.4626V24.9403H58.564V22.8388Z" fill="black"/>
<path d="M60.6654 22.8388H58.564V24.9403H60.6654V22.8388Z" fill="black"/>
<path d="M62.7669 22.8388H60.6654V24.9403H62.7669V22.8388Z" fill="black"/>
<path d="M64.8683 22.8388H62.7669V24.9403H64.8683V22.8388Z" fill="black"/>
<path d="M66.9697 22.8388H64.8683V24.9403H66.9697V22.8388Z" fill="black"/>
<path d="M69.0712 22.8388H66.9697V24.9403H69.0712V22.8388Z" fill="black"/>
<path d="M71.1726 22.8388H69.0712V24.9403H71.1726V22.8388Z" fill="black"/>
<path d="M31.2453 24.9403H29.1439V27.0417H31.2453V24.9403Z" fill="black"/>
<path d="M41.7525 24.9403H39.6511V27.0417H41.7525V24.9403Z" fill="black"/>
<path d="M48.0568 24.9403H45.9554V27.0417H48.0568V24.9403Z" fill="black"/>
<path d="M50.1582 24.9403H48.0568V27.0417H50.1582V24.9403Z" fill="black"/>
<path d="M52.2597 24.9403H50.1582V27.0417H52.2597V24.9403Z" fill="black"/>
<path d="M54.3611 24.9403H52.2597V27.0417H54.3611V24.9403Z" fill="black"/>
<path d="M22.8396 27.0417H20.7381V29.1432H22.8396V27.0417Z" fill="black"/>
<path d="M24.941 27.0417H22.8396V29.1432H24.941V27.0417Z" fill="black"/>
<path d="M29.1439 27.0417H27.0424V29.1432H29.1439V27.0417Z" fill="black"/>
<path d="M31.2453 27.0417H29.1439V29.1432H31.2453V27.0417Z" fill="black"/>
<path d="M35.4482 27.0417H33.3468V29.1432H35.4482V27.0417Z" fill="black"/>
<path d="M37.5496 27.0417H35.4482V29.1432H37.5496V27.0417Z" fill="black"/>
<path d="M41.7525 27.0417H39.6511V29.1432H41.7525V27.0417Z" fill="black"/>
<path d="M43.8539 27.0417H41.7525V29.1432H43.8539V27.0417Z" fill="black"/>
<path d="M45.9554 27.0417H43.8539V29.1432H45.9554V27.0417Z" fill="black"/>
<path d="M48.0568 27.0417H45.9554V29.1432H48.0568V27.0417Z" fill="black"/>
<path d="M56.4626 27.0417H54.3611V29.1432H56.4626V27.0417Z" fill="black"/>
<path d="M60.6654 27.0417H58.564V29.1432H60.6654V27.0417Z" fill="black"/>
<path d="M64.8683 27.0417H62.7669V29.1432H64.8683V27.0417Z" fill="black"/>
<path d="M71.1726 27.0417H69.0712V29.1432H71.1726V27.0417Z" fill="black"/>
<path d="M12.3324 29.1432H10.231V31.2446H12.3324V29.1432Z" fill="black"/>
<path d="M18.6367 29.1432H16.5353V31.2446H18.6367V29.1432Z" fill="black"/>
<path d="M27.0424 29.1432H24.941V31.2446H27.0424V29.1432Z" fill="black"/>
<path d="M29.1439 29.1432H27.0424V31.2446H29.1439V29.1432Z" fill="black"/>
<path d="M31.2453 29.1432H29.1439V31.2446H31.2453V29.1432Z" fill="black"/>
<path d="M43.8539 29.1432H41.7525V31.2446H43.8539V29.1432Z" fill="black"/>
<path d="M48.0568 29.1432H45.9554V31.2446H48.0568V29.1432Z" fill="black"/>
<path d="M52.2597 29.1432H50.1582V31.2446H52.2597V29.1432Z" fill="black"/>
<path d="M56.4626 29.1432H54.3611V31.2446H56.4626V29.1432Z" fill="black"/>
<path d="M12.3324 31.2446H10.231V33.346H12.3324V31.2446Z" fill="black"/>
<path d="M18.6367 31.2446H16.5353V33.346H18.6367V31.2446Z" fill="black"/>
<path d="M20.7381 31.2446H18.6367V33.346H20.7381V31.2446Z" fill="black"/>
<path d="M24.941 31.2446H22.8396V33.346H24.941V31.2446Z" fill="black"/>
<path d="M27.0424 31.2446H24.941V33.346H27.0424V31.2446Z" fill="black"/>
<path d="M29.1439 31.2446H27.0424V33.346H29.1439V31.2446Z" fill="black"/>
<path d="M33.3468 31.2446H31.2453V33.346H33.3468V31.2446Z" fill="black"/>
<path d="M37.5496 31.2446H35.4482V33.346H37.5496V31.2446Z" fill="black"/>
<path d="M43.8539 31.2446H41.7525V33.346H43.8539V31.2446Z" fill="black"/>
<path d="M50.1582 31.2446H48.0568V33.346H50.1582V31.2446Z" fill="black"/>
<path d="M54.3611 31.2446H52.2597V33.346H54.3611V31.2446Z" fill="black"/>
<path d="M58.564 31.2446H56.4626V33.346H58.564V31.2446Z" fill="black"/>
<path d="M62.7669 31.2446H60.6654V33.346H62.7669V31.2446Z" fill="black"/>
<path d="M66.9697 31.2446H64.8683V33.346H66.9697V31.2446Z" fill="black"/>
<path d="M71.1726 31.2446H69.0712V33.346H71.1726V31.2446Z" fill="black"/>
<path d="M22.8396 33.346H20.7381V35.4475H22.8396V33.346Z" fill="black"/>
<path d="M33.3468 33.346H31.2453V35.4475H33.3468V33.346Z" fill="black"/>
<path d="M39.6511 33.346H37.5496V35.4475H39.6511V33.346Z" fill="black"/>
<path d="M41.7525 33.346H39.6511V35.4475H41.7525V33.346Z" fill="black"/>
<path d="M45.9554 33.346H43.8539V35.4475H45.9554V33.346Z" fill="black"/>
<path d="M50.1582 33.346H48.0568V35.4475H50.1582V33.346Z" fill="black"/>
<path d="M52.2597 33.346H50.1582V35.4475H52.2597V33.346Z" fill="black"/>
<path d="M54.3611 33.346H52.2597V35.4475H54.3611V33.346Z" fill="black"/>
<path d="M56.4626 33.346H54.3611V35.4475H56.4626V33.346Z" fill="black"/>
<path d="M60.6654 33.346H58.564V35.4475H60.6654V33.346Z" fill="black"/>
<path d="M62.7669 33.346H60.6654V35.4475H62.7669V33.346Z" fill="black"/>
<path d="M16.5353 35.4475H14.4338V37.5489H16.5353V35.4475Z" fill="black"/>
<path d="M24.941 35.4475H22.8396V37.5489H24.941V35.4475Z" fill="black"/>
<path d="M29.1439 35.4475H27.0424V37.5489H29.1439V35.4475Z" fill="black"/>
<path d="M31.2453 35.4475H29.1439V37.5489H31.2453V35.4475Z" fill="black"/>
<path d="M33.3468 35.4475H31.2453V37.5489H33.3468V35.4475Z" fill="black"/>
<path d="M35.4482 35.4475H33.3468V37.5489H35.4482V35.4475Z" fill="black"/>
<path d="M37.5496 35.4475H35.4482V37.5489H37.5496V35.4475Z" fill="black"/>
<path d="M41.7525 35.4475H39.6511V37.5489H41.7525V35.4475Z" fill="black"/>
<path d="M43.8539 35.4475H41.7525V37.5489H43.8539V35.4475Z" fill="black"/>
<path d="M50.1582 35.4475H48.0568V37.5489H50.1582V35.4475Z" fill="black"/>
<path d="M52.2597 35.4475H50.1582V37.5489H52.2597V35.4475Z" fill="black"/>
<path d="M58.564 35.4475H56.4626V37.5489H58.564V35.4475Z" fill="black"/>
<path d="M62.7669 35.4475H60.6654V37.5489H62.7669V35.4475Z" fill="black"/>
<path d="M66.9697 35.4475H64.8683V37.5489H66.9697V35.4475Z" fill="black"/>
<path d="M71.1726 35.4475H69.0712V37.5489H71.1726V35.4475Z" fill="black"/>
<path d="M12.3324 37.5489H10.231V39.6503H12.3324V37.5489Z" fill="black"/>
<path d="M14.4338 37.5489H12.3324V39.6503H14.4338V37.5489Z" fill="black"/>
<path d="M16.5353 37.5489H14.4338V39.6503H16.5353V37.5489Z" fill="black"/>
<path d="M18.6367 37.5489H16.5353V39.6503H18.6367V37.5489Z" fill="black"/>
<path d="M20.7381 37.5489H18.6367V39.6503H20.7381V37.5489Z" fill="black"/>
<path d="M22.8396 37.5489H20.7381V39.6503H22.8396V37.5489Z" fill="black"/>
<path d="M43.8539 37.5489H41.7525V39.6503H43.8539V37.5489Z" fill="black"/>
<path d="M45.9554 37.5489H43.8539V39.6503H45.9554V37.5489Z" fill="black"/>
<path d="M50.1582 37.5489H48.0568V39.6503H50.1582V37.5489Z" fill="black"/>
<path d="M52.2597 37.5489H50.1582V39.6503H52.2597V37.5489Z" fill="black"/>
<path d="M56.4626 37.5489H54.3611V39.6503H56.4626V37.5489Z" fill="black"/>
<path d="M58.564 37.5489H56.4626V39.6503H58.564V37.5489Z" fill="black"/>
<path d="M60.6654 37.5489H58.564V39.6503H60.6654V37.5489Z" fill="black"/>
<path d="M69.0712 37.5489H66.9697V39.6503H69.0712V37.5489Z" fill="black"/>
<path d="M71.1726 37.5489H69.0712V39.6503H71.1726V37.5489Z" fill="black"/>
<path d="M14.4338 39.6503H12.3324V41.7518H14.4338V39.6503Z" fill="black"/>
<path d="M18.6367 39.6503H16.5353V41.7518H18.6367V39.6503Z" fill="black"/>
<path d="M20.7381 39.6503H18.6367V41.7518H20.7381V39.6503Z" fill="black"/>
<path d="M22.8396 39.6503H20.7381V41.7518H22.8396V39.6503Z" fill="black"/>
<path d="M24.941 39.6503H22.8396V41.7518H24.941V39.6503Z" fill="black"/>
<path d="M27.0424 39.6503H24.941V41.7518H27.0424V39.6503Z" fill="black"/>
<path d="M31.2453 39.6503H29.1439V41.7518H31.2453V39.6503Z" fill="black"/>
<path d="M35.4482 39.6503H33.3468V41.7518H35.4482V39.6503Z" fill="black"/>
<path d="M43.8539 39.6503H41.7525V41.7518H43.8539V39.6503Z" fill="black"/>
<path d="M45.9554 39.6503H43.8539V41.7518H45.9554V39.6503Z" fill="black"/>
<path d="M54.3611 39.6503H52.2597V41.7518H54.3611V39.6503Z" fill="black"/>
<path d="M58.564 39.6503H56.4626V41.7518H58.564V39.6503Z" fill="black"/>
<path d="M62.7669 39.6503H60.6654V41.7518H62.7669V39.6503Z" fill="black"/>
<path d="M64.8683 39.6503H62.7669V41.7518H64.8683V39.6503Z" fill="black"/>
<path d="M71.1726 39.6503H69.0712V41.7518H71.1726V39.6503Z" fill="black"/>
<path d="M14.4338 41.7518H12.3324V43.8532H14.4338V41.7518Z" fill="black"/>
<path d="M18.6367 41.7518H16.5353V43.8532H18.6367V41.7518Z" fill="black"/>
<path d="M29.1439 41.7518H27.0424V43.8532H29.1439V41.7518Z" fill="black"/>
<path d="M31.2453 41.7518H29.1439V43.8532H31.2453V41.7518Z" fill="black"/>
<path d="M35.4482 41.7518H33.3468V43.8532H35.4482V41.7518Z" fill="black"/>
<path d="M39.6511 41.7518H37.5496V43.8532H39.6511V41.7518Z" fill="black"/>
<path d="M41.7525 41.7518H39.6511V43.8532H41.7525V41.7518Z" fill="black"/>
<path d="M45.9554 41.7518H43.8539V43.8532H45.9554V41.7518Z" fill="black"/>
<path d="M48.0568 41.7518H45.9554V43.8532H48.0568V41.7518Z" fill="black"/>
<path d="M52.2597 41.7518H50.1582V43.8532H52.2597V41.7518Z" fill="black"/>
<path d="M56.4626 41.7518H54.3611V43.8532H56.4626V41.7518Z" fill="black"/>
<path d="M58.564 41.7518H56.4626V43.8532H58.564V41.7518Z" fill="black"/>
<path d="M62.7669 41.7518H60.6654V43.8532H62.7669V41.7518Z" fill="black"/>
<path d="M64.8683 41.7518H62.7669V43.8532H64.8683V41.7518Z" fill="black"/>
<path d="M69.0712 41.7518H66.9697V43.8532H69.0712V41.7518Z" fill="black"/>
<path d="M12.3324 43.8532H10.231V45.9546H12.3324V43.8532Z" fill="black"/>
<path d="M16.5353 43.8532H14.4338V45.9546H16.5353V43.8532Z" fill="black"/>
<path d="M20.7381 43.8532H18.6367V45.9546H20.7381V43.8532Z" fill="black"/>
<path d="M24.941 43.8532H22.8396V45.9546H24.941V43.8532Z" fill="black"/>
<path d="M33.3468 43.8532H31.2453V45.9546H33.3468V43.8532Z" fill="black"/>
<path d="M37.5496 43.8532H35.4482V45.9546H37.5496V43.8532Z" fill="black"/>
<path d="M41.7525 43.8532H39.6511V45.9546H41.7525V43.8532Z" fill="black"/>
<path d="M43.8539 43.8532H41.7525V45.9546H43.8539V43.8532Z" fill="black"/>
<path d="M45.9554 43.8532H43.8539V45.9546H45.9554V43.8532Z" fill="black"/>
<path d="M52.2597 43.8532H50.1582V45.9546H52.2597V43.8532Z" fill="black"/>
<path d="M54.3611 43.8532H52.2597V45.9546H54.3611V43.8532Z" fill="black"/>
<path d="M56.4626 43.8532H54.3611V45.9546H56.4626V43.8532Z" fill="black"/>
<path d="M60.6654 43.8532H58.564V45.9546H60.6654V43.8532Z" fill="black"/>
<path d="M64.8683 43.8532H62.7669V45.9546H64.8683V43.8532Z" fill="black"/>
<path d="M14.4338 45.9546H12.3324V48.0561H14.4338V45.9546Z" fill="black"/>
<path d="M16.5353 45.9546H14.4338V48.0561H16.5353V45.9546Z" fill="black"/>
<path d="M27.0424 45.9546H24.941V48.0561H27.0424V45.9546Z" fill="black"/>
<path d="M33.3468 45.9546H31.2453V48.0561H33.3468V45.9546Z" fill="black"/>
<path d="M37.5496 45.9546H35.4482V48.0561H37.5496V45.9546Z" fill="black"/>
<path d="M39.6511 45.9546H37.5496V48.0561H39.6511V45.9546Z" fill="black"/>
<path d="M43.8539 45.9546H41.7525V48.0561H43.8539V45.9546Z" fill="black"/>
<path d="M45.9554 45.9546H43.8539V48.0561H45.9554V45.9546Z" fill="black"/>
<path d="M50.1582 45.9546H48.0568V48.0561H50.1582V45.9546Z" fill="black"/>
<path d="M52.2597 45.9546H50.1582V48.0561H52.2597V45.9546Z" fill="black"/>
<path d="M58.564 45.9546H56.4626V48.0561H58.564V45.9546Z" fill="black"/>
<path d="M12.3324 48.0561H10.231V50.1575H12.3324V48.0561Z" fill="black"/>
<path d="M14.4338 48.0561H12.3324V50.1575H14.4338V48.0561Z" fill="black"/>
<path d="M16.5353 48.0561H14.4338V50.1575H16.5353V48.0561Z" fill="black"/>
<path d="M18.6367 48.0561H16.5353V50.1575H18.6367V48.0561Z" fill="black"/>
<path d="M20.7381 48.0561H18.6367V50.1575H20.7381V48.0561Z" fill="black"/>
<path d="M24.941 48.0561H22.8396V50.1575H24.941V48.0561Z" fill="black"/>
<path d="M27.0424 48.0561H24.941V50.1575H27.0424V48.0561Z" fill="black"/>
<path d="M29.1439 48.0561H27.0424V50.1575H29.1439V48.0561Z" fill="black"/>
<path d="M39.6511 48.0561H37.5496V50.1575H39.6511V48.0561Z" fill="black"/>
<path d="M43.8539 48.0561H41.7525V50.1575H43.8539V48.0561Z" fill="black"/>
<path d="M48.0568 48.0561H45.9554V50.1575H48.0568V48.0561Z" fill="black"/>
<path d="M50.1582 48.0561H48.0568V50.1575H50.1582V48.0561Z" fill="black"/>
<path d="M52.2597 48.0561H50.1582V50.1575H52.2597V48.0561Z" fill="black"/>
<path d="M54.3611 48.0561H52.2597V50.1575H54.3611V48.0561Z" fill="black"/>
<path d="M60.6654 48.0561H58.564V50.1575H60.6654V48.0561Z" fill="black"/>
<path d="M62.7669 48.0561H60.6654V50.1575H62.7669V48.0561Z" fill="black"/>
<path d="M12.3324 50.1575H10.231V52.259H12.3324V50.1575Z" fill="black"/>
<path d="M22.8396 50.1575H20.7381V52.259H22.8396V50.1575Z" fill="black"/>
<path d="M29.1439 50.1575H27.0424V52.259H29.1439V50.1575Z" fill="black"/>
<path d="M33.3468 50.1575H31.2453V52.259H33.3468V50.1575Z" fill="black"/>
<path d="M35.4482 50.1575H33.3468V52.259H35.4482V50.1575Z" fill="black"/>
<path d="M39.6511 50.1575H37.5496V52.259H39.6511V50.1575Z" fill="black"/>
<path d="M52.2597 50.1575H50.1582V52.259H52.2597V50.1575Z" fill="black"/>
<path d="M64.8683 50.1575H62.7669V52.259H64.8683V50.1575Z" fill="black"/>
<path d="M66.9697 50.1575H64.8683V52.259H66.9697V50.1575Z" fill="black"/>
<path d="M69.0712 50.1575H66.9697V52.259H69.0712V50.1575Z" fill="black"/>
<path d="M16.5353 52.259H14.4338V54.3604H16.5353V52.259Z" fill="black"/>
<path d="M24.941 52.259H22.8396V54.3604H24.941V52.259Z" fill="black"/>
<path d="M31.2453 52.259H29.1439V54.3604H31.2453V52.259Z" fill="black"/>
<path d="M33.3468 52.259H31.2453V54.3604H33.3468V52.259Z" fill="black"/>
<path d="M39.6511 52.259H37.5496V54.3604H39.6511V52.259Z" fill="black"/>
<path d="M43.8539 52.259H41.7525V54.3604H43.8539V52.259Z" fill="black"/>
<path d="M45.9554 52.259H43.8539V54.3604H45.9554V52.259Z" fill="black"/>
<path d="M48.0568 52.259H45.9554V54.3604H48.0568V52.259Z" fill="black"/>
<path d="M54.3611 52.259H52.2597V54.3604H54.3611V52.259Z" fill="black"/>
<path d="M56.4626 52.259H54.3611V54.3604H56.4626V52.259Z" fill="black"/>
<path d="M58.564 52.259H56.4626V54.3604H58.564V52.259Z" fill="black"/>
<path d="M60.6654 52.259H58.564V54.3604H60.6654V52.259Z" fill="black"/>
<path d="M62.7669 52.259H60.6654V54.3604H62.7669V52.259Z" fill="black"/>
<path d="M69.0712 52.259H66.9697V54.3604H69.0712V52.259Z" fill="black"/>
<path d="M71.1726 52.259H69.0712V54.3604H71.1726V52.259Z" fill="black"/>
<path d="M29.1439 54.3604H27.0424V56.4618H29.1439V54.3604Z" fill="black"/>
<path d="M37.5496 54.3604H35.4482V56.4618H37.5496V54.3604Z" fill="black"/>
<path d="M41.7525 54.3604H39.6511V56.4618H41.7525V54.3604Z" fill="black"/>
<path d="M43.8539 54.3604H41.7525V56.4618H43.8539V54.3604Z" fill="black"/>
<path d="M45.9554 54.3604H43.8539V56.4618H45.9554V54.3604Z" fill="black"/>
<path d="M48.0568 54.3604H45.9554V56.4618H48.0568V54.3604Z" fill="black"/>
<path d="M50.1582 54.3604H48.0568V56.4618H50.1582V54.3604Z" fill="black"/>
<path d="M54.3611 54.3604H52.2597V56.4618H54.3611V54.3604Z" fill="black"/>
<path d="M62.7669 54.3604H60.6654V56.4618H62.7669V54.3604Z" fill="black"/>
<path d="M66.9697 54.3604H64.8683V56.4618H66.9697V54.3604Z" fill="black"/>
<path d="M69.0712 54.3604H66.9697V56.4618H69.0712V54.3604Z" fill="black"/>
<path d="M12.3324 56.4618H10.231V58.5633H12.3324V56.4618Z" fill="black"/>
<path d="M14.4338 56.4618H12.3324V58.5633H14.4338V56.4618Z" fill="black"/>
<path d="M16.5353 56.4618H14.4338V58.5633H16.5353V56.4618Z" fill="black"/>
<path d="M18.6367 56.4618H16.5353V58.5633H18.6367V56.4618Z" fill="black"/>
<path d="M20.7381 56.4618H18.6367V58.5633H20.7381V56.4618Z" fill="black"/>
<path d="M22.8396 56.4618H20.7381V58.5633H22.8396V56.4618Z" fill="black"/>
<path d="M24.941 56.4618H22.8396V58.5633H24.941V56.4618Z" fill="black"/>
<path d="M31.2453 56.4618H29.1439V58.5633H31.2453V56.4618Z" fill="black"/>
<path d="M35.4482 56.4618H33.3468V58.5633H35.4482V56.4618Z" fill="black"/>
<path d="M37.5496 56.4618H35.4482V58.5633H37.5496V56.4618Z" fill="black"/>
<path d="M41.7525 56.4618H39.6511V58.5633H41.7525V56.4618Z" fill="black"/>
<path d="M48.0568 56.4618H45.9554V58.5633H48.0568V56.4618Z" fill="black"/>
<path d="M54.3611 56.4618H52.2597V58.5633H54.3611V56.4618Z" fill="black"/>
<path d="M58.564 56.4618H56.4626V58.5633H58.564V56.4618Z" fill="black"/>
<path d="M62.7669 56.4618H60.6654V58.5633H62.7669V56.4618Z" fill="black"/>
<path d="M64.8683 56.4618H62.7669V58.5633H64.8683V56.4618Z" fill="black"/>
<path d="M71.1726 56.4618H69.0712V58.5633H71.1726V56.4618Z" fill="black"/>
<path d="M12.3324 58.5633H10.231V60.6647H12.3324V58.5633Z" fill="black"/>
<path d="M24.941 58.5633H22.8396V60.6647H24.941V58.5633Z" fill="black"/>
<path d="M29.1439 58.5633H27.0424V60.6647H29.1439V58.5633Z" fill="black"/>
<path d="M33.3468 58.5633H31.2453V60.6647H33.3468V58.5633Z" fill="black"/>
<path d="M35.4482 58.5633H33.3468V60.6647H35.4482V58.5633Z" fill="black"/>
<path d="M39.6511 58.5633H37.5496V60.6647H39.6511V58.5633Z" fill="black"/>
<path d="M48.0568 58.5633H45.9554V60.6647H48.0568V58.5633Z" fill="black"/>
<path d="M50.1582 58.5633H48.0568V60.6647H50.1582V58.5633Z" fill="black"/>
<path d="M52.2597 58.5633H50.1582V60.6647H52.2597V58.5633Z" fill="black"/>
<path d="M54.3611 58.5633H52.2597V60.6647H54.3611V58.5633Z" fill="black"/>
<path d="M62.7669 58.5633H60.6654V60.6647H62.7669V58.5633Z" fill="black"/>
<path d="M64.8683 58.5633H62.7669V60.6647H64.8683V58.5633Z" fill="black"/>
<path d="M69.0712 58.5633H66.9697V60.6647H69.0712V58.5633Z" fill="black"/>
<path d="M12.3324 60.6647H10.231V62.7661H12.3324V60.6647Z" fill="black"/>
<path d="M16.5353 60.6647H14.4338V62.7661H16.5353V60.6647Z" fill="black"/>
<path d="M18.6367 60.6647H16.5353V62.7661H18.6367V60.6647Z" fill="black"/>
<path d="M20.7381 60.6647H18.6367V62.7661H20.7381V60.6647Z" fill="black"/>
<path d="M24.941 60.6647H22.8396V62.7661H24.941V60.6647Z" fill="black"/>
<path d="M33.3468 60.6647H31.2453V62.7661H33.3468V60.6647Z" fill="black"/>
<path d="M35.4482 60.6647H33.3468V62.7661H35.4482V60.6647Z" fill="black"/>
<path d="M41.7525 60.6647H39.6511V62.7661H41.7525V60.6647Z" fill="black"/>
<path d="M43.8539 60.6647H41.7525V62.7661H43.8539V60.6647Z" fill="black"/>
<path d="M50.1582 60.6647H48.0568V62.7661H50.1582V60.6647Z" fill="black"/>
<path d="M52.2597 60.6647H50.1582V62.7661H52.2597V60.6647Z" fill="black"/>
<path d="M54.3611 60.6647H52.2597V62.7661H54.3611V60.6647Z" fill="black"/>
<path d="M56.4626 60.6647H54.3611V62.7661H56.4626V60.6647Z" fill="black"/>
<path d="M58.564 60.6647H56.4626V62.7661H58.564V60.6647Z" fill="black"/>
<path d="M60.6654 60.6647H58.564V62.7661H60.6654V60.6647Z" fill="black"/>
<path d="M62.7669 60.6647H60.6654V62.7661H62.7669V60.6647Z" fill="black"/>
<path d="M64.8683 60.6647H62.7669V62.7661H64.8683V60.6647Z" fill="black"/>
<path d="M66.9697 60.6647H64.8683V62.7661H66.9697V60.6647Z" fill="black"/>
<path d="M69.0712 60.6647H66.9697V62.7661H69.0712V60.6647Z" fill="black"/>
<path d="M71.1726 60.6647H69.0712V62.7661H71.1726V60.6647Z" fill="black"/>
<path d="M12.3324 62.7661H10.231V64.8676H12.3324V62.7661Z" fill="black"/>
<path d="M16.5353 62.7661H14.4338V64.8676H16.5353V62.7661Z" fill="black"/>
<path d="M18.6367 62.7661H16.5353V64.8676H18.6367V62.7661Z" fill="black"/>
<path d="M20.7381 62.7661H18.6367V64.8676H20.7381V62.7661Z" fill="black"/>
<path d="M24.941 62.7661H22.8396V64.8676H24.941V62.7661Z" fill="black"/>
<path d="M31.2453 62.7661H29.1439V64.8676H31.2453V62.7661Z" fill="black"/>
<path d="M33.3468 62.7661H31.2453V64.8676H33.3468V62.7661Z" fill="black"/>
<path d="M35.4482 62.7661H33.3468V64.8676H35.4482V62.7661Z" fill="black"/>
<path d="M37.5496 62.7661H35.4482V64.8676H37.5496V62.7661Z" fill="black"/>
<path d="M43.8539 62.7661H41.7525V64.8676H43.8539V62.7661Z" fill="black"/>
<path d="M45.9554 62.7661H43.8539V64.8676H45.9554V62.7661Z" fill="black"/>
<path d="M50.1582 62.7661H48.0568V64.8676H50.1582V62.7661Z" fill="black"/>
<path d="M62.7669 62.7661H60.6654V64.8676H62.7669V62.7661Z" fill="black"/>
<path d="M64.8683 62.7661H62.7669V64.8676H64.8683V62.7661Z" fill="black"/>
<path d="M12.3324 64.8676H10.231V66.969H12.3324V64.8676Z" fill="black"/>
<path d="M16.5353 64.8676H14.4338V66.969H16.5353V64.8676Z" fill="black"/>
<path d="M18.6367 64.8676H16.5353V66.969H18.6367V64.8676Z" fill="black"/>
<path d="M20.7381 64.8676H18.6367V66.969H20.7381V64.8676Z" fill="black"/>
<path d="M24.941 64.8676H22.8396V66.969H24.941V64.8676Z" fill="black"/>
<path d="M33.3468 64.8676H31.2453V66.969H33.3468V64.8676Z" fill="black"/>
<path d="M35.4482 64.8676H33.3468V66.969H35.4482V64.8676Z" fill="black"/>
<path d="M39.6511 64.8676H37.5496V66.969H39.6511V64.8676Z" fill="black"/>
<path d="M41.7525 64.8676H39.6511V66.969H41.7525V64.8676Z" fill="black"/>
<path d="M54.3611 64.8676H52.2597V66.969H54.3611V64.8676Z" fill="black"/>
<path d="M56.4626 64.8676H54.3611V66.969H56.4626V64.8676Z" fill="black"/>
<path d="M60.6654 64.8676H58.564V66.969H60.6654V64.8676Z" fill="black"/>
<path d="M12.3324 66.969H10.231V69.0704H12.3324V66.969Z" fill="black"/>
<path d="M24.941 66.969H22.8396V69.0704H24.941V66.969Z" fill="black"/>
<path d="M33.3468 66.969H31.2453V69.0704H33.3468V66.969Z" fill="black"/>
<path d="M35.4482 66.969H33.3468V69.0704H35.4482V66.969Z" fill="black"/>
<path d="M37.5496 66.969H35.4482V69.0704H37.5496V66.969Z" fill="black"/>
<path d="M41.7525 66.969H39.6511V69.0704H41.7525V66.969Z" fill="black"/>
<path d="M43.8539 66.969H41.7525V69.0704H43.8539V66.969Z" fill="black"/>
<path d="M45.9554 66.969H43.8539V69.0704H45.9554V66.969Z" fill="black"/>
<path d="M50.1582 66.969H48.0568V69.0704H50.1582V66.969Z" fill="black"/>
<path d="M52.2597 66.969H50.1582V69.0704H52.2597V66.969Z" fill="black"/>
<path d="M56.4626 66.969H54.3611V69.0704H56.4626V66.969Z" fill="black"/>
<path d="M58.564 66.969H56.4626V69.0704H58.564V66.969Z" fill="black"/>
<path d="M60.6654 66.969H58.564V69.0704H60.6654V66.969Z" fill="black"/>
<path d="M62.7669 66.969H60.6654V69.0704H62.7669V66.969Z" fill="black"/>
<path d="M69.0712 66.969H66.9697V69.0704H69.0712V66.969Z" fill="black"/>
<path d="M71.1726 66.969H69.0712V69.0704H71.1726V66.969Z" fill="black"/>
<path d="M12.3324 69.0704H10.231V71.1719H12.3324V69.0704Z" fill="black"/>
<path d="M14.4338 69.0704H12.3324V71.1719H14.4338V69.0704Z" fill="black"/>
<path d="M16.5353 69.0704H14.4338V71.1719H16.5353V69.0704Z" fill="black"/>
<path d="M18.6367 69.0704H16.5353V71.1719H18.6367V69.0704Z" fill="black"/>
<path d="M20.7381 69.0704H18.6367V71.1719H20.7381V69.0704Z" fill="black"/>
<path d="M22.8396 69.0704H20.7381V71.1719H22.8396V69.0704Z" fill="black"/>
<path d="M24.941 69.0704H22.8396V71.1719H24.941V69.0704Z" fill="black"/>
<path d="M31.2453 69.0704H29.1439V71.1719H31.2453V69.0704Z" fill="black"/>
<path d="M37.5496 69.0704H35.4482V71.1719H37.5496V69.0704Z" fill="black"/>
<path d="M41.7525 69.0704H39.6511V71.1719H41.7525V69.0704Z" fill="black"/>
<path d="M48.0568 69.0704H45.9554V71.1719H48.0568V69.0704Z" fill="black"/>
<path d="M50.1582 69.0704H48.0568V71.1719H50.1582V69.0704Z" fill="black"/>
<path d="M52.2597 69.0704H50.1582V71.1719H52.2597V69.0704Z" fill="black"/>
<path d="M56.4626 69.0704H54.3611V71.1719H56.4626V69.0704Z" fill="black"/>
<path d="M64.8683 69.0704H62.7669V71.1719H64.8683V69.0704Z" fill="black"/>
<path d="M66.9697 69.0704H64.8683V71.1719H66.9697V69.0704Z" fill="black"/>
</svg>
