<svg width="330" height="110" viewBox="0 0 330 110" fill="none" xmlns="http://www.w3.org/2000/svg">
<rect x="0.5" y="0.5" width="329" height="108.402" rx="7.5" stroke="white"/>
<path d="M118.583 29H116.464V20.7695H113.75V19.0059H121.297V20.7695H118.583V29ZM125.802 21.2002C126.827 21.2002 127.613 21.4235 128.16 21.8701C128.707 22.3167 128.98 22.9958 128.98 23.9072V29H127.524L127.121 27.9609H127.066C126.848 28.2344 126.624 28.4577 126.396 28.6309C126.169 28.804 125.907 28.9316 125.61 29.0137C125.314 29.0957 124.954 29.1367 124.53 29.1367C124.079 29.1367 123.674 29.0501 123.313 28.877C122.958 28.7038 122.678 28.4395 122.473 28.084C122.268 27.724 122.165 27.2682 122.165 26.7168C122.165 25.9056 122.45 25.3086 123.02 24.9258C123.589 24.5384 124.444 24.3242 125.583 24.2832L126.909 24.2422V23.9072C126.909 23.5062 126.804 23.2122 126.595 23.0254C126.385 22.8385 126.093 22.7451 125.72 22.7451C125.351 22.7451 124.988 22.7975 124.633 22.9023C124.277 23.0072 123.922 23.1393 123.566 23.2988L122.876 21.8906C123.282 21.6764 123.735 21.5078 124.236 21.3848C124.742 21.2617 125.264 21.2002 125.802 21.2002ZM126.909 25.459L126.103 25.4863C125.428 25.5046 124.959 25.6253 124.694 25.8486C124.435 26.0719 124.305 26.3659 124.305 26.7305C124.305 27.0495 124.398 27.2773 124.585 27.4141C124.772 27.5462 125.016 27.6123 125.316 27.6123C125.763 27.6123 126.139 27.4801 126.444 27.2158C126.754 26.9515 126.909 26.5755 126.909 26.0879V25.459ZM127.559 18.835C127.559 19.1859 127.465 19.4753 127.278 19.7031C127.091 19.931 126.816 20.0905 126.451 20.1816L126.383 20.667H125.193L125.036 19.6621C125.378 19.6074 125.61 19.5231 125.733 19.4092C125.856 19.2907 125.918 19.1471 125.918 18.9785C125.918 18.8327 125.87 18.721 125.774 18.6436C125.679 18.5661 125.553 18.5273 125.398 18.5273C125.216 18.5273 125.048 18.5433 124.893 18.5752C124.742 18.6025 124.594 18.639 124.448 18.6846V17.5361C124.58 17.4906 124.758 17.4541 124.981 17.4268C125.205 17.3949 125.428 17.3789 125.651 17.3789C126.285 17.3789 126.761 17.5065 127.08 17.7617C127.399 18.0169 127.559 18.3747 127.559 18.835ZM133.219 21.3574V29H131.134V21.3574H133.219ZM132.18 18.3633C132.49 18.3633 132.756 18.4362 132.979 18.582C133.203 18.7233 133.314 18.9899 133.314 19.3818C133.314 19.7692 133.203 20.0381 132.979 20.1885C132.756 20.3343 132.49 20.4072 132.18 20.4072C131.865 20.4072 131.596 20.3343 131.373 20.1885C131.154 20.0381 131.045 19.7692 131.045 19.3818C131.045 18.9899 131.154 18.7233 131.373 18.582C131.596 18.4362 131.865 18.3633 132.18 18.3633ZM140.615 25.0967L138.154 21.3574H140.52L142.003 23.791L143.5 21.3574H145.865L143.377 25.0967L145.981 29H143.609L142.003 26.3818L140.39 29H138.024L140.615 25.0967ZM154.157 21.3574V29H152.558L152.277 28.0225H152.168C152.004 28.2822 151.799 28.4941 151.553 28.6582C151.307 28.8223 151.035 28.943 150.739 29.0205C150.443 29.098 150.135 29.1367 149.816 29.1367C149.27 29.1367 148.793 29.041 148.388 28.8496C147.982 28.6536 147.665 28.3506 147.438 27.9404C147.214 27.5303 147.103 26.9971 147.103 26.3408V21.3574H149.188V25.8213C149.188 26.3682 149.285 26.7806 149.481 27.0586C149.677 27.3366 149.99 27.4756 150.418 27.4756C150.842 27.4756 151.174 27.3799 151.416 27.1885C151.658 26.9925 151.826 26.7077 151.922 26.334C152.022 25.9557 152.072 25.4954 152.072 24.9531V21.3574H154.157ZM163.29 25.165C163.29 25.8031 163.203 26.3682 163.03 26.8604C162.862 27.3525 162.613 27.7695 162.285 28.1113C161.962 28.4486 161.57 28.7038 161.109 28.877C160.654 29.0501 160.139 29.1367 159.564 29.1367C159.027 29.1367 158.532 29.0501 158.081 28.877C157.634 28.7038 157.245 28.4486 156.912 28.1113C156.584 27.7695 156.329 27.3525 156.146 26.8604C155.969 26.3682 155.88 25.8031 155.88 25.165C155.88 24.3174 156.03 23.5996 156.331 23.0117C156.632 22.4238 157.06 21.9772 157.616 21.6719C158.172 21.3665 158.835 21.2139 159.605 21.2139C160.321 21.2139 160.954 21.3665 161.506 21.6719C162.062 21.9772 162.497 22.4238 162.812 23.0117C163.131 23.5996 163.29 24.3174 163.29 25.165ZM158.006 25.165C158.006 25.6663 158.061 26.0879 158.17 26.4297C158.279 26.7715 158.45 27.029 158.683 27.2021C158.915 27.3753 159.218 27.4619 159.592 27.4619C159.961 27.4619 160.259 27.3753 160.487 27.2021C160.72 27.029 160.888 26.7715 160.993 26.4297C161.103 26.0879 161.157 25.6663 161.157 25.165C161.157 24.6592 161.103 24.2399 160.993 23.9072C160.888 23.57 160.72 23.3171 160.487 23.1484C160.255 22.9798 159.952 22.8955 159.578 22.8955C159.027 22.8955 158.626 23.0846 158.375 23.4629C158.129 23.8411 158.006 24.4085 158.006 25.165ZM162.087 20.5166H160.979C160.747 20.3617 160.508 20.1885 160.262 19.9971C160.016 19.8057 159.774 19.6006 159.537 19.3818C159.291 19.6006 159.045 19.8057 158.799 19.9971C158.557 20.1885 158.323 20.3617 158.095 20.5166H156.987V20.332C157.142 20.1543 157.306 19.9583 157.479 19.7441C157.653 19.5254 157.824 19.3021 157.992 19.0742C158.161 18.8464 158.316 18.6276 158.457 18.418H160.61C160.756 18.6276 160.913 18.8464 161.082 19.0742C161.251 19.3021 161.422 19.5254 161.595 19.7441C161.768 19.9583 161.932 20.1543 162.087 20.332V20.5166ZM161.479 19.0059C161.665 18.8053 161.832 18.6025 161.978 18.3975C162.128 18.1878 162.276 17.9326 162.422 17.6318H164.069V17.7754C163.869 18.0443 163.627 18.2972 163.345 18.5342C163.062 18.7712 162.786 18.9876 162.518 19.1836H161.479V19.0059ZM169.354 21.2139C170.169 21.2139 170.826 21.4372 171.322 21.8838C171.819 22.3258 172.067 23.0368 172.067 24.0166V29H169.982V24.5361C169.982 23.9893 169.882 23.5768 169.682 23.2988C169.486 23.0208 169.176 22.8818 168.752 22.8818C168.114 22.8818 167.679 23.0983 167.446 23.5312C167.214 23.9642 167.098 24.5885 167.098 25.4043V29H165.013V21.3574H166.605L166.886 22.335H167.002C167.166 22.0706 167.369 21.8564 167.61 21.6924C167.856 21.5283 168.128 21.4076 168.424 21.3301C168.725 21.2526 169.035 21.2139 169.354 21.2139ZM176.449 32.3633C175.383 32.3633 174.567 32.1764 174.002 31.8027C173.441 31.4336 173.161 30.9141 173.161 30.2441C173.161 29.7839 173.305 29.3988 173.592 29.0889C173.879 28.779 174.3 28.5579 174.856 28.4258C174.642 28.3346 174.455 28.1865 174.296 27.9814C174.136 27.7718 174.057 27.5508 174.057 27.3184C174.057 27.0267 174.141 26.7852 174.31 26.5938C174.478 26.3978 174.722 26.2064 175.041 26.0195C174.64 25.8464 174.321 25.5684 174.084 25.1855C173.852 24.8027 173.735 24.3516 173.735 23.832C173.735 23.276 173.856 22.8044 174.098 22.417C174.344 22.0251 174.699 21.7266 175.164 21.5215C175.633 21.3164 176.203 21.2139 176.873 21.2139C177.014 21.2139 177.178 21.223 177.365 21.2412C177.552 21.2594 177.723 21.2799 177.878 21.3027C178.037 21.3255 178.145 21.3438 178.199 21.3574H180.865V22.417L179.669 22.7246C179.778 22.8932 179.86 23.0732 179.915 23.2646C179.97 23.4561 179.997 23.6589 179.997 23.873C179.997 24.6934 179.71 25.3337 179.136 25.7939C178.566 26.2497 177.773 26.4775 176.757 26.4775C176.515 26.4639 176.287 26.4456 176.073 26.4229C175.968 26.5049 175.889 26.5915 175.834 26.6826C175.779 26.7738 175.752 26.8695 175.752 26.9697C175.752 27.07 175.793 27.1543 175.875 27.2227C175.962 27.2865 176.089 27.3366 176.258 27.373C176.431 27.4049 176.645 27.4209 176.9 27.4209H178.199C179.038 27.4209 179.676 27.6009 180.113 27.9609C180.555 28.321 180.776 28.8496 180.776 29.5469C180.776 30.4401 180.403 31.1328 179.655 31.625C178.912 32.1172 177.844 32.3633 176.449 32.3633ZM176.538 31.0029C177.035 31.0029 177.461 30.9551 177.816 30.8594C178.176 30.7682 178.452 30.6361 178.644 30.4629C178.835 30.2943 178.931 30.0915 178.931 29.8545C178.931 29.6631 178.874 29.5104 178.76 29.3965C178.65 29.2871 178.482 29.2096 178.254 29.1641C178.031 29.1185 177.743 29.0957 177.393 29.0957H176.312C176.057 29.0957 175.827 29.1367 175.622 29.2188C175.422 29.3008 175.262 29.4147 175.144 29.5605C175.025 29.7109 174.966 29.8841 174.966 30.0801C174.966 30.3672 175.103 30.5928 175.376 30.7568C175.654 30.9209 176.041 31.0029 176.538 31.0029ZM176.873 25.2061C177.265 25.2061 177.552 25.0853 177.734 24.8438C177.917 24.6022 178.008 24.2741 178.008 23.8594C178.008 23.3991 177.912 23.055 177.721 22.8271C177.534 22.5947 177.251 22.4785 176.873 22.4785C176.49 22.4785 176.203 22.5947 176.012 22.8271C175.82 23.055 175.725 23.3991 175.725 23.8594C175.725 24.2741 175.818 24.6022 176.005 24.8438C176.196 25.0853 176.486 25.2061 176.873 25.2061ZM195.856 20.209L195.959 20.3594C195.882 20.7422 195.779 21.1022 195.651 21.4395C195.524 21.7721 195.344 22.0729 195.111 22.3418C194.883 22.6107 194.58 22.8363 194.202 23.0186C193.828 23.2008 193.354 23.333 192.78 23.415V29H191.181L190.9 28.0225H190.777C190.613 28.2822 190.408 28.4941 190.162 28.6582C189.916 28.8223 189.645 28.943 189.349 29.0205C189.057 29.098 188.754 29.1367 188.439 29.1367C187.893 29.1367 187.416 29.041 187.011 28.8496C186.605 28.6536 186.288 28.3506 186.061 27.9404C185.837 27.5303 185.726 26.9971 185.726 26.3408V21.3574H187.811V25.8213C187.811 26.3682 187.909 26.7806 188.104 27.0586C188.3 27.3366 188.613 27.4756 189.041 27.4756C189.679 27.4756 190.114 27.2591 190.347 26.8262C190.579 26.3887 190.695 25.7643 190.695 24.9531V21.3574H192.78V22.1572C193.013 22.0798 193.204 21.9499 193.354 21.7676C193.505 21.5853 193.617 21.362 193.689 21.0977C193.762 20.8288 193.799 20.5326 193.799 20.209H195.856ZM191.967 18.2744V18.418C191.835 18.5456 191.661 18.7028 191.447 18.8896C191.233 19.0765 191.003 19.2725 190.757 19.4775C190.511 19.6781 190.269 19.8717 190.032 20.0586C189.795 20.2409 189.588 20.3936 189.41 20.5166H188.022V20.332C188.173 20.1589 188.346 19.9538 188.542 19.7168C188.743 19.4753 188.941 19.2269 189.137 18.9717C189.333 18.7165 189.497 18.484 189.629 18.2744H191.967ZM200.744 21.2139C201.56 21.2139 202.216 21.4372 202.713 21.8838C203.21 22.3258 203.458 23.0368 203.458 24.0166V29H201.373V24.5361C201.373 23.9893 201.273 23.5768 201.072 23.2988C200.876 23.0208 200.566 22.8818 200.143 22.8818C199.505 22.8818 199.069 23.0983 198.837 23.5312C198.604 23.9642 198.488 24.5885 198.488 25.4043V29H196.403V21.3574H197.996L198.276 22.335H198.393C198.557 22.0706 198.759 21.8564 199.001 21.6924C199.247 21.5283 199.518 21.4076 199.814 21.3301C200.115 21.2526 200.425 21.2139 200.744 21.2139ZM207.84 32.3633C206.773 32.3633 205.958 32.1764 205.393 31.8027C204.832 31.4336 204.552 30.9141 204.552 30.2441C204.552 29.7839 204.695 29.3988 204.982 29.0889C205.27 28.779 205.691 28.5579 206.247 28.4258C206.033 28.3346 205.846 28.1865 205.687 27.9814C205.527 27.7718 205.447 27.5508 205.447 27.3184C205.447 27.0267 205.532 26.7852 205.7 26.5938C205.869 26.3978 206.113 26.2064 206.432 26.0195C206.031 25.8464 205.712 25.5684 205.475 25.1855C205.242 24.8027 205.126 24.3516 205.126 23.832C205.126 23.276 205.247 22.8044 205.488 22.417C205.734 22.0251 206.09 21.7266 206.555 21.5215C207.024 21.3164 207.594 21.2139 208.264 21.2139C208.405 21.2139 208.569 21.223 208.756 21.2412C208.943 21.2594 209.114 21.2799 209.269 21.3027C209.428 21.3255 209.535 21.3438 209.59 21.3574H212.256V22.417L211.06 22.7246C211.169 22.8932 211.251 23.0732 211.306 23.2646C211.36 23.4561 211.388 23.6589 211.388 23.873C211.388 24.6934 211.101 25.3337 210.526 25.7939C209.957 26.2497 209.164 26.4775 208.147 26.4775C207.906 26.4639 207.678 26.4456 207.464 26.4229C207.359 26.5049 207.279 26.5915 207.225 26.6826C207.17 26.7738 207.143 26.8695 207.143 26.9697C207.143 27.07 207.184 27.1543 207.266 27.2227C207.352 27.2865 207.48 27.3366 207.648 27.373C207.822 27.4049 208.036 27.4209 208.291 27.4209H209.59C210.428 27.4209 211.066 27.6009 211.504 27.9609C211.946 28.321 212.167 28.8496 212.167 29.5469C212.167 30.4401 211.793 31.1328 211.046 31.625C210.303 32.1172 209.234 32.3633 207.84 32.3633ZM207.929 31.0029C208.425 31.0029 208.852 30.9551 209.207 30.8594C209.567 30.7682 209.843 30.6361 210.034 30.4629C210.226 30.2943 210.321 30.0915 210.321 29.8545C210.321 29.6631 210.264 29.5104 210.15 29.3965C210.041 29.2871 209.872 29.2096 209.645 29.1641C209.421 29.1185 209.134 29.0957 208.783 29.0957H207.703C207.448 29.0957 207.218 29.1367 207.013 29.2188C206.812 29.3008 206.653 29.4147 206.534 29.5605C206.416 29.7109 206.356 29.8841 206.356 30.0801C206.356 30.3672 206.493 30.5928 206.767 30.7568C207.045 30.9209 207.432 31.0029 207.929 31.0029ZM208.264 25.2061C208.656 25.2061 208.943 25.0853 209.125 24.8438C209.307 24.6022 209.398 24.2741 209.398 23.8594C209.398 23.3991 209.303 23.055 209.111 22.8271C208.924 22.5947 208.642 22.4785 208.264 22.4785C207.881 22.4785 207.594 22.5947 207.402 22.8271C207.211 23.055 207.115 23.3991 207.115 23.8594C207.115 24.2741 207.209 24.6022 207.396 24.8438C207.587 25.0853 207.876 25.2061 208.264 25.2061ZM219.577 29.1367C218.725 29.1367 218.03 28.804 217.492 28.1387C216.959 27.4688 216.692 26.4867 216.692 25.1924C216.692 23.8844 216.964 22.8955 217.506 22.2256C218.048 21.5511 218.757 21.2139 219.632 21.2139C219.996 21.2139 220.318 21.264 220.596 21.3643C220.874 21.4645 221.113 21.599 221.313 21.7676C221.519 21.9362 221.692 22.1253 221.833 22.335H221.901C221.874 22.1891 221.84 21.9749 221.799 21.6924C221.762 21.4053 221.744 21.1113 221.744 20.8105V18.3633H223.836V29H222.236L221.833 28.0088H221.744C221.612 28.2184 221.446 28.4098 221.245 28.583C221.049 28.7516 220.814 28.8861 220.541 28.9863C220.268 29.0866 219.946 29.1367 219.577 29.1367ZM220.309 27.4756C220.878 27.4756 221.279 27.307 221.512 26.9697C221.749 26.6279 221.874 26.1152 221.888 25.4316V25.2061C221.888 24.4632 221.774 23.8958 221.546 23.5039C221.318 23.1074 220.894 22.9092 220.274 22.9092C219.814 22.9092 219.454 23.1074 219.194 23.5039C218.935 23.9004 218.805 24.4723 218.805 25.2197C218.805 25.9671 218.935 26.5299 219.194 26.9082C219.459 27.2865 219.83 27.4756 220.309 27.4756ZM233.03 21.3574V29H231.431L231.15 28.0225H231.041C230.877 28.2822 230.672 28.4941 230.426 28.6582C230.18 28.8223 229.909 28.943 229.612 29.0205C229.316 29.098 229.008 29.1367 228.689 29.1367C228.143 29.1367 227.666 29.041 227.261 28.8496C226.855 28.6536 226.538 28.3506 226.311 27.9404C226.087 27.5303 225.976 26.9971 225.976 26.3408V21.3574H228.061V25.8213C228.061 26.3682 228.159 26.7806 228.354 27.0586C228.55 27.3366 228.863 27.4756 229.291 27.4756C229.715 27.4756 230.048 27.3799 230.289 27.1885C230.531 26.9925 230.699 26.7077 230.795 26.334C230.895 25.9557 230.945 25.4954 230.945 24.9531V21.3574H233.03ZM229.359 31.9395C229.045 31.9395 228.776 31.8643 228.553 31.7139C228.334 31.568 228.225 31.3037 228.225 30.9209C228.225 30.529 228.334 30.2601 228.553 30.1143C228.776 29.9684 229.045 29.8955 229.359 29.8955C229.669 29.8955 229.936 29.9684 230.159 30.1143C230.382 30.2601 230.494 30.529 230.494 30.9209C230.494 31.3037 230.382 31.568 230.159 31.7139C229.936 31.8643 229.669 31.9395 229.359 31.9395ZM239.559 21.2139C240.374 21.2139 241.031 21.4372 241.527 21.8838C242.024 22.3258 242.272 23.0368 242.272 24.0166V29H240.188V24.5361C240.188 23.9893 240.087 23.5768 239.887 23.2988C239.691 23.0208 239.381 22.8818 238.957 22.8818C238.319 22.8818 237.884 23.0983 237.651 23.5312C237.419 23.9642 237.303 24.5885 237.303 25.4043V29H235.218V21.3574H236.811L237.091 22.335H237.207C237.371 22.0706 237.574 21.8564 237.815 21.6924C238.062 21.5283 238.333 21.4076 238.629 21.3301C238.93 21.2526 239.24 21.2139 239.559 21.2139ZM246.654 32.3633C245.588 32.3633 244.772 32.1764 244.207 31.8027C243.646 31.4336 243.366 30.9141 243.366 30.2441C243.366 29.7839 243.51 29.3988 243.797 29.0889C244.084 28.779 244.506 28.5579 245.062 28.4258C244.847 28.3346 244.66 28.1865 244.501 27.9814C244.341 27.7718 244.262 27.5508 244.262 27.3184C244.262 27.0267 244.346 26.7852 244.515 26.5938C244.683 26.3978 244.927 26.2064 245.246 26.0195C244.845 25.8464 244.526 25.5684 244.289 25.1855C244.057 24.8027 243.94 24.3516 243.94 23.832C243.94 23.276 244.061 22.8044 244.303 22.417C244.549 22.0251 244.904 21.7266 245.369 21.5215C245.839 21.3164 246.408 21.2139 247.078 21.2139C247.219 21.2139 247.383 21.223 247.57 21.2412C247.757 21.2594 247.928 21.2799 248.083 21.3027C248.243 21.3255 248.35 21.3438 248.404 21.3574H251.07V22.417L249.874 22.7246C249.983 22.8932 250.065 23.0732 250.12 23.2646C250.175 23.4561 250.202 23.6589 250.202 23.873C250.202 24.6934 249.915 25.3337 249.341 25.7939C248.771 26.2497 247.978 26.4775 246.962 26.4775C246.72 26.4639 246.493 26.4456 246.278 26.4229C246.174 26.5049 246.094 26.5915 246.039 26.6826C245.984 26.7738 245.957 26.8695 245.957 26.9697C245.957 27.07 245.998 27.1543 246.08 27.2227C246.167 27.2865 246.294 27.3366 246.463 27.373C246.636 27.4049 246.85 27.4209 247.105 27.4209H248.404C249.243 27.4209 249.881 27.6009 250.318 27.9609C250.76 28.321 250.981 28.8496 250.981 29.5469C250.981 30.4401 250.608 31.1328 249.86 31.625C249.118 32.1172 248.049 32.3633 246.654 32.3633ZM246.743 31.0029C247.24 31.0029 247.666 30.9551 248.021 30.8594C248.382 30.7682 248.657 30.6361 248.849 30.4629C249.04 30.2943 249.136 30.0915 249.136 29.8545C249.136 29.6631 249.079 29.5104 248.965 29.3965C248.855 29.2871 248.687 29.2096 248.459 29.1641C248.236 29.1185 247.949 29.0957 247.598 29.0957H246.518C246.262 29.0957 246.032 29.1367 245.827 29.2188C245.627 29.3008 245.467 29.4147 245.349 29.5605C245.23 29.7109 245.171 29.8841 245.171 30.0801C245.171 30.3672 245.308 30.5928 245.581 30.7568C245.859 30.9209 246.246 31.0029 246.743 31.0029ZM247.078 25.2061C247.47 25.2061 247.757 25.0853 247.939 24.8438C248.122 24.6022 248.213 24.2741 248.213 23.8594C248.213 23.3991 248.117 23.055 247.926 22.8271C247.739 22.5947 247.456 22.4785 247.078 22.4785C246.695 22.4785 246.408 22.5947 246.217 22.8271C246.025 23.055 245.93 23.3991 245.93 23.8594C245.93 24.2741 246.023 24.6022 246.21 24.8438C246.401 25.0853 246.691 25.2061 247.078 25.2061ZM258.392 29.1367C257.539 29.1367 256.844 28.804 256.307 28.1387C255.773 27.4688 255.507 26.4867 255.507 25.1924C255.507 23.8844 255.778 22.8955 256.32 22.2256C256.863 21.5511 257.571 21.2139 258.446 21.2139C258.811 21.2139 259.132 21.264 259.41 21.3643C259.688 21.4645 259.927 21.599 260.128 21.7676C260.333 21.9362 260.506 22.1253 260.647 22.335H260.716C260.688 22.1891 260.654 21.9749 260.613 21.6924C260.577 21.4053 260.559 21.1113 260.559 20.8105V18.3633H262.65V29H261.051L260.647 28.0088H260.559C260.426 28.2184 260.26 28.4098 260.06 28.583C259.864 28.7516 259.629 28.8861 259.355 28.9863C259.082 29.0866 258.761 29.1367 258.392 29.1367ZM259.123 27.4756C259.693 27.4756 260.094 27.307 260.326 26.9697C260.563 26.6279 260.688 26.1152 260.702 25.4316V25.2061C260.702 24.4632 260.588 23.8958 260.36 23.5039C260.132 23.1074 259.709 22.9092 259.089 22.9092C258.629 22.9092 258.269 23.1074 258.009 23.5039C257.749 23.9004 257.619 24.4723 257.619 25.2197C257.619 25.9671 257.749 26.5299 258.009 26.9082C258.273 27.2865 258.645 27.4756 259.123 27.4756ZM266.916 21.3574V29H264.831V21.3574H266.916ZM265.877 18.3633C266.187 18.3633 266.453 18.4362 266.677 18.582C266.9 18.7233 267.012 18.9899 267.012 19.3818C267.012 19.7692 266.9 20.0381 266.677 20.1885C266.453 20.3343 266.187 20.4072 265.877 20.4072C265.562 20.4072 265.294 20.3343 265.07 20.1885C264.852 20.0381 264.742 19.7692 264.742 19.3818C264.742 18.9899 264.852 18.7233 265.07 18.582C265.294 18.4362 265.562 18.3633 265.877 18.3633ZM275.167 29.1367C274.315 29.1367 273.62 28.82 273.082 28.1865C272.549 27.5531 272.282 26.6257 272.282 25.4043C272.282 24.1647 272.553 23.2282 273.096 22.5947C273.638 21.9567 274.347 21.6377 275.222 21.6377C275.586 21.6377 275.908 21.6878 276.186 21.7881C276.464 21.8838 276.703 22.016 276.903 22.1846C277.108 22.3532 277.282 22.5446 277.423 22.7588H277.491C277.459 22.5583 277.425 22.3031 277.389 21.9932C277.352 21.6833 277.334 21.4098 277.334 21.1729V20.8242H275.181V19.4639H277.334V18.3633H279.426V19.4639H280.485V20.8242H279.426V29H277.826L277.423 28.0088H277.334C277.202 28.2184 277.035 28.4098 276.835 28.583C276.639 28.7516 276.404 28.8861 276.131 28.9863C275.857 29.0866 275.536 29.1367 275.167 29.1367ZM275.898 27.4756C276.468 27.4756 276.869 27.3206 277.102 27.0107C277.339 26.7008 277.464 26.2337 277.478 25.6094V25.418C277.478 24.7435 277.364 24.2285 277.136 23.873C276.908 23.513 276.484 23.333 275.864 23.333C275.404 23.333 275.044 23.513 274.784 23.873C274.524 24.2331 274.395 24.7526 274.395 25.4316C274.395 26.1061 274.524 26.6165 274.784 26.9629C275.049 27.3047 275.42 27.4756 275.898 27.4756ZM288.784 25.165C288.784 25.8031 288.698 26.3682 288.524 26.8604C288.356 27.3525 288.107 27.7695 287.779 28.1113C287.456 28.4486 287.064 28.7038 286.604 28.877C286.148 29.0501 285.633 29.1367 285.059 29.1367C284.521 29.1367 284.026 29.0501 283.575 28.877C283.129 28.7038 282.739 28.4486 282.406 28.1113C282.078 27.7695 281.823 27.3525 281.641 26.8604C281.463 26.3682 281.374 25.8031 281.374 25.165C281.374 24.3174 281.524 23.5996 281.825 23.0117C282.126 22.4238 282.554 21.9772 283.11 21.6719C283.666 21.3665 284.329 21.2139 285.1 21.2139C285.815 21.2139 286.449 21.3665 287 21.6719C287.556 21.9772 287.991 22.4238 288.306 23.0117C288.625 23.5996 288.784 24.3174 288.784 25.165ZM283.5 25.165C283.5 25.6663 283.555 26.0879 283.664 26.4297C283.773 26.7715 283.944 27.029 284.177 27.2021C284.409 27.3753 284.712 27.4619 285.086 27.4619C285.455 27.4619 285.754 27.3753 285.981 27.2021C286.214 27.029 286.382 26.7715 286.487 26.4297C286.597 26.0879 286.651 25.6663 286.651 25.165C286.651 24.6592 286.597 24.2399 286.487 23.9072C286.382 23.57 286.214 23.3171 285.981 23.1484C285.749 22.9798 285.446 22.8955 285.072 22.8955C284.521 22.8955 284.12 23.0846 283.869 23.4629C283.623 23.8411 283.5 24.4085 283.5 25.165ZM285.072 31.9395C284.758 31.9395 284.489 31.8643 284.266 31.7139C284.047 31.568 283.938 31.3037 283.938 30.9209C283.938 30.529 284.047 30.2601 284.266 30.1143C284.489 29.9684 284.758 29.8955 285.072 29.8955C285.382 29.8955 285.649 29.9684 285.872 30.1143C286.095 30.2601 286.207 30.529 286.207 30.9209C286.207 31.3037 286.095 31.568 285.872 31.7139C285.649 31.8643 285.382 31.9395 285.072 31.9395ZM286.316 18.2744C286.449 18.484 286.619 18.7165 286.829 18.9717C287.043 19.2269 287.262 19.4753 287.485 19.7168C287.709 19.9583 287.902 20.1634 288.066 20.332V20.5166H286.686C286.439 20.3708 286.171 20.1976 285.879 19.9971C285.592 19.792 285.327 19.5641 285.086 19.3135C284.84 19.5641 284.578 19.7897 284.3 19.9902C284.022 20.1862 283.762 20.3617 283.521 20.5166H282.133V20.332C282.306 20.1589 282.504 19.9538 282.728 19.7168C282.951 19.4753 283.167 19.2269 283.377 18.9717C283.587 18.7165 283.755 18.484 283.883 18.2744H286.316ZM294.848 21.2139C295.663 21.2139 296.32 21.4372 296.816 21.8838C297.313 22.3258 297.562 23.0368 297.562 24.0166V29H295.477V24.5361C295.477 23.9893 295.376 23.5768 295.176 23.2988C294.98 23.0208 294.67 22.8818 294.246 22.8818C293.608 22.8818 293.173 23.0983 292.94 23.5312C292.708 23.9642 292.592 24.5885 292.592 25.4043V29H290.507V21.3574H292.1L292.38 22.335H292.496C292.66 22.0706 292.863 21.8564 293.104 21.6924C293.351 21.5283 293.622 21.4076 293.918 21.3301C294.219 21.2526 294.529 21.2139 294.848 21.2139ZM301.943 32.3633C300.877 32.3633 300.061 32.1764 299.496 31.8027C298.936 31.4336 298.655 30.9141 298.655 30.2441C298.655 29.7839 298.799 29.3988 299.086 29.0889C299.373 28.779 299.795 28.5579 300.351 28.4258C300.136 28.3346 299.95 28.1865 299.79 27.9814C299.631 27.7718 299.551 27.5508 299.551 27.3184C299.551 27.0267 299.635 26.7852 299.804 26.5938C299.972 26.3978 300.216 26.2064 300.535 26.0195C300.134 25.8464 299.815 25.5684 299.578 25.1855C299.346 24.8027 299.229 24.3516 299.229 23.832C299.229 23.276 299.35 22.8044 299.592 22.417C299.838 22.0251 300.193 21.7266 300.658 21.5215C301.128 21.3164 301.697 21.2139 302.367 21.2139C302.508 21.2139 302.673 21.223 302.859 21.2412C303.046 21.2594 303.217 21.2799 303.372 21.3027C303.532 21.3255 303.639 21.3438 303.693 21.3574H306.359V22.417L305.163 22.7246C305.272 22.8932 305.354 23.0732 305.409 23.2646C305.464 23.4561 305.491 23.6589 305.491 23.873C305.491 24.6934 305.204 25.3337 304.63 25.7939C304.06 26.2497 303.267 26.4775 302.251 26.4775C302.009 26.4639 301.782 26.4456 301.567 26.4229C301.463 26.5049 301.383 26.5915 301.328 26.6826C301.273 26.7738 301.246 26.8695 301.246 26.9697C301.246 27.07 301.287 27.1543 301.369 27.2227C301.456 27.2865 301.583 27.3366 301.752 27.373C301.925 27.4049 302.139 27.4209 302.395 27.4209H303.693C304.532 27.4209 305.17 27.6009 305.607 27.9609C306.049 28.321 306.271 28.8496 306.271 29.5469C306.271 30.4401 305.897 31.1328 305.149 31.625C304.407 32.1172 303.338 32.3633 301.943 32.3633ZM302.032 31.0029C302.529 31.0029 302.955 30.9551 303.311 30.8594C303.671 30.7682 303.946 30.6361 304.138 30.4629C304.329 30.2943 304.425 30.0915 304.425 29.8545C304.425 29.6631 304.368 29.5104 304.254 29.3965C304.145 29.2871 303.976 29.2096 303.748 29.1641C303.525 29.1185 303.238 29.0957 302.887 29.0957H301.807C301.551 29.0957 301.321 29.1367 301.116 29.2188C300.916 29.3008 300.756 29.4147 300.638 29.5605C300.519 29.7109 300.46 29.8841 300.46 30.0801C300.46 30.3672 300.597 30.5928 300.87 30.7568C301.148 30.9209 301.535 31.0029 302.032 31.0029ZM302.367 25.2061C302.759 25.2061 303.046 25.0853 303.229 24.8438C303.411 24.6022 303.502 24.2741 303.502 23.8594C303.502 23.3991 303.406 23.055 303.215 22.8271C303.028 22.5947 302.745 22.4785 302.367 22.4785C301.984 22.4785 301.697 22.5947 301.506 22.8271C301.314 23.055 301.219 23.3991 301.219 23.8594C301.219 24.2741 301.312 24.6022 301.499 24.8438C301.69 25.0853 301.98 25.2061 302.367 25.2061Z" fill="white"/>
<path d="M134.252 52H132.878L129.275 47.1396L128.209 48.0967V52H127.047V42.0059H128.209V46.9893C128.469 46.693 128.735 46.3991 129.009 46.1074C129.282 45.8112 129.553 45.5127 129.822 45.2119L132.741 42.0059H134.102L130.123 46.3398L134.252 52ZM134.266 44.5078H135.482L137.137 48.8555C137.232 49.1107 137.321 49.3568 137.403 49.5938C137.485 49.8262 137.558 50.0495 137.622 50.2637C137.686 50.4779 137.736 50.6852 137.772 50.8857H137.82C137.884 50.6579 137.975 50.3594 138.094 49.9902C138.212 49.6165 138.34 49.236 138.477 48.8486L140.042 44.5078H141.266L138.005 53.1006C137.832 53.5609 137.629 53.9619 137.396 54.3037C137.169 54.6455 136.891 54.9076 136.562 55.0898C136.234 55.2767 135.838 55.3701 135.373 55.3701C135.159 55.3701 134.97 55.3564 134.806 55.3291C134.642 55.3063 134.5 55.279 134.382 55.2471V54.3379C134.482 54.3607 134.603 54.3812 134.744 54.3994C134.89 54.4176 135.04 54.4268 135.195 54.4268C135.478 54.4268 135.722 54.3721 135.927 54.2627C136.136 54.1579 136.316 54.0029 136.467 53.7979C136.617 53.5928 136.747 53.349 136.856 53.0664L137.267 52.0137L134.266 44.5078ZM139.734 41.2744V41.4111C139.643 41.5433 139.518 41.7028 139.358 41.8896C139.203 42.0719 139.03 42.2656 138.839 42.4707C138.647 42.6712 138.454 42.8626 138.258 43.0449C138.066 43.2272 137.889 43.3844 137.725 43.5166H136.966V43.3525C137.112 43.1794 137.271 42.972 137.444 42.7305C137.618 42.4844 137.786 42.2337 137.95 41.9785C138.114 41.7188 138.251 41.484 138.36 41.2744H139.734ZM147.233 41.3633V44.542C147.233 44.7243 147.229 44.9089 147.22 45.0957C147.211 45.278 147.195 45.4466 147.172 45.6016H147.247C147.402 45.3372 147.598 45.1162 147.835 44.9385C148.076 44.7562 148.35 44.6195 148.655 44.5283C148.961 44.4326 149.284 44.3848 149.626 44.3848C150.228 44.3848 150.729 44.4805 151.13 44.6719C151.535 44.8633 151.839 45.1595 152.039 45.5605C152.244 45.9616 152.347 46.4811 152.347 47.1191V52H151.226V47.1943C151.226 46.57 151.082 46.1029 150.795 45.793C150.512 45.4831 150.077 45.3281 149.489 45.3281C148.933 45.3281 148.489 45.4352 148.156 45.6494C147.828 45.859 147.591 46.1689 147.445 46.5791C147.304 46.9893 147.233 47.4906 147.233 48.083V52H146.099V41.3633H147.233ZM161.145 48.2402C161.145 48.8555 161.065 49.4046 160.905 49.8877C160.746 50.3708 160.516 50.7786 160.215 51.1113C159.914 51.444 159.549 51.6992 159.121 51.877C158.697 52.0501 158.216 52.1367 157.679 52.1367C157.177 52.1367 156.717 52.0501 156.298 51.877C155.883 51.6992 155.523 51.444 155.218 51.1113C154.917 50.7786 154.682 50.3708 154.514 49.8877C154.35 49.4046 154.268 48.8555 154.268 48.2402C154.268 47.4199 154.407 46.7227 154.685 46.1484C154.963 45.5697 155.359 45.1299 155.874 44.8291C156.394 44.5238 157.011 44.3711 157.727 44.3711C158.41 44.3711 159.007 44.5238 159.518 44.8291C160.033 45.1344 160.431 45.5765 160.714 46.1553C161.001 46.7295 161.145 47.4245 161.145 48.2402ZM155.443 48.2402C155.443 48.8418 155.523 49.3636 155.683 49.8057C155.842 50.2477 156.088 50.5895 156.421 50.8311C156.754 51.0726 157.182 51.1934 157.706 51.1934C158.226 51.1934 158.652 51.0726 158.984 50.8311C159.322 50.5895 159.57 50.2477 159.729 49.8057C159.889 49.3636 159.969 48.8418 159.969 48.2402C159.969 47.6432 159.889 47.1283 159.729 46.6953C159.57 46.2578 159.324 45.9206 158.991 45.6836C158.659 45.4466 158.228 45.3281 157.699 45.3281C156.92 45.3281 156.348 45.5856 155.983 46.1006C155.623 46.6156 155.443 47.3288 155.443 48.2402ZM155.621 43.5166V43.3662C155.776 43.193 155.942 43.0085 156.12 42.8125C156.298 42.6165 156.473 42.4137 156.646 42.2041C156.824 41.9945 156.984 41.7871 157.125 41.582H158.314C158.46 41.7871 158.618 41.9945 158.786 42.2041C158.959 42.4137 159.132 42.6165 159.306 42.8125C159.483 43.0085 159.652 43.193 159.812 43.3662V43.5166H159.155C158.918 43.3571 158.679 43.1794 158.438 42.9834C158.196 42.7874 157.954 42.5778 157.713 42.3545C157.476 42.5778 157.234 42.7874 156.988 42.9834C156.742 43.1794 156.501 43.3571 156.264 43.5166H155.621ZM155.539 42.1836C155.279 41.9876 155.031 41.7712 154.794 41.5342C154.562 41.2926 154.345 41.0397 154.145 40.7754V40.6318H155.272C155.418 40.9235 155.557 41.1742 155.689 41.3838C155.822 41.5889 155.979 41.8076 156.161 42.04V42.1836H155.539ZM171.59 49.9492C171.59 50.4277 171.469 50.8311 171.228 51.1592C170.991 51.4827 170.649 51.7266 170.202 51.8906C169.76 52.0547 169.231 52.1367 168.616 52.1367C168.092 52.1367 167.639 52.0957 167.256 52.0137C166.873 51.9316 166.538 51.8154 166.251 51.665V50.6191C166.556 50.7695 166.921 50.9062 167.345 51.0293C167.769 51.1523 168.201 51.2139 168.644 51.2139C169.291 51.2139 169.76 51.109 170.052 50.8994C170.343 50.6898 170.489 50.4049 170.489 50.0449C170.489 49.8398 170.43 49.6598 170.312 49.5049C170.198 49.3454 170.004 49.1927 169.73 49.0469C169.457 48.8965 169.079 48.7324 168.596 48.5547C168.117 48.3724 167.702 48.1924 167.352 48.0146C167.005 47.8324 166.736 47.6113 166.545 47.3516C166.358 47.0918 166.265 46.7546 166.265 46.3398C166.265 45.7064 166.52 45.221 167.03 44.8838C167.545 44.542 168.22 44.3711 169.054 44.3711C169.505 44.3711 169.926 44.4167 170.318 44.5078C170.715 44.5944 171.084 44.7129 171.426 44.8633L171.043 45.7725C170.733 45.6403 170.403 45.5286 170.052 45.4375C169.701 45.3464 169.343 45.3008 168.979 45.3008C168.454 45.3008 168.051 45.3874 167.769 45.5605C167.491 45.7337 167.352 45.9707 167.352 46.2715C167.352 46.5039 167.415 46.6953 167.543 46.8457C167.675 46.9961 167.885 47.1374 168.172 47.2695C168.459 47.4017 168.837 47.5566 169.307 47.7344C169.776 47.9076 170.182 48.0876 170.523 48.2744C170.865 48.4567 171.127 48.68 171.31 48.9443C171.496 49.2041 171.59 49.5391 171.59 49.9492ZM179.875 48.2402C179.875 49.0605 179.734 49.7624 179.451 50.3457C179.173 50.9245 178.774 51.3688 178.255 51.6787C177.74 51.984 177.125 52.1367 176.409 52.1367C175.744 52.1367 175.154 51.984 174.639 51.6787C174.124 51.3688 173.72 50.9245 173.429 50.3457C173.142 49.7624 172.998 49.0605 172.998 48.2402C172.998 47.0098 173.306 46.0573 173.921 45.3828C174.541 44.7083 175.386 44.3711 176.457 44.3711C176.954 44.3711 177.407 44.4554 177.817 44.624C178.232 44.7926 178.588 45.0319 178.884 45.3418C179.153 45.2552 179.355 45.1208 179.492 44.9385C179.629 44.7516 179.72 44.5238 179.766 44.2549C179.811 43.986 179.834 43.6875 179.834 43.3594H181.037L181.133 43.5029C181.06 43.9313 180.953 44.3118 180.812 44.6445C180.67 44.9772 180.483 45.2598 180.251 45.4922C180.023 45.7246 179.736 45.9069 179.39 46.0391C179.545 46.3353 179.663 46.668 179.745 47.0371C179.832 47.4062 179.875 47.8073 179.875 48.2402ZM174.174 48.2402C174.174 48.8783 174.251 49.4183 174.406 49.8604C174.566 50.2979 174.812 50.6305 175.145 50.8584C175.482 51.0817 175.912 51.1934 176.437 51.1934C176.965 51.1934 177.396 51.0794 177.729 50.8516C178.061 50.6237 178.305 50.291 178.46 49.8535C178.619 49.4115 178.699 48.8737 178.699 48.2402C178.699 47.6113 178.619 47.0804 178.46 46.6475C178.305 46.2145 178.061 45.8864 177.729 45.6631C177.396 45.4398 176.963 45.3281 176.43 45.3281C175.646 45.3281 175.074 45.5765 174.714 46.0732C174.354 46.5654 174.174 47.2878 174.174 48.2402ZM193.745 44.3711C194.57 44.3711 195.192 44.5876 195.611 45.0205C196.031 45.4489 196.24 46.1393 196.24 47.0918V52H195.119V47.1465C195.119 46.5404 194.987 46.0869 194.723 45.7861C194.463 45.4808 194.076 45.3281 193.561 45.3281C192.836 45.3281 192.31 45.5378 191.981 45.957C191.653 46.3763 191.489 46.9938 191.489 47.8096V52H190.361V47.1465C190.361 46.7409 190.302 46.4036 190.184 46.1348C190.07 45.8659 189.896 45.6654 189.664 45.5332C189.436 45.3965 189.147 45.3281 188.796 45.3281C188.299 45.3281 187.9 45.4307 187.6 45.6357C187.299 45.8408 187.08 46.1462 186.943 46.5518C186.811 46.9528 186.745 47.4473 186.745 48.0352V52H185.61V44.5078H186.526L186.697 45.5674H186.759C186.909 45.3076 187.098 45.0889 187.326 44.9111C187.554 44.7334 187.809 44.599 188.092 44.5078C188.374 44.4167 188.675 44.3711 188.994 44.3711C189.564 44.3711 190.04 44.4782 190.423 44.6924C190.81 44.902 191.09 45.2233 191.264 45.6562H191.325C191.571 45.2233 191.909 44.902 192.337 44.6924C192.765 44.4782 193.235 44.3711 193.745 44.3711ZM205.031 48.2402C205.031 48.8555 204.951 49.4046 204.792 49.8877C204.632 50.3708 204.402 50.7786 204.102 51.1113C203.801 51.444 203.436 51.6992 203.008 51.877C202.584 52.0501 202.103 52.1367 201.565 52.1367C201.064 52.1367 200.604 52.0501 200.185 51.877C199.77 51.6992 199.41 51.444 199.104 51.1113C198.804 50.7786 198.569 50.3708 198.4 49.8877C198.236 49.4046 198.154 48.8555 198.154 48.2402C198.154 47.4199 198.293 46.7227 198.571 46.1484C198.849 45.5697 199.246 45.1299 199.761 44.8291C200.28 44.5238 200.898 44.3711 201.613 44.3711C202.297 44.3711 202.894 44.5238 203.404 44.8291C203.919 45.1344 204.318 45.5765 204.601 46.1553C204.888 46.7295 205.031 47.4245 205.031 48.2402ZM199.33 48.2402C199.33 48.8418 199.41 49.3636 199.569 49.8057C199.729 50.2477 199.975 50.5895 200.308 50.8311C200.64 51.0726 201.069 51.1934 201.593 51.1934C202.112 51.1934 202.538 51.0726 202.871 50.8311C203.208 50.5895 203.457 50.2477 203.616 49.8057C203.776 49.3636 203.855 48.8418 203.855 48.2402C203.855 47.6432 203.776 47.1283 203.616 46.6953C203.457 46.2578 203.211 45.9206 202.878 45.6836C202.545 45.4466 202.115 45.3281 201.586 45.3281C200.807 45.3281 200.235 45.5856 199.87 46.1006C199.51 46.6156 199.33 47.3288 199.33 48.2402ZM201.552 54.3994C201.36 54.3994 201.199 54.3379 201.066 54.2148C200.934 54.0918 200.868 53.9049 200.868 53.6543C200.868 53.3991 200.934 53.21 201.066 53.0869C201.199 52.9684 201.36 52.9092 201.552 52.9092C201.748 52.9092 201.912 52.9684 202.044 53.0869C202.176 53.21 202.242 53.3991 202.242 53.6543C202.242 53.9049 202.176 54.0918 202.044 54.2148C201.912 54.3379 201.748 54.3994 201.552 54.3994ZM208.128 44.5078V52H206.993V44.5078H208.128ZM207.574 41.7051C207.761 41.7051 207.921 41.7666 208.053 41.8896C208.189 42.0081 208.258 42.195 208.258 42.4502C208.258 42.7008 208.189 42.8877 208.053 43.0107C207.921 43.1338 207.761 43.1953 207.574 43.1953C207.378 43.1953 207.214 43.1338 207.082 43.0107C206.954 42.8877 206.891 42.7008 206.891 42.4502C206.891 42.195 206.954 42.0081 207.082 41.8896C207.214 41.7666 207.378 41.7051 207.574 41.7051ZM215.312 52H214.171V41.3633H215.312V52ZM223.898 44.5078V52H222.969L222.805 50.9473H222.743C222.588 51.207 222.388 51.4258 222.142 51.6035C221.896 51.7812 221.618 51.9134 221.308 52C221.002 52.0911 220.676 52.1367 220.33 52.1367C219.738 52.1367 219.241 52.041 218.84 51.8496C218.439 51.6582 218.136 51.362 217.931 50.9609C217.73 50.5599 217.63 50.0449 217.63 49.416V44.5078H218.778V49.334C218.778 49.9583 218.92 50.4255 219.202 50.7354C219.485 51.0407 219.915 51.1934 220.494 51.1934C221.05 51.1934 221.492 51.0885 221.82 50.8789C222.153 50.6693 222.392 50.3617 222.538 49.9561C222.684 49.5459 222.757 49.0446 222.757 48.4521V44.5078H223.898ZM222.791 41.2744V41.4111C222.7 41.5433 222.575 41.7028 222.415 41.8896C222.26 42.0719 222.087 42.2656 221.896 42.4707C221.704 42.6712 221.51 42.8626 221.314 43.0449C221.123 43.2272 220.945 43.3844 220.781 43.5166H220.022V43.3525C220.168 43.1794 220.328 42.972 220.501 42.7305C220.674 42.4844 220.843 42.2337 221.007 41.9785C221.171 41.7188 221.308 41.484 221.417 41.2744H222.791ZM229.299 52.1367C228.624 52.1367 228.03 51.9977 227.515 51.7197C227 51.4417 226.599 51.0179 226.312 50.4482C226.024 49.8786 225.881 49.1608 225.881 48.2949C225.881 47.388 226.031 46.6475 226.332 46.0732C226.637 45.4945 227.057 45.0661 227.59 44.7881C228.123 44.5101 228.729 44.3711 229.408 44.3711C229.782 44.3711 230.142 44.4098 230.488 44.4873C230.839 44.5602 231.126 44.6536 231.35 44.7676L231.008 45.7178C230.78 45.6266 230.516 45.5446 230.215 45.4717C229.919 45.3988 229.641 45.3623 229.381 45.3623C228.861 45.3623 228.428 45.474 228.082 45.6973C227.74 45.9206 227.483 46.2487 227.31 46.6816C227.141 47.1146 227.057 47.6478 227.057 48.2812C227.057 48.8874 227.139 49.4046 227.303 49.833C227.471 50.2614 227.72 50.5895 228.048 50.8174C228.381 51.0407 228.795 51.1523 229.292 51.1523C229.688 51.1523 230.046 51.1113 230.365 51.0293C230.684 50.9427 230.974 50.8424 231.233 50.7285V51.7402C230.983 51.8678 230.702 51.9658 230.393 52.0342C230.087 52.1025 229.723 52.1367 229.299 52.1367ZM234.31 50.373L234.398 50.5303C234.316 50.863 234.212 51.2184 234.084 51.5967C233.961 51.9749 233.824 52.3532 233.674 52.7314C233.528 53.1143 233.38 53.472 233.229 53.8047H232.382C232.478 53.4401 232.571 53.055 232.662 52.6494C232.753 52.2484 232.835 51.8519 232.908 51.46C232.986 51.0635 233.047 50.7012 233.093 50.373H234.31ZM248.405 44.3711C249.23 44.3711 249.852 44.5876 250.271 45.0205C250.691 45.4489 250.9 46.1393 250.9 47.0918V52H249.779V47.1465C249.779 46.5404 249.647 46.0869 249.383 45.7861C249.123 45.4808 248.736 45.3281 248.221 45.3281C247.496 45.3281 246.97 45.5378 246.642 45.957C246.313 46.3763 246.149 46.9938 246.149 47.8096V52H245.021V47.1465C245.021 46.7409 244.962 46.4036 244.844 46.1348C244.73 45.8659 244.557 45.6654 244.324 45.5332C244.096 45.3965 243.807 45.3281 243.456 45.3281C242.959 45.3281 242.561 45.4307 242.26 45.6357C241.959 45.8408 241.74 46.1462 241.604 46.5518C241.471 46.9528 241.405 47.4473 241.405 48.0352V52H240.271V44.5078H241.187L241.357 45.5674H241.419C241.569 45.3076 241.758 45.0889 241.986 44.9111C242.214 44.7334 242.469 44.599 242.752 44.5078C243.035 44.4167 243.335 44.3711 243.654 44.3711C244.224 44.3711 244.7 44.4782 245.083 44.6924C245.47 44.902 245.751 45.2233 245.924 45.6562H245.985C246.231 45.2233 246.569 44.902 246.997 44.6924C247.425 44.4782 247.895 44.3711 248.405 44.3711ZM259.691 48.2402C259.691 48.8555 259.612 49.4046 259.452 49.8877C259.293 50.3708 259.062 50.7786 258.762 51.1113C258.461 51.444 258.096 51.6992 257.668 51.877C257.244 52.0501 256.763 52.1367 256.226 52.1367C255.724 52.1367 255.264 52.0501 254.845 51.877C254.43 51.6992 254.07 51.444 253.765 51.1113C253.464 50.7786 253.229 50.3708 253.061 49.8877C252.896 49.4046 252.814 48.8555 252.814 48.2402C252.814 47.4199 252.953 46.7227 253.231 46.1484C253.509 45.5697 253.906 45.1299 254.421 44.8291C254.94 44.5238 255.558 44.3711 256.273 44.3711C256.957 44.3711 257.554 44.5238 258.064 44.8291C258.579 45.1344 258.978 45.5765 259.261 46.1553C259.548 46.7295 259.691 47.4245 259.691 48.2402ZM253.99 48.2402C253.99 48.8418 254.07 49.3636 254.229 49.8057C254.389 50.2477 254.635 50.5895 254.968 50.8311C255.3 51.0726 255.729 51.1934 256.253 51.1934C256.772 51.1934 257.199 51.0726 257.531 50.8311C257.868 50.5895 258.117 50.2477 258.276 49.8057C258.436 49.3636 258.516 48.8418 258.516 48.2402C258.516 47.6432 258.436 47.1283 258.276 46.6953C258.117 46.2578 257.871 45.9206 257.538 45.6836C257.205 45.4466 256.775 45.3281 256.246 45.3281C255.467 45.3281 254.895 45.5856 254.53 46.1006C254.17 46.6156 253.99 47.3288 253.99 48.2402ZM256.212 54.3994C256.021 54.3994 255.859 54.3379 255.727 54.2148C255.594 54.0918 255.528 53.9049 255.528 53.6543C255.528 53.3991 255.594 53.21 255.727 53.0869C255.859 52.9684 256.021 52.9092 256.212 52.9092C256.408 52.9092 256.572 52.9684 256.704 53.0869C256.836 53.21 256.902 53.3991 256.902 53.6543C256.902 53.9049 256.836 54.0918 256.704 54.2148C256.572 54.3379 256.408 54.3994 256.212 54.3994ZM262.788 44.5078V52H261.653V44.5078H262.788ZM262.234 41.7051C262.421 41.7051 262.581 41.7666 262.713 41.8896C262.85 42.0081 262.918 42.195 262.918 42.4502C262.918 42.7008 262.85 42.8877 262.713 43.0107C262.581 43.1338 262.421 43.1953 262.234 43.1953C262.038 43.1953 261.874 43.1338 261.742 43.0107C261.615 42.8877 261.551 42.7008 261.551 42.4502C261.551 42.195 261.615 42.0081 261.742 41.8896C261.874 41.7666 262.038 41.7051 262.234 41.7051ZM272.379 44.3711C273.268 44.3711 273.94 44.5898 274.396 45.0273C274.851 45.4603 275.079 46.1576 275.079 47.1191V52H273.958V47.1943C273.958 46.57 273.814 46.1029 273.527 45.793C273.245 45.4831 272.81 45.3281 272.222 45.3281C271.392 45.3281 270.809 45.5628 270.472 46.0322C270.134 46.5016 269.966 47.1829 269.966 48.0762V52H268.831V44.5078H269.747L269.918 45.5879H269.979C270.139 45.3236 270.342 45.1025 270.588 44.9248C270.834 44.7425 271.11 44.6058 271.415 44.5146C271.72 44.4189 272.042 44.3711 272.379 44.3711ZM283.877 48.2402C283.877 49.0605 283.736 49.7624 283.453 50.3457C283.175 50.9245 282.776 51.3688 282.257 51.6787C281.742 51.984 281.127 52.1367 280.411 52.1367C279.746 52.1367 279.156 51.984 278.641 51.6787C278.126 51.3688 277.722 50.9245 277.431 50.3457C277.144 49.7624 277 49.0605 277 48.2402C277 47.0098 277.308 46.0573 277.923 45.3828C278.543 44.7083 279.388 44.3711 280.459 44.3711C280.956 44.3711 281.409 44.4554 281.819 44.624C282.234 44.7926 282.59 45.0319 282.886 45.3418C283.155 45.2552 283.357 45.1208 283.494 44.9385C283.631 44.7516 283.722 44.5238 283.768 44.2549C283.813 43.986 283.836 43.6875 283.836 43.3594H285.039L285.135 43.5029C285.062 43.9313 284.955 44.3118 284.813 44.6445C284.672 44.9772 284.485 45.2598 284.253 45.4922C284.025 45.7246 283.738 45.9069 283.392 46.0391C283.547 46.3353 283.665 46.668 283.747 47.0371C283.834 47.4062 283.877 47.8073 283.877 48.2402ZM278.176 48.2402C278.176 48.8783 278.253 49.4183 278.408 49.8604C278.568 50.2979 278.814 50.6305 279.146 50.8584C279.484 51.0817 279.914 51.1934 280.438 51.1934C280.967 51.1934 281.398 51.0794 281.73 50.8516C282.063 50.6237 282.307 50.291 282.462 49.8535C282.621 49.4115 282.701 48.8737 282.701 48.2402C282.701 47.6113 282.621 47.0804 282.462 46.6475C282.307 46.2145 282.063 45.8864 281.73 45.6631C281.398 45.4398 280.965 45.3281 280.432 45.3281C279.648 45.3281 279.076 45.5765 278.716 46.0732C278.356 46.5654 278.176 47.2878 278.176 48.2402ZM287.11 44.5078V52H285.976V44.5078H287.11ZM286.557 41.7051C286.743 41.7051 286.903 41.7666 287.035 41.8896C287.172 42.0081 287.24 42.195 287.24 42.4502C287.24 42.7008 287.172 42.8877 287.035 43.0107C286.903 43.1338 286.743 43.1953 286.557 43.1953C286.361 43.1953 286.197 43.1338 286.064 43.0107C285.937 42.8877 285.873 42.7008 285.873 42.4502C285.873 42.195 285.937 42.0081 286.064 41.8896C286.197 41.7666 286.361 41.7051 286.557 41.7051Z" fill="white"/>
<path d="M208.387 91.7448C208.387 93.274 207.12 94.5127 205.553 94.5127H112.793C111.227 94.5127 109.955 93.274 109.955 91.7448V69.6714C109.955 68.1429 111.227 66.8999 112.793 66.8999H205.552C207.12 66.8999 208.386 68.1429 208.386 69.6714L208.387 91.7448Z" fill="black"/>
<path d="M205.254 66.9334C206.961 66.9334 208.35 68.2847 208.35 69.9455V91.4672C208.35 93.128 206.961 94.4794 205.254 94.4794H113.089C111.382 94.4794 109.993 93.128 109.993 91.4672V69.9455C109.993 68.2847 111.382 66.9334 113.089 66.9334H205.254ZM205.254 66.3585H113.089C111.062 66.3585 109.402 67.9736 109.402 69.9455V91.4672C109.402 93.4392 111.062 95.0542 113.089 95.0542H205.254C207.28 95.0542 208.94 93.4392 208.94 91.4672V69.9455C208.94 67.9736 207.28 66.3585 205.254 66.3585Z" fill="white"/>
<path d="M131.616 80.5514C131.594 78.2393 133.562 77.1144 133.651 77.0621C132.537 75.4816 130.811 75.2657 130.204 75.2485C128.753 75.1 127.347 76.0929 126.608 76.0929C125.854 76.0929 124.717 75.2628 123.49 75.2872C121.913 75.3109 120.436 76.1998 119.627 77.58C117.956 80.3943 119.202 84.5301 120.803 86.8049C121.604 87.9191 122.539 89.163 123.764 89.1193C124.962 89.0712 125.41 88.376 126.856 88.376C128.288 88.376 128.708 89.1193 129.957 89.0913C131.243 89.0712 132.053 87.9721 132.826 86.848C133.751 85.571 134.123 84.3135 134.137 84.2489C134.107 84.2388 131.64 83.3227 131.616 80.5514Z" fill="white"/>
<path d="M129.256 73.752C129.901 72.9679 130.342 71.9011 130.219 70.8186C129.287 70.8588 128.12 71.4463 127.448 72.2132C126.854 72.889 126.323 73.9966 126.46 75.0383C127.508 75.1143 128.584 74.5239 129.256 73.752Z" fill="white"/>
<path d="M148.955 88.9592H147.281L146.363 86.1549H143.175L142.302 88.9592H140.671L143.83 79.4121H145.781L148.955 88.9592ZM146.087 84.9783L145.258 82.4854C145.17 82.2307 145.005 81.631 144.763 80.6869H144.733C144.637 81.093 144.481 81.6927 144.267 82.4854L143.453 84.9783H146.087Z" fill="white"/>
<path d="M157.079 85.4326C157.079 86.6033 156.754 87.5288 156.103 88.2081C155.521 88.8129 154.797 89.1149 153.934 89.1149C153.002 89.1149 152.333 88.7892 151.925 88.1378H151.895V91.7643H150.323V84.3414C150.323 83.6054 150.303 82.8499 150.265 82.0752H151.648L151.735 83.1663H151.765C152.289 82.3442 153.085 81.9338 154.152 81.9338C154.987 81.9338 155.684 82.2545 156.241 82.8966C156.8 83.5394 157.079 84.3844 157.079 85.4326ZM155.477 85.4885C155.477 84.8185 155.322 84.2661 155.011 83.8313C154.671 83.3779 154.215 83.1513 153.643 83.1513C153.255 83.1513 152.903 83.2775 152.588 83.5264C152.272 83.7775 152.066 84.1054 151.969 84.5114C151.92 84.7008 151.896 84.8558 151.896 84.9777V86.1256C151.896 86.6263 152.054 87.0488 152.369 87.3939C152.685 87.739 153.095 87.9111 153.599 87.9111C154.191 87.9111 154.652 87.6888 154.982 87.2454C155.312 86.8013 155.477 86.2159 155.477 85.4885Z" fill="white"/>
<path d="M165.217 85.4326C165.217 86.6033 164.891 87.5288 164.24 88.2081C163.659 88.8129 162.935 89.1149 162.072 89.1149C161.14 89.1149 160.471 88.7892 160.064 88.1378H160.034V91.7643H158.462V84.3414C158.462 83.6054 158.442 82.8499 158.404 82.0752H159.786L159.874 83.1663H159.904C160.427 82.3442 161.223 81.9338 162.291 81.9338C163.125 81.9338 163.822 82.2545 164.381 82.8966C164.937 83.5394 165.217 84.3844 165.217 85.4326ZM163.615 85.4885C163.615 84.8185 163.46 84.2661 163.148 83.8313C162.809 83.3779 162.354 83.1513 161.781 83.1513C161.392 83.1513 161.04 83.2775 160.725 83.5264C160.409 83.7775 160.204 84.1054 160.107 84.5114C160.059 84.7008 160.034 84.8558 160.034 84.9777V86.1256C160.034 86.6263 160.192 87.0488 160.506 87.3939C160.821 87.7383 161.231 87.9111 161.737 87.9111C162.329 87.9111 162.79 87.6888 163.12 87.2454C163.45 86.8013 163.615 86.2159 163.615 85.4885Z" fill="white"/>
<path d="M174.315 86.2821C174.315 87.0942 174.025 87.7549 173.443 88.265C172.804 88.8224 171.914 89.1007 170.771 89.1007C169.715 89.1007 168.868 88.9027 168.228 88.506L168.592 87.2312C169.282 87.6372 170.039 87.841 170.864 87.841C171.456 87.841 171.917 87.7104 172.248 87.4507C172.578 87.191 172.742 86.8424 172.742 86.4076C172.742 86.0202 172.606 85.6938 172.334 85.4291C172.064 85.1644 171.612 84.9183 170.981 84.6909C169.263 84.0675 168.404 83.1543 168.404 81.9534C168.404 81.1685 168.705 80.525 169.308 80.0243C169.908 79.5228 170.709 79.2725 171.71 79.2725C172.603 79.2725 173.345 79.4238 173.937 79.7259L173.544 80.9727C172.991 80.68 172.365 80.5336 171.666 80.5336C171.113 80.5336 170.681 80.6664 170.371 80.9304C170.109 81.1664 169.978 81.454 169.978 81.7948C169.978 82.1722 170.128 82.4842 170.428 82.7296C170.69 82.9563 171.166 83.2016 171.856 83.4663C172.7 83.797 173.32 84.1837 173.719 84.6271C174.117 85.069 174.315 85.6221 174.315 86.2821Z" fill="white"/>
<path d="M179.512 83.2232H177.779V86.5655C177.779 87.4157 178.085 87.8403 178.697 87.8403C178.977 87.8403 179.21 87.8167 179.395 87.7693L179.438 88.9308C179.129 89.0434 178.721 89.1001 178.216 89.1001C177.595 89.1001 177.11 88.9157 176.76 88.5477C176.411 88.179 176.235 87.5606 176.235 86.6918V83.2218H175.203V82.074H176.235V80.8135L177.779 80.3601V82.074H179.512V83.2232Z" fill="white"/>
<path d="M187.33 85.4605C187.33 86.5187 187.019 87.3875 186.398 88.0668C185.747 88.7663 184.883 89.1149 183.806 89.1149C182.767 89.1149 181.941 88.7799 181.324 88.1099C180.708 87.4398 180.4 86.594 180.4 85.5746C180.4 84.5079 180.717 83.6341 181.353 82.9547C181.988 82.2746 182.845 81.9346 183.922 81.9346C184.96 81.9346 185.796 82.2696 186.426 82.9404C187.029 83.591 187.33 84.4311 187.33 85.4605ZM185.699 85.51C185.699 84.8752 185.56 84.3307 185.277 83.8765C184.948 83.327 184.477 83.053 183.866 83.053C183.234 83.053 182.754 83.3277 182.425 83.8765C182.142 84.3314 182.003 84.8845 182.003 85.5387C182.003 86.1736 182.142 86.7181 182.425 87.1715C182.764 87.721 183.239 87.9951 183.852 87.9951C184.452 87.9951 184.923 87.7153 185.263 87.1572C185.553 86.6945 185.699 86.1442 185.699 85.51Z" fill="white"/>
<path d="M192.44 83.4203C192.284 83.3923 192.118 83.3779 191.944 83.3779C191.391 83.3779 190.964 83.581 190.663 83.9877C190.401 84.3464 190.27 84.7998 190.27 85.3472V88.9593H188.699L188.713 84.2431C188.713 83.4497 188.693 82.7273 188.654 82.0759H190.024L190.081 83.393H190.125C190.29 82.9403 190.552 82.5759 190.911 82.3026C191.261 82.0565 191.639 81.9338 192.047 81.9338C192.192 81.9338 192.323 81.9439 192.44 81.9618V83.4203Z" fill="white"/>
<path d="M199.469 85.1917C199.469 85.4658 199.451 85.6968 199.412 85.8854H194.696C194.715 86.5655 194.942 87.0856 195.38 87.4443C195.778 87.765 196.292 87.9257 196.923 87.9257C197.621 87.9257 198.258 87.8174 198.831 87.6L199.077 88.6618C198.408 88.9458 197.617 89.0872 196.705 89.0872C195.608 89.0872 194.747 88.7729 194.12 88.1452C193.495 87.5175 193.182 86.6746 193.182 85.6171C193.182 84.5791 193.473 83.7146 194.056 83.0252C194.667 82.2892 195.492 81.9211 196.53 81.9211C197.55 81.9211 198.321 82.2892 198.846 83.0252C199.261 83.6099 199.469 84.333 199.469 85.1917ZM197.971 84.795C197.981 84.3416 197.878 83.9499 197.665 83.6192C197.393 83.1938 196.975 82.9814 196.413 82.9814C195.899 82.9814 195.481 83.1888 195.161 83.6049C194.9 83.9356 194.744 84.3323 194.696 84.7943H197.971V84.795Z" fill="white"/>
<path d="M145.569 73.5394C145.569 74.3837 145.309 75.0194 144.789 75.4462C144.307 75.84 143.623 76.0373 142.737 76.0373C142.297 76.0373 141.921 76.0187 141.606 75.9814V71.3678C142.017 71.3033 142.46 71.2703 142.937 71.2703C143.782 71.2703 144.418 71.4489 144.847 71.8062C145.328 72.21 145.569 72.7875 145.569 73.5394ZM144.754 73.5602C144.754 73.0128 144.605 72.5931 144.307 72.3004C144.009 72.0085 143.574 71.8621 143.001 71.8621C142.758 71.8621 142.551 71.8779 142.379 71.9109V75.4182C142.474 75.4326 142.648 75.439 142.901 75.439C143.493 75.439 143.949 75.279 144.27 74.9591C144.592 74.6391 144.754 74.1728 144.754 73.5602Z" fill="white"/>
<path d="M149.888 74.2767C149.888 74.7968 149.735 75.2229 149.43 75.5572C149.11 75.9009 148.686 76.0723 148.157 76.0723C147.647 76.0723 147.24 75.9081 146.937 75.5781C146.635 75.2488 146.484 74.8334 146.484 74.3327C146.484 73.809 146.639 73.3792 146.952 73.0457C147.265 72.7121 147.685 72.5449 148.214 72.5449C148.725 72.5449 149.135 72.7092 149.445 73.0385C149.74 73.3584 149.888 73.7717 149.888 74.2767ZM149.087 74.3011C149.087 73.989 149.017 73.7214 148.879 73.4983C148.717 73.2286 148.486 73.0937 148.186 73.0937C147.876 73.0937 147.64 73.2286 147.478 73.4983C147.339 73.7214 147.271 73.9933 147.271 74.3147C147.271 74.6268 147.34 74.8944 147.478 75.1175C147.645 75.3872 147.878 75.5221 148.179 75.5221C148.474 75.5221 148.705 75.3851 148.872 75.1103C149.015 74.8829 149.087 74.6132 149.087 74.3011Z" fill="white"/>
<path d="M155.681 72.614L154.593 75.9958H153.886L153.435 74.5273C153.321 74.1607 153.228 73.7963 153.156 73.4347H153.142C153.074 73.8063 152.982 74.17 152.862 74.5273L152.384 75.9958H151.668L150.645 72.614H151.439L151.832 74.2217C151.927 74.6019 152.005 74.9642 152.068 75.3071H152.082C152.14 75.0244 152.235 74.6643 152.369 74.2289L152.862 72.6147H153.492L153.964 74.1944C154.079 74.5797 154.172 74.9506 154.243 75.3078H154.265C154.317 74.9599 154.396 74.589 154.5 74.1944L154.922 72.6147H155.681V72.614Z" fill="white"/>
<path d="M159.686 75.9955H158.914V74.0586C158.914 73.4617 158.681 73.1633 158.213 73.1633C157.984 73.1633 157.799 73.2451 157.655 73.4093C157.513 73.5736 157.44 73.7673 157.44 73.989V75.9948H156.668V73.5801C156.668 73.2831 156.658 72.961 156.64 72.6123H157.319L157.355 73.141H157.376C157.466 72.9767 157.6 72.8412 157.777 72.7328C157.986 72.6066 158.22 72.5427 158.477 72.5427C158.801 72.5427 159.071 72.6446 159.286 72.8491C159.553 73.0994 159.686 73.4732 159.686 73.9696V75.9955Z" fill="white"/>
<path d="M161.818 75.9958H161.046V71.0623H161.818V75.9958Z" fill="white"/>
<path d="M166.367 74.2767C166.367 74.7968 166.214 75.2229 165.909 75.5572C165.589 75.9009 165.165 76.0723 164.636 76.0723C164.125 76.0723 163.719 75.9081 163.416 75.5781C163.114 75.2488 162.963 74.8334 162.963 74.3327C162.963 73.809 163.118 73.3792 163.431 73.0457C163.744 72.7121 164.164 72.5449 164.693 72.5449C165.204 72.5449 165.613 72.7092 165.924 73.0385C166.219 73.3584 166.367 73.7717 166.367 74.2767ZM165.565 74.3011C165.565 73.989 165.496 73.7214 165.358 73.4983C165.196 73.2286 164.965 73.0937 164.665 73.0937C164.354 73.0937 164.118 73.2286 163.957 73.4983C163.818 73.7214 163.75 73.9933 163.75 74.3147C163.75 74.6268 163.819 74.8944 163.957 75.1175C164.124 75.3872 164.357 75.5221 164.658 75.5221C164.953 75.5221 165.184 75.3851 165.35 75.1103C165.494 74.8829 165.565 74.6132 165.565 74.3011Z" fill="white"/>
<path d="M170.106 75.9956H169.413L169.355 75.606H169.334C169.096 75.9167 168.758 76.0723 168.318 76.0723C167.99 76.0723 167.725 75.9697 167.525 75.766C167.344 75.5809 167.253 75.3506 167.253 75.0773C167.253 74.6641 167.43 74.3492 167.786 74.1311C168.141 73.913 168.641 73.8061 169.285 73.8111V73.748C169.285 73.3025 169.045 73.0801 168.563 73.0801C168.22 73.0801 167.918 73.164 167.657 73.3305L167.5 72.8369C167.823 72.6425 168.222 72.5449 168.692 72.5449C169.601 72.5449 170.056 73.0112 170.056 73.9438V75.1892C170.056 75.5271 170.073 75.7961 170.106 75.9956ZM169.304 74.8334V74.3119C168.452 74.2975 168.026 74.5249 168.026 74.9934C168.026 75.1699 168.074 75.3019 168.174 75.3901C168.273 75.4783 168.4 75.5221 168.551 75.5221C168.721 75.5221 168.879 75.4697 169.024 75.3657C169.169 75.261 169.258 75.1282 169.292 74.9654C169.3 74.9288 169.304 74.8843 169.304 74.8334Z" fill="white"/>
<path d="M174.497 75.9958H173.811L173.775 75.4527H173.753C173.534 75.8659 173.161 76.0725 172.637 76.0725C172.218 76.0725 171.87 75.9125 171.593 75.5926C171.317 75.2726 171.179 74.8573 171.179 74.3472C171.179 73.7998 171.328 73.3565 171.629 73.0179C171.92 72.7022 172.277 72.5444 172.702 72.5444C173.169 72.5444 173.495 72.6972 173.681 73.0035H173.696V71.0623H174.469V75.0847C174.469 75.414 174.478 75.7174 174.497 75.9958ZM173.696 74.5696V74.0057C173.696 73.9081 173.689 73.8292 173.675 73.769C173.631 73.5882 173.537 73.4361 173.395 73.3134C173.251 73.1908 173.078 73.1291 172.878 73.1291C172.59 73.1291 172.364 73.2403 172.198 73.4634C172.034 73.6865 171.951 73.9713 171.951 74.3192C171.951 74.6535 172.03 74.9247 172.188 75.1335C172.355 75.3558 172.581 75.467 172.863 75.467C173.117 75.467 173.32 75.3745 173.474 75.1887C173.623 75.0172 173.696 74.8106 173.696 74.5696Z" fill="white"/>
<path d="M181.106 74.2767C181.106 74.7968 180.953 75.2229 180.648 75.5572C180.328 75.9009 179.905 76.0723 179.375 76.0723C178.865 76.0723 178.459 75.9081 178.155 75.5781C177.853 75.2488 177.702 74.8334 177.702 74.3327C177.702 73.809 177.857 73.3792 178.17 73.0457C178.482 72.7121 178.903 72.5449 179.433 72.5449C179.942 72.5449 180.353 72.7092 180.663 73.0385C180.958 73.3584 181.106 73.7717 181.106 74.2767ZM180.305 74.3011C180.305 73.989 180.236 73.7214 180.098 73.4983C179.935 73.2286 179.705 73.0937 179.404 73.0937C179.094 73.0937 178.859 73.2286 178.696 73.4983C178.557 73.7214 178.488 73.9933 178.488 74.3147C178.488 74.6268 178.558 74.8944 178.696 75.1175C178.863 75.3872 179.096 75.5221 179.397 75.5221C179.692 75.5221 179.924 75.3851 180.091 75.1103C180.233 74.8829 180.305 74.6132 180.305 74.3011Z" fill="white"/>
<path d="M185.261 75.9955H184.489V74.0586C184.489 73.4617 184.256 73.1633 183.788 73.1633C183.558 73.1633 183.373 73.2451 183.23 73.4093C183.087 73.5736 183.016 73.7673 183.016 73.989V75.9948H182.242V73.5801C182.242 73.2831 182.233 72.961 182.215 72.6123H182.893L182.929 73.141H182.951C183.041 72.9767 183.176 72.8412 183.351 72.7328C183.561 72.6066 183.795 72.5427 184.052 72.5427C184.376 72.5427 184.646 72.6446 184.86 72.8491C185.128 73.0994 185.261 73.4732 185.261 73.9696V75.9955Z" fill="white"/>
<path d="M190.461 73.1769H189.61V74.8197C189.61 75.2372 189.761 75.446 190.06 75.446C190.199 75.446 190.314 75.4345 190.405 75.4108L190.424 75.9811C190.272 76.0371 190.071 76.0651 189.824 76.0651C189.519 76.0651 189.282 75.9747 189.11 75.7939C188.937 75.6131 188.852 75.3089 188.852 74.8821V73.1769H188.344V72.6137H188.852V71.9939L189.609 71.7715V72.613H190.46V73.1769H190.461Z" fill="white"/>
<path d="M194.551 75.9958H193.778V74.0731C193.778 73.467 193.545 73.1635 193.078 73.1635C192.72 73.1635 192.475 73.3393 192.341 73.6908C192.318 73.7647 192.305 73.8551 192.305 73.9612V75.995H191.533V71.0623H192.305V73.1004H192.319C192.563 72.7295 192.912 72.5444 193.363 72.5444C193.683 72.5444 193.948 72.6463 194.158 72.8507C194.42 73.1054 194.551 73.4842 194.551 73.9849V75.9958Z" fill="white"/>
<path d="M198.772 74.1451C198.772 74.2799 198.761 74.3933 198.743 74.4858H196.426C196.436 74.8201 196.547 75.0748 196.761 75.2513C196.957 75.4091 197.21 75.488 197.52 75.488C197.863 75.488 198.175 75.4349 198.457 75.328L198.578 75.8503C198.248 75.9895 197.86 76.0591 197.411 76.0591C196.873 76.0591 196.449 75.9048 196.142 75.5963C195.834 75.2879 195.682 74.8739 195.682 74.3545C195.682 73.8445 195.824 73.4198 196.111 73.0812C196.41 72.7196 196.815 72.5388 197.326 72.5388C197.826 72.5388 198.205 72.7196 198.462 73.0812C198.669 73.3681 198.772 73.7232 198.772 74.1451ZM198.034 73.9506C198.04 73.7275 197.989 73.5353 197.885 73.3731C197.751 73.1644 197.546 73.0596 197.27 73.0596C197.018 73.0596 196.812 73.1615 196.655 73.366C196.527 73.5288 196.451 73.7232 196.426 73.9506H198.034Z" fill="white"/>
<path d="M311.966 95.0544H219.801C217.774 95.0544 216.114 93.4394 216.114 91.4675V69.9458C216.114 67.9738 217.774 66.3588 219.801 66.3588H311.966C313.992 66.3588 315.652 67.9738 315.652 69.9458V91.4675C315.652 93.4394 313.992 95.0544 311.966 95.0544Z" fill="black"/>
<path d="M311.966 66.9336C313.673 66.9336 315.062 68.285 315.062 69.9458V91.4675C315.062 93.1282 313.673 94.4796 311.966 94.4796H219.801C218.094 94.4796 216.705 93.1282 216.705 91.4675V69.9458C216.705 68.285 218.094 66.9336 219.801 66.9336H311.966ZM311.966 66.3588H219.801C217.774 66.3588 216.114 67.9738 216.114 69.9458V91.4675C216.114 93.4394 217.774 95.0544 219.801 95.0544H311.966C313.992 95.0544 315.652 93.4394 315.652 91.4675V69.9458C315.652 67.9738 313.992 66.3588 311.966 66.3588Z" fill="white"/>
<path d="M251.076 73.7073C251.076 74.3064 250.892 74.7861 250.528 75.1439C250.111 75.5681 249.567 75.7815 248.901 75.7815C248.264 75.7815 247.72 75.5645 247.274 75.1367C246.827 74.7027 246.604 74.17 246.604 73.5325C246.604 72.8949 246.827 72.3622 247.274 71.9318C247.72 71.5005 248.264 71.2834 248.901 71.2834C249.218 71.2834 249.52 71.3471 249.809 71.4655C250.096 71.5848 250.33 71.7462 250.5 71.9452L250.115 72.3237C249.819 71.9838 249.416 71.8161 248.901 71.8161C248.436 71.8161 248.033 71.9739 247.692 72.2923C247.353 72.6115 247.184 73.0249 247.184 73.5325C247.184 74.04 247.353 74.457 247.692 74.7762C248.033 75.091 248.436 75.2524 248.901 75.2524C249.394 75.2524 249.809 75.091 250.136 74.7727C250.351 74.5619 250.474 74.2714 250.506 73.9001H248.901V73.3818H251.043C251.068 73.4939 251.076 73.6024 251.076 73.7073Z" fill="white" stroke="white" stroke-width="0.16" stroke-miterlimit="10"/>
<path d="M254.474 71.9105H252.462V73.2735H254.276V73.7919H252.462V75.1549H254.474V75.6831H251.893V71.3823H254.474V71.9105Z" fill="white" stroke="white" stroke-width="0.16" stroke-miterlimit="10"/>
<path d="M256.873 75.6831H256.303V71.9105H255.069V71.3823H258.108V71.9105H256.873V75.6831Z" fill="white" stroke="white" stroke-width="0.16" stroke-miterlimit="10"/>
<path d="M260.306 75.6831V71.3823H260.874V75.6831H260.306Z" fill="white" stroke="white" stroke-width="0.16" stroke-miterlimit="10"/>
<path d="M263.396 75.6831H262.831V71.9105H261.592V71.3823H264.635V71.9105H263.396V75.6831Z" fill="white" stroke="white" stroke-width="0.16" stroke-miterlimit="10"/>
<path d="M270.387 75.1296C269.951 75.5645 269.411 75.7815 268.766 75.7815C268.118 75.7815 267.578 75.5645 267.142 75.1296C266.707 74.6955 266.491 74.1629 266.491 73.5325C266.491 72.9021 266.707 72.3694 267.142 71.9354C267.578 71.5005 268.118 71.2834 268.766 71.2834C269.407 71.2834 269.947 71.5005 270.383 71.939C270.822 72.3766 271.038 72.9056 271.038 73.5325C271.038 74.1629 270.822 74.6955 270.387 75.1296ZM267.564 74.7691C267.892 75.091 268.291 75.2524 268.766 75.2524C269.238 75.2524 269.641 75.091 269.965 74.7691C270.293 74.4471 270.458 74.0337 270.458 73.5325C270.458 73.0312 270.293 72.6178 269.965 72.2959C269.641 71.9739 269.238 71.8125 268.766 71.8125C268.291 71.8125 267.892 71.9739 267.564 72.2959C267.236 72.6178 267.07 73.0312 267.07 73.5325C267.07 74.0337 267.236 74.4471 267.564 74.7691Z" fill="white" stroke="white" stroke-width="0.16" stroke-miterlimit="10"/>
<path d="M271.838 75.6831V71.3823H272.529L274.678 74.7272H274.703L274.678 73.9004V71.3823H275.247V75.6831H274.654L272.403 72.1732H272.378L272.403 73.0036V75.6831H271.838Z" fill="white" stroke="white" stroke-width="0.16" stroke-miterlimit="10"/>
<path d="M266.351 81.9641C264.619 81.9641 263.204 83.2464 263.204 85.0157C263.204 86.7706 264.619 88.0664 266.351 88.0664C268.086 88.0664 269.501 86.7706 269.501 85.0157C269.501 83.2464 268.086 81.9641 266.351 81.9641ZM266.351 86.8647C265.4 86.8647 264.583 86.1016 264.583 85.0157C264.583 83.9154 265.4 83.1657 266.351 83.1657C267.301 83.1657 268.122 83.9154 268.122 85.0157C268.122 86.1016 267.301 86.8647 266.351 86.8647ZM259.485 81.9641C257.75 81.9641 256.339 83.2464 256.339 85.0157C256.339 86.7706 257.75 88.0664 259.485 88.0664C261.22 88.0664 262.632 86.7706 262.632 85.0157C262.632 83.2464 261.22 81.9641 259.485 81.9641ZM259.485 86.8647C258.534 86.8647 257.714 86.1016 257.714 85.0157C257.714 83.9154 258.534 83.1657 259.485 83.1657C260.436 83.1657 261.253 83.9154 261.253 85.0157C261.253 86.1016 260.436 86.8647 259.485 86.8647ZM251.316 82.8994V84.196H254.498C254.405 84.9206 254.156 85.4533 253.775 85.8245C253.31 86.2729 252.587 86.7706 251.316 86.7706C249.357 86.7706 247.824 85.2327 247.824 83.3271C247.824 81.4215 249.357 79.8836 251.316 79.8836C252.375 79.8836 253.145 80.2863 253.714 80.8082L254.653 79.8944C253.858 79.1555 252.8 78.5878 251.316 78.5878C248.63 78.5878 246.373 80.714 246.373 83.3271C246.373 85.9402 248.63 88.0664 251.316 88.0664C252.767 88.0664 253.858 87.6037 254.715 86.7356C255.593 85.881 255.867 84.6794 255.867 83.7091C255.867 83.4078 255.841 83.1307 255.795 82.8994H251.316ZM284.722 83.9046C284.463 83.2222 283.664 81.9641 282.036 81.9641C280.423 81.9641 279.08 83.2007 279.08 85.0157C279.08 86.7248 280.41 88.0664 282.191 88.0664C283.632 88.0664 284.463 87.2118 284.805 86.7141L283.736 86.0209C283.379 86.5285 282.893 86.8647 282.191 86.8647C281.493 86.8647 280.993 86.5536 280.672 85.9402L284.867 84.2516L284.722 83.9046ZM280.445 84.9206C280.41 83.7441 281.385 83.1415 282.083 83.1415C282.631 83.1415 283.095 83.4078 283.25 83.7889L280.445 84.9206ZM277.036 87.8807H278.415V78.9134H277.036V87.8807ZM274.778 82.6438H274.732C274.422 82.2869 273.832 81.9641 273.083 81.9641C271.513 81.9641 270.077 83.3056 270.077 85.0255C270.077 86.7356 271.513 88.0664 273.083 88.0664C273.832 88.0664 274.422 87.7409 274.732 87.3732H274.778V87.8108C274.778 88.9775 274.138 89.6043 273.105 89.6043C272.262 89.6043 271.74 89.0124 271.524 88.5147L270.325 89.0017C270.67 89.8105 271.586 90.8059 273.105 90.8059C274.721 90.8059 276.085 89.8805 276.085 87.6288V82.1497H274.778V82.6438ZM273.201 86.8647C272.251 86.8647 271.456 86.0909 271.456 85.0255C271.456 83.9503 272.251 83.1657 273.201 83.1657C274.138 83.1657 274.876 83.9503 274.876 85.0255C274.876 86.0909 274.138 86.8647 273.201 86.8647ZM291.177 78.9134H287.879V87.8807H289.255V84.483H291.177C292.704 84.483 294.202 83.4078 294.202 81.6977C294.202 79.9885 292.701 78.9134 291.177 78.9134ZM291.213 83.2356H289.255V80.1607H291.213C292.24 80.1607 292.826 80.9902 292.826 81.6977C292.826 82.3918 292.24 83.2356 291.213 83.2356ZM299.713 81.947C298.72 81.947 297.687 82.3739 297.262 83.3199L298.482 83.8176C298.745 83.3199 299.228 83.1585 299.738 83.1585C300.452 83.1585 301.175 83.5755 301.186 84.3117V84.4059C300.937 84.266 300.405 84.0588 299.749 84.0588C298.435 84.0588 297.096 84.7628 297.096 86.0765C297.096 87.2781 298.172 88.052 299.383 88.052C300.308 88.052 300.818 87.6458 301.139 87.1732H301.186V87.8664H302.514V84.4265C302.514 82.8366 301.294 81.947 299.713 81.947ZM299.548 86.8612C299.098 86.8612 298.471 86.6441 298.471 86.1016C298.471 85.4075 299.253 85.1412 299.929 85.1412C300.535 85.1412 300.818 85.2712 301.186 85.4425C301.078 86.2729 300.344 86.8612 299.548 86.8612ZM307.353 82.1434L305.772 86.0308H305.725L304.091 82.1434H302.608L305.064 87.5759L303.663 90.5988H305.1L308.883 82.1434H307.353ZM294.958 87.8807H296.337V78.9134H294.958V87.8807Z" fill="white"/>
<path d="M223.809 71.7668C223.592 71.9874 223.467 72.3308 223.467 72.7756V88.6407C223.467 89.0855 223.592 89.429 223.809 89.6496L223.862 89.698L232.999 80.8113V80.6015L223.862 71.7148L223.809 71.7668Z" fill="url(#paint0_linear_3_105)"/>
<path d="M236.041 83.7751L232.999 80.8114V80.6016L236.045 77.6379L236.113 77.6764L239.721 79.6735C240.75 80.2402 240.75 81.1728 239.721 81.7431L236.113 83.7366L236.041 83.7751Z" fill="url(#paint1_linear_3_105)"/>
<path d="M236.113 83.7367L232.998 80.7066L223.808 89.6498C224.15 89.9995 224.707 90.0416 225.341 89.6919L236.113 83.7367Z" fill="url(#paint2_linear_3_105)"/>
<path d="M236.113 77.6765L225.341 71.7212C224.707 71.3751 224.15 71.4172 223.808 71.767L232.998 80.7065L236.113 77.6765Z" fill="url(#paint3_linear_3_105)"/>
<rect x="14.3477" y="14.3479" width="80.7065" height="80.7065" rx="8" fill="white"/>
<path d="M26.3324 24.2302H24.231V26.3317H26.3324V24.2302Z" fill="black"/>
<path d="M28.4338 24.2302H26.3324V26.3317H28.4338V24.2302Z" fill="black"/>
<path d="M30.5353 24.2302H28.4338V26.3317H30.5353V24.2302Z" fill="black"/>
<path d="M32.6367 24.2302H30.5353V26.3317H32.6367V24.2302Z" fill="black"/>
<path d="M34.7381 24.2302H32.6367V26.3317H34.7381V24.2302Z" fill="black"/>
<path d="M36.8396 24.2302H34.7381V26.3317H36.8396V24.2302Z" fill="black"/>
<path d="M38.941 24.2302H36.8396V26.3317H38.941V24.2302Z" fill="black"/>
<path d="M43.1439 24.2302H41.0424V26.3317H43.1439V24.2302Z" fill="black"/>
<path d="M47.3468 24.2302H45.2453V26.3317H47.3468V24.2302Z" fill="black"/>
<path d="M57.8539 24.2302H55.7525V26.3317H57.8539V24.2302Z" fill="black"/>
<path d="M59.9554 24.2302H57.8539V26.3317H59.9554V24.2302Z" fill="black"/>
<path d="M64.1582 24.2302H62.0568V26.3317H64.1582V24.2302Z" fill="black"/>
<path d="M68.3611 24.2302H66.2597V26.3317H68.3611V24.2302Z" fill="black"/>
<path d="M72.564 24.2302H70.4626V26.3317H72.564V24.2302Z" fill="black"/>
<path d="M74.6654 24.2302H72.564V26.3317H74.6654V24.2302Z" fill="black"/>
<path d="M76.7669 24.2302H74.6654V26.3317H76.7669V24.2302Z" fill="black"/>
<path d="M78.8683 24.2302H76.7669V26.3317H78.8683V24.2302Z" fill="black"/>
<path d="M80.9697 24.2302H78.8683V26.3317H80.9697V24.2302Z" fill="black"/>
<path d="M83.0712 24.2302H80.9697V26.3317H83.0712V24.2302Z" fill="black"/>
<path d="M85.1726 24.2302H83.0712V26.3317H85.1726V24.2302Z" fill="black"/>
<path d="M26.3324 26.3317H24.231V28.4331H26.3324V26.3317Z" fill="black"/>
<path d="M38.941 26.3317H36.8396V28.4331H38.941V26.3317Z" fill="black"/>
<path d="M45.2453 26.3317H43.1439V28.4331H45.2453V26.3317Z" fill="black"/>
<path d="M47.3468 26.3317H45.2453V28.4331H47.3468V26.3317Z" fill="black"/>
<path d="M49.4482 26.3317H47.3468V28.4331H49.4482V26.3317Z" fill="black"/>
<path d="M51.5496 26.3317H49.4482V28.4331H51.5496V26.3317Z" fill="black"/>
<path d="M55.7525 26.3317H53.6511V28.4331H55.7525V26.3317Z" fill="black"/>
<path d="M57.8539 26.3317H55.7525V28.4331H57.8539V26.3317Z" fill="black"/>
<path d="M72.564 26.3317H70.4626V28.4331H72.564V26.3317Z" fill="black"/>
<path d="M85.1726 26.3317H83.0712V28.4331H85.1726V26.3317Z" fill="black"/>
<path d="M26.3324 28.4331H24.231V30.5345H26.3324V28.4331Z" fill="black"/>
<path d="M30.5353 28.4331H28.4338V30.5345H30.5353V28.4331Z" fill="black"/>
<path d="M32.6367 28.4331H30.5353V30.5345H32.6367V28.4331Z" fill="black"/>
<path d="M34.7381 28.4331H32.6367V30.5345H34.7381V28.4331Z" fill="black"/>
<path d="M38.941 28.4331H36.8396V30.5345H38.941V28.4331Z" fill="black"/>
<path d="M47.3468 28.4331H45.2453V30.5345H47.3468V28.4331Z" fill="black"/>
<path d="M49.4482 28.4331H47.3468V30.5345H49.4482V28.4331Z" fill="black"/>
<path d="M51.5496 28.4331H49.4482V30.5345H51.5496V28.4331Z" fill="black"/>
<path d="M53.6511 28.4331H51.5496V30.5345H53.6511V28.4331Z" fill="black"/>
<path d="M57.8539 28.4331H55.7525V30.5345H57.8539V28.4331Z" fill="black"/>
<path d="M59.9554 28.4331H57.8539V30.5345H59.9554V28.4331Z" fill="black"/>
<path d="M66.2597 28.4331H64.1582V30.5345H66.2597V28.4331Z" fill="black"/>
<path d="M68.3611 28.4331H66.2597V30.5345H68.3611V28.4331Z" fill="black"/>
<path d="M72.564 28.4331H70.4626V30.5345H72.564V28.4331Z" fill="black"/>
<path d="M76.7669 28.4331H74.6654V30.5345H76.7669V28.4331Z" fill="black"/>
<path d="M78.8683 28.4331H76.7669V30.5345H78.8683V28.4331Z" fill="black"/>
<path d="M80.9697 28.4331H78.8683V30.5345H80.9697V28.4331Z" fill="black"/>
<path d="M85.1726 28.4331H83.0712V30.5345H85.1726V28.4331Z" fill="black"/>
<path d="M26.3324 30.5345H24.231V32.636H26.3324V30.5345Z" fill="black"/>
<path d="M30.5353 30.5345H28.4338V32.636H30.5353V30.5345Z" fill="black"/>
<path d="M32.6367 30.5345H30.5353V32.636H32.6367V30.5345Z" fill="black"/>
<path d="M34.7381 30.5345H32.6367V32.636H34.7381V30.5345Z" fill="black"/>
<path d="M38.941 30.5345H36.8396V32.636H38.941V30.5345Z" fill="black"/>
<path d="M43.1439 30.5345H41.0424V32.636H43.1439V30.5345Z" fill="black"/>
<path d="M45.2453 30.5345H43.1439V32.636H45.2453V30.5345Z" fill="black"/>
<path d="M47.3468 30.5345H45.2453V32.636H47.3468V30.5345Z" fill="black"/>
<path d="M49.4482 30.5345H47.3468V32.636H49.4482V30.5345Z" fill="black"/>
<path d="M53.6511 30.5345H51.5496V32.636H53.6511V30.5345Z" fill="black"/>
<path d="M59.9554 30.5345H57.8539V32.636H59.9554V30.5345Z" fill="black"/>
<path d="M66.2597 30.5345H64.1582V32.636H66.2597V30.5345Z" fill="black"/>
<path d="M72.564 30.5345H70.4626V32.636H72.564V30.5345Z" fill="black"/>
<path d="M76.7669 30.5345H74.6654V32.636H76.7669V30.5345Z" fill="black"/>
<path d="M78.8683 30.5345H76.7669V32.636H78.8683V30.5345Z" fill="black"/>
<path d="M80.9697 30.5345H78.8683V32.636H80.9697V30.5345Z" fill="black"/>
<path d="M85.1726 30.5345H83.0712V32.636H85.1726V30.5345Z" fill="black"/>
<path d="M26.3324 32.636H24.231V34.7374H26.3324V32.636Z" fill="black"/>
<path d="M30.5353 32.636H28.4338V34.7374H30.5353V32.636Z" fill="black"/>
<path d="M32.6367 32.636H30.5353V34.7374H32.6367V32.636Z" fill="black"/>
<path d="M34.7381 32.636H32.6367V34.7374H34.7381V32.636Z" fill="black"/>
<path d="M38.941 32.636H36.8396V34.7374H38.941V32.636Z" fill="black"/>
<path d="M53.6511 32.636H51.5496V34.7374H53.6511V32.636Z" fill="black"/>
<path d="M55.7525 32.636H53.6511V34.7374H55.7525V32.636Z" fill="black"/>
<path d="M57.8539 32.636H55.7525V34.7374H57.8539V32.636Z" fill="black"/>
<path d="M62.0568 32.636H59.9554V34.7374H62.0568V32.636Z" fill="black"/>
<path d="M72.564 32.636H70.4626V34.7374H72.564V32.636Z" fill="black"/>
<path d="M76.7669 32.636H74.6654V34.7374H76.7669V32.636Z" fill="black"/>
<path d="M78.8683 32.636H76.7669V34.7374H78.8683V32.636Z" fill="black"/>
<path d="M80.9697 32.636H78.8683V34.7374H80.9697V32.636Z" fill="black"/>
<path d="M85.1726 32.636H83.0712V34.7374H85.1726V32.636Z" fill="black"/>
<path d="M26.3324 34.7374H24.231V36.8388H26.3324V34.7374Z" fill="black"/>
<path d="M38.941 34.7374H36.8396V36.8388H38.941V34.7374Z" fill="black"/>
<path d="M43.1439 34.7374H41.0424V36.8388H43.1439V34.7374Z" fill="black"/>
<path d="M45.2453 34.7374H43.1439V36.8388H45.2453V34.7374Z" fill="black"/>
<path d="M47.3468 34.7374H45.2453V36.8388H47.3468V34.7374Z" fill="black"/>
<path d="M49.4482 34.7374H47.3468V36.8388H49.4482V34.7374Z" fill="black"/>
<path d="M51.5496 34.7374H49.4482V36.8388H51.5496V34.7374Z" fill="black"/>
<path d="M53.6511 34.7374H51.5496V36.8388H53.6511V34.7374Z" fill="black"/>
<path d="M57.8539 34.7374H55.7525V36.8388H57.8539V34.7374Z" fill="black"/>
<path d="M59.9554 34.7374H57.8539V36.8388H59.9554V34.7374Z" fill="black"/>
<path d="M72.564 34.7374H70.4626V36.8388H72.564V34.7374Z" fill="black"/>
<path d="M85.1726 34.7374H83.0712V36.8388H85.1726V34.7374Z" fill="black"/>
<path d="M26.3324 36.8388H24.231V38.9403H26.3324V36.8388Z" fill="black"/>
<path d="M28.4338 36.8388H26.3324V38.9403H28.4338V36.8388Z" fill="black"/>
<path d="M30.5353 36.8388H28.4338V38.9403H30.5353V36.8388Z" fill="black"/>
<path d="M32.6367 36.8388H30.5353V38.9403H32.6367V36.8388Z" fill="black"/>
<path d="M34.7381 36.8388H32.6367V38.9403H34.7381V36.8388Z" fill="black"/>
<path d="M36.8396 36.8388H34.7381V38.9403H36.8396V36.8388Z" fill="black"/>
<path d="M38.941 36.8388H36.8396V38.9403H38.941V36.8388Z" fill="black"/>
<path d="M43.1439 36.8388H41.0424V38.9403H43.1439V36.8388Z" fill="black"/>
<path d="M47.3468 36.8388H45.2453V38.9403H47.3468V36.8388Z" fill="black"/>
<path d="M51.5496 36.8388H49.4482V38.9403H51.5496V36.8388Z" fill="black"/>
<path d="M55.7525 36.8388H53.6511V38.9403H55.7525V36.8388Z" fill="black"/>
<path d="M59.9554 36.8388H57.8539V38.9403H59.9554V36.8388Z" fill="black"/>
<path d="M64.1582 36.8388H62.0568V38.9403H64.1582V36.8388Z" fill="black"/>
<path d="M68.3611 36.8388H66.2597V38.9403H68.3611V36.8388Z" fill="black"/>
<path d="M72.564 36.8388H70.4626V38.9403H72.564V36.8388Z" fill="black"/>
<path d="M74.6654 36.8388H72.564V38.9403H74.6654V36.8388Z" fill="black"/>
<path d="M76.7669 36.8388H74.6654V38.9403H76.7669V36.8388Z" fill="black"/>
<path d="M78.8683 36.8388H76.7669V38.9403H78.8683V36.8388Z" fill="black"/>
<path d="M80.9697 36.8388H78.8683V38.9403H80.9697V36.8388Z" fill="black"/>
<path d="M83.0712 36.8388H80.9697V38.9403H83.0712V36.8388Z" fill="black"/>
<path d="M85.1726 36.8388H83.0712V38.9403H85.1726V36.8388Z" fill="black"/>
<path d="M45.2453 38.9403H43.1439V41.0417H45.2453V38.9403Z" fill="black"/>
<path d="M55.7525 38.9403H53.6511V41.0417H55.7525V38.9403Z" fill="black"/>
<path d="M62.0568 38.9403H59.9554V41.0417H62.0568V38.9403Z" fill="black"/>
<path d="M64.1582 38.9403H62.0568V41.0417H64.1582V38.9403Z" fill="black"/>
<path d="M66.2597 38.9403H64.1582V41.0417H66.2597V38.9403Z" fill="black"/>
<path d="M68.3611 38.9403H66.2597V41.0417H68.3611V38.9403Z" fill="black"/>
<path d="M36.8396 41.0417H34.7381V43.1432H36.8396V41.0417Z" fill="black"/>
<path d="M38.941 41.0417H36.8396V43.1432H38.941V41.0417Z" fill="black"/>
<path d="M43.1439 41.0417H41.0424V43.1432H43.1439V41.0417Z" fill="black"/>
<path d="M45.2453 41.0417H43.1439V43.1432H45.2453V41.0417Z" fill="black"/>
<path d="M49.4482 41.0417H47.3468V43.1432H49.4482V41.0417Z" fill="black"/>
<path d="M51.5496 41.0417H49.4482V43.1432H51.5496V41.0417Z" fill="black"/>
<path d="M55.7525 41.0417H53.6511V43.1432H55.7525V41.0417Z" fill="black"/>
<path d="M57.8539 41.0417H55.7525V43.1432H57.8539V41.0417Z" fill="black"/>
<path d="M59.9554 41.0417H57.8539V43.1432H59.9554V41.0417Z" fill="black"/>
<path d="M62.0568 41.0417H59.9554V43.1432H62.0568V41.0417Z" fill="black"/>
<path d="M70.4626 41.0417H68.3611V43.1432H70.4626V41.0417Z" fill="black"/>
<path d="M74.6654 41.0417H72.564V43.1432H74.6654V41.0417Z" fill="black"/>
<path d="M78.8683 41.0417H76.7669V43.1432H78.8683V41.0417Z" fill="black"/>
<path d="M85.1726 41.0417H83.0712V43.1432H85.1726V41.0417Z" fill="black"/>
<path d="M26.3324 43.1432H24.231V45.2446H26.3324V43.1432Z" fill="black"/>
<path d="M32.6367 43.1432H30.5353V45.2446H32.6367V43.1432Z" fill="black"/>
<path d="M41.0424 43.1432H38.941V45.2446H41.0424V43.1432Z" fill="black"/>
<path d="M43.1439 43.1432H41.0424V45.2446H43.1439V43.1432Z" fill="black"/>
<path d="M45.2453 43.1432H43.1439V45.2446H45.2453V43.1432Z" fill="black"/>
<path d="M57.8539 43.1432H55.7525V45.2446H57.8539V43.1432Z" fill="black"/>
<path d="M62.0568 43.1432H59.9554V45.2446H62.0568V43.1432Z" fill="black"/>
<path d="M66.2597 43.1432H64.1582V45.2446H66.2597V43.1432Z" fill="black"/>
<path d="M70.4626 43.1432H68.3611V45.2446H70.4626V43.1432Z" fill="black"/>
<path d="M26.3324 45.2446H24.231V47.346H26.3324V45.2446Z" fill="black"/>
<path d="M32.6367 45.2446H30.5353V47.346H32.6367V45.2446Z" fill="black"/>
<path d="M34.7381 45.2446H32.6367V47.346H34.7381V45.2446Z" fill="black"/>
<path d="M38.941 45.2446H36.8396V47.346H38.941V45.2446Z" fill="black"/>
<path d="M41.0424 45.2446H38.941V47.346H41.0424V45.2446Z" fill="black"/>
<path d="M43.1439 45.2446H41.0424V47.346H43.1439V45.2446Z" fill="black"/>
<path d="M47.3468 45.2446H45.2453V47.346H47.3468V45.2446Z" fill="black"/>
<path d="M51.5496 45.2446H49.4482V47.346H51.5496V45.2446Z" fill="black"/>
<path d="M57.8539 45.2446H55.7525V47.346H57.8539V45.2446Z" fill="black"/>
<path d="M64.1582 45.2446H62.0568V47.346H64.1582V45.2446Z" fill="black"/>
<path d="M68.3611 45.2446H66.2597V47.346H68.3611V45.2446Z" fill="black"/>
<path d="M72.564 45.2446H70.4626V47.346H72.564V45.2446Z" fill="black"/>
<path d="M76.7669 45.2446H74.6654V47.346H76.7669V45.2446Z" fill="black"/>
<path d="M80.9697 45.2446H78.8683V47.346H80.9697V45.2446Z" fill="black"/>
<path d="M85.1726 45.2446H83.0712V47.346H85.1726V45.2446Z" fill="black"/>
<path d="M36.8396 47.346H34.7381V49.4475H36.8396V47.346Z" fill="black"/>
<path d="M47.3468 47.346H45.2453V49.4475H47.3468V47.346Z" fill="black"/>
<path d="M53.6511 47.346H51.5496V49.4475H53.6511V47.346Z" fill="black"/>
<path d="M55.7525 47.346H53.6511V49.4475H55.7525V47.346Z" fill="black"/>
<path d="M59.9554 47.346H57.8539V49.4475H59.9554V47.346Z" fill="black"/>
<path d="M64.1582 47.346H62.0568V49.4475H64.1582V47.346Z" fill="black"/>
<path d="M66.2597 47.346H64.1582V49.4475H66.2597V47.346Z" fill="black"/>
<path d="M68.3611 47.346H66.2597V49.4475H68.3611V47.346Z" fill="black"/>
<path d="M70.4626 47.346H68.3611V49.4475H70.4626V47.346Z" fill="black"/>
<path d="M74.6654 47.346H72.564V49.4475H74.6654V47.346Z" fill="black"/>
<path d="M76.7669 47.346H74.6654V49.4475H76.7669V47.346Z" fill="black"/>
<path d="M30.5353 49.4475H28.4338V51.5489H30.5353V49.4475Z" fill="black"/>
<path d="M38.941 49.4475H36.8396V51.5489H38.941V49.4475Z" fill="black"/>
<path d="M43.1439 49.4475H41.0424V51.5489H43.1439V49.4475Z" fill="black"/>
<path d="M45.2453 49.4475H43.1439V51.5489H45.2453V49.4475Z" fill="black"/>
<path d="M47.3468 49.4475H45.2453V51.5489H47.3468V49.4475Z" fill="black"/>
<path d="M49.4482 49.4475H47.3468V51.5489H49.4482V49.4475Z" fill="black"/>
<path d="M51.5496 49.4475H49.4482V51.5489H51.5496V49.4475Z" fill="black"/>
<path d="M55.7525 49.4475H53.6511V51.5489H55.7525V49.4475Z" fill="black"/>
<path d="M57.8539 49.4475H55.7525V51.5489H57.8539V49.4475Z" fill="black"/>
<path d="M64.1582 49.4475H62.0568V51.5489H64.1582V49.4475Z" fill="black"/>
<path d="M66.2597 49.4475H64.1582V51.5489H66.2597V49.4475Z" fill="black"/>
<path d="M72.564 49.4475H70.4626V51.5489H72.564V49.4475Z" fill="black"/>
<path d="M76.7669 49.4475H74.6654V51.5489H76.7669V49.4475Z" fill="black"/>
<path d="M80.9697 49.4475H78.8683V51.5489H80.9697V49.4475Z" fill="black"/>
<path d="M85.1726 49.4475H83.0712V51.5489H85.1726V49.4475Z" fill="black"/>
<path d="M26.3324 51.5489H24.231V53.6503H26.3324V51.5489Z" fill="black"/>
<path d="M28.4338 51.5489H26.3324V53.6503H28.4338V51.5489Z" fill="black"/>
<path d="M30.5353 51.5489H28.4338V53.6503H30.5353V51.5489Z" fill="black"/>
<path d="M32.6367 51.5489H30.5353V53.6503H32.6367V51.5489Z" fill="black"/>
<path d="M34.7381 51.5489H32.6367V53.6503H34.7381V51.5489Z" fill="black"/>
<path d="M36.8396 51.5489H34.7381V53.6503H36.8396V51.5489Z" fill="black"/>
<path d="M57.8539 51.5489H55.7525V53.6503H57.8539V51.5489Z" fill="black"/>
<path d="M59.9554 51.5489H57.8539V53.6503H59.9554V51.5489Z" fill="black"/>
<path d="M64.1582 51.5489H62.0568V53.6503H64.1582V51.5489Z" fill="black"/>
<path d="M66.2597 51.5489H64.1582V53.6503H66.2597V51.5489Z" fill="black"/>
<path d="M70.4626 51.5489H68.3611V53.6503H70.4626V51.5489Z" fill="black"/>
<path d="M72.564 51.5489H70.4626V53.6503H72.564V51.5489Z" fill="black"/>
<path d="M74.6654 51.5489H72.564V53.6503H74.6654V51.5489Z" fill="black"/>
<path d="M83.0712 51.5489H80.9697V53.6503H83.0712V51.5489Z" fill="black"/>
<path d="M85.1726 51.5489H83.0712V53.6503H85.1726V51.5489Z" fill="black"/>
<path d="M28.4338 53.6503H26.3324V55.7518H28.4338V53.6503Z" fill="black"/>
<path d="M32.6367 53.6503H30.5353V55.7518H32.6367V53.6503Z" fill="black"/>
<path d="M34.7381 53.6503H32.6367V55.7518H34.7381V53.6503Z" fill="black"/>
<path d="M36.8396 53.6503H34.7381V55.7518H36.8396V53.6503Z" fill="black"/>
<path d="M38.941 53.6503H36.8396V55.7518H38.941V53.6503Z" fill="black"/>
<path d="M41.0424 53.6503H38.941V55.7518H41.0424V53.6503Z" fill="black"/>
<path d="M45.2453 53.6503H43.1439V55.7518H45.2453V53.6503Z" fill="black"/>
<path d="M49.4482 53.6503H47.3468V55.7518H49.4482V53.6503Z" fill="black"/>
<path d="M57.8539 53.6503H55.7525V55.7518H57.8539V53.6503Z" fill="black"/>
<path d="M59.9554 53.6503H57.8539V55.7518H59.9554V53.6503Z" fill="black"/>
<path d="M68.3611 53.6503H66.2597V55.7518H68.3611V53.6503Z" fill="black"/>
<path d="M72.564 53.6503H70.4626V55.7518H72.564V53.6503Z" fill="black"/>
<path d="M76.7669 53.6503H74.6654V55.7518H76.7669V53.6503Z" fill="black"/>
<path d="M78.8683 53.6503H76.7669V55.7518H78.8683V53.6503Z" fill="black"/>
<path d="M85.1726 53.6503H83.0712V55.7518H85.1726V53.6503Z" fill="black"/>
<path d="M28.4338 55.7518H26.3324V57.8532H28.4338V55.7518Z" fill="black"/>
<path d="M32.6367 55.7518H30.5353V57.8532H32.6367V55.7518Z" fill="black"/>
<path d="M43.1439 55.7518H41.0424V57.8532H43.1439V55.7518Z" fill="black"/>
<path d="M45.2453 55.7518H43.1439V57.8532H45.2453V55.7518Z" fill="black"/>
<path d="M49.4482 55.7518H47.3468V57.8532H49.4482V55.7518Z" fill="black"/>
<path d="M53.6511 55.7518H51.5496V57.8532H53.6511V55.7518Z" fill="black"/>
<path d="M55.7525 55.7518H53.6511V57.8532H55.7525V55.7518Z" fill="black"/>
<path d="M59.9554 55.7518H57.8539V57.8532H59.9554V55.7518Z" fill="black"/>
<path d="M62.0568 55.7518H59.9554V57.8532H62.0568V55.7518Z" fill="black"/>
<path d="M66.2597 55.7518H64.1582V57.8532H66.2597V55.7518Z" fill="black"/>
<path d="M70.4626 55.7518H68.3611V57.8532H70.4626V55.7518Z" fill="black"/>
<path d="M72.564 55.7518H70.4626V57.8532H72.564V55.7518Z" fill="black"/>
<path d="M76.7669 55.7518H74.6654V57.8532H76.7669V55.7518Z" fill="black"/>
<path d="M78.8683 55.7518H76.7669V57.8532H78.8683V55.7518Z" fill="black"/>
<path d="M83.0712 55.7518H80.9697V57.8532H83.0712V55.7518Z" fill="black"/>
<path d="M26.3324 57.8532H24.231V59.9546H26.3324V57.8532Z" fill="black"/>
<path d="M30.5353 57.8532H28.4338V59.9546H30.5353V57.8532Z" fill="black"/>
<path d="M34.7381 57.8532H32.6367V59.9546H34.7381V57.8532Z" fill="black"/>
<path d="M38.941 57.8532H36.8396V59.9546H38.941V57.8532Z" fill="black"/>
<path d="M47.3468 57.8532H45.2453V59.9546H47.3468V57.8532Z" fill="black"/>
<path d="M51.5496 57.8532H49.4482V59.9546H51.5496V57.8532Z" fill="black"/>
<path d="M55.7525 57.8532H53.6511V59.9546H55.7525V57.8532Z" fill="black"/>
<path d="M57.8539 57.8532H55.7525V59.9546H57.8539V57.8532Z" fill="black"/>
<path d="M59.9554 57.8532H57.8539V59.9546H59.9554V57.8532Z" fill="black"/>
<path d="M66.2597 57.8532H64.1582V59.9546H66.2597V57.8532Z" fill="black"/>
<path d="M68.3611 57.8532H66.2597V59.9546H68.3611V57.8532Z" fill="black"/>
<path d="M70.4626 57.8532H68.3611V59.9546H70.4626V57.8532Z" fill="black"/>
<path d="M74.6654 57.8532H72.564V59.9546H74.6654V57.8532Z" fill="black"/>
<path d="M78.8683 57.8532H76.7669V59.9546H78.8683V57.8532Z" fill="black"/>
<path d="M28.4338 59.9546H26.3324V62.0561H28.4338V59.9546Z" fill="black"/>
<path d="M30.5353 59.9546H28.4338V62.0561H30.5353V59.9546Z" fill="black"/>
<path d="M41.0424 59.9546H38.941V62.0561H41.0424V59.9546Z" fill="black"/>
<path d="M47.3468 59.9546H45.2453V62.0561H47.3468V59.9546Z" fill="black"/>
<path d="M51.5496 59.9546H49.4482V62.0561H51.5496V59.9546Z" fill="black"/>
<path d="M53.6511 59.9546H51.5496V62.0561H53.6511V59.9546Z" fill="black"/>
<path d="M57.8539 59.9546H55.7525V62.0561H57.8539V59.9546Z" fill="black"/>
<path d="M59.9554 59.9546H57.8539V62.0561H59.9554V59.9546Z" fill="black"/>
<path d="M64.1582 59.9546H62.0568V62.0561H64.1582V59.9546Z" fill="black"/>
<path d="M66.2597 59.9546H64.1582V62.0561H66.2597V59.9546Z" fill="black"/>
<path d="M72.564 59.9546H70.4626V62.0561H72.564V59.9546Z" fill="black"/>
<path d="M26.3324 62.0561H24.231V64.1575H26.3324V62.0561Z" fill="black"/>
<path d="M28.4338 62.0561H26.3324V64.1575H28.4338V62.0561Z" fill="black"/>
<path d="M30.5353 62.0561H28.4338V64.1575H30.5353V62.0561Z" fill="black"/>
<path d="M32.6367 62.0561H30.5353V64.1575H32.6367V62.0561Z" fill="black"/>
<path d="M34.7381 62.0561H32.6367V64.1575H34.7381V62.0561Z" fill="black"/>
<path d="M38.941 62.0561H36.8396V64.1575H38.941V62.0561Z" fill="black"/>
<path d="M41.0424 62.0561H38.941V64.1575H41.0424V62.0561Z" fill="black"/>
<path d="M43.1439 62.0561H41.0424V64.1575H43.1439V62.0561Z" fill="black"/>
<path d="M53.6511 62.0561H51.5496V64.1575H53.6511V62.0561Z" fill="black"/>
<path d="M57.8539 62.0561H55.7525V64.1575H57.8539V62.0561Z" fill="black"/>
<path d="M62.0568 62.0561H59.9554V64.1575H62.0568V62.0561Z" fill="black"/>
<path d="M64.1582 62.0561H62.0568V64.1575H64.1582V62.0561Z" fill="black"/>
<path d="M66.2597 62.0561H64.1582V64.1575H66.2597V62.0561Z" fill="black"/>
<path d="M68.3611 62.0561H66.2597V64.1575H68.3611V62.0561Z" fill="black"/>
<path d="M74.6654 62.0561H72.564V64.1575H74.6654V62.0561Z" fill="black"/>
<path d="M76.7669 62.0561H74.6654V64.1575H76.7669V62.0561Z" fill="black"/>
<path d="M26.3324 64.1575H24.231V66.259H26.3324V64.1575Z" fill="black"/>
<path d="M36.8396 64.1575H34.7381V66.259H36.8396V64.1575Z" fill="black"/>
<path d="M43.1439 64.1575H41.0424V66.259H43.1439V64.1575Z" fill="black"/>
<path d="M47.3468 64.1575H45.2453V66.259H47.3468V64.1575Z" fill="black"/>
<path d="M49.4482 64.1575H47.3468V66.259H49.4482V64.1575Z" fill="black"/>
<path d="M53.6511 64.1575H51.5496V66.259H53.6511V64.1575Z" fill="black"/>
<path d="M66.2597 64.1575H64.1582V66.259H66.2597V64.1575Z" fill="black"/>
<path d="M78.8683 64.1575H76.7669V66.259H78.8683V64.1575Z" fill="black"/>
<path d="M80.9697 64.1575H78.8683V66.259H80.9697V64.1575Z" fill="black"/>
<path d="M83.0712 64.1575H80.9697V66.259H83.0712V64.1575Z" fill="black"/>
<path d="M30.5353 66.259H28.4338V68.3604H30.5353V66.259Z" fill="black"/>
<path d="M38.941 66.259H36.8396V68.3604H38.941V66.259Z" fill="black"/>
<path d="M45.2453 66.259H43.1439V68.3604H45.2453V66.259Z" fill="black"/>
<path d="M47.3468 66.259H45.2453V68.3604H47.3468V66.259Z" fill="black"/>
<path d="M53.6511 66.259H51.5496V68.3604H53.6511V66.259Z" fill="black"/>
<path d="M57.8539 66.259H55.7525V68.3604H57.8539V66.259Z" fill="black"/>
<path d="M59.9554 66.259H57.8539V68.3604H59.9554V66.259Z" fill="black"/>
<path d="M62.0568 66.259H59.9554V68.3604H62.0568V66.259Z" fill="black"/>
<path d="M68.3611 66.259H66.2597V68.3604H68.3611V66.259Z" fill="black"/>
<path d="M70.4626 66.259H68.3611V68.3604H70.4626V66.259Z" fill="black"/>
<path d="M72.564 66.259H70.4626V68.3604H72.564V66.259Z" fill="black"/>
<path d="M74.6654 66.259H72.564V68.3604H74.6654V66.259Z" fill="black"/>
<path d="M76.7669 66.259H74.6654V68.3604H76.7669V66.259Z" fill="black"/>
<path d="M83.0712 66.259H80.9697V68.3604H83.0712V66.259Z" fill="black"/>
<path d="M85.1726 66.259H83.0712V68.3604H85.1726V66.259Z" fill="black"/>
<path d="M43.1439 68.3604H41.0424V70.4618H43.1439V68.3604Z" fill="black"/>
<path d="M51.5496 68.3604H49.4482V70.4618H51.5496V68.3604Z" fill="black"/>
<path d="M55.7525 68.3604H53.6511V70.4618H55.7525V68.3604Z" fill="black"/>
<path d="M57.8539 68.3604H55.7525V70.4618H57.8539V68.3604Z" fill="black"/>
<path d="M59.9554 68.3604H57.8539V70.4618H59.9554V68.3604Z" fill="black"/>
<path d="M62.0568 68.3604H59.9554V70.4618H62.0568V68.3604Z" fill="black"/>
<path d="M64.1582 68.3604H62.0568V70.4618H64.1582V68.3604Z" fill="black"/>
<path d="M68.3611 68.3604H66.2597V70.4618H68.3611V68.3604Z" fill="black"/>
<path d="M76.7669 68.3604H74.6654V70.4618H76.7669V68.3604Z" fill="black"/>
<path d="M80.9697 68.3604H78.8683V70.4618H80.9697V68.3604Z" fill="black"/>
<path d="M83.0712 68.3604H80.9697V70.4618H83.0712V68.3604Z" fill="black"/>
<path d="M26.3324 70.4618H24.231V72.5633H26.3324V70.4618Z" fill="black"/>
<path d="M28.4338 70.4618H26.3324V72.5633H28.4338V70.4618Z" fill="black"/>
<path d="M30.5353 70.4618H28.4338V72.5633H30.5353V70.4618Z" fill="black"/>
<path d="M32.6367 70.4618H30.5353V72.5633H32.6367V70.4618Z" fill="black"/>
<path d="M34.7381 70.4618H32.6367V72.5633H34.7381V70.4618Z" fill="black"/>
<path d="M36.8396 70.4618H34.7381V72.5633H36.8396V70.4618Z" fill="black"/>
<path d="M38.941 70.4618H36.8396V72.5633H38.941V70.4618Z" fill="black"/>
<path d="M45.2453 70.4618H43.1439V72.5633H45.2453V70.4618Z" fill="black"/>
<path d="M49.4482 70.4618H47.3468V72.5633H49.4482V70.4618Z" fill="black"/>
<path d="M51.5496 70.4618H49.4482V72.5633H51.5496V70.4618Z" fill="black"/>
<path d="M55.7525 70.4618H53.6511V72.5633H55.7525V70.4618Z" fill="black"/>
<path d="M62.0568 70.4618H59.9554V72.5633H62.0568V70.4618Z" fill="black"/>
<path d="M68.3611 70.4618H66.2597V72.5633H68.3611V70.4618Z" fill="black"/>
<path d="M72.564 70.4618H70.4626V72.5633H72.564V70.4618Z" fill="black"/>
<path d="M76.7669 70.4618H74.6654V72.5633H76.7669V70.4618Z" fill="black"/>
<path d="M78.8683 70.4618H76.7669V72.5633H78.8683V70.4618Z" fill="black"/>
<path d="M85.1726 70.4618H83.0712V72.5633H85.1726V70.4618Z" fill="black"/>
<path d="M26.3324 72.5633H24.231V74.6647H26.3324V72.5633Z" fill="black"/>
<path d="M38.941 72.5633H36.8396V74.6647H38.941V72.5633Z" fill="black"/>
<path d="M43.1439 72.5633H41.0424V74.6647H43.1439V72.5633Z" fill="black"/>
<path d="M47.3468 72.5633H45.2453V74.6647H47.3468V72.5633Z" fill="black"/>
<path d="M49.4482 72.5633H47.3468V74.6647H49.4482V72.5633Z" fill="black"/>
<path d="M53.6511 72.5633H51.5496V74.6647H53.6511V72.5633Z" fill="black"/>
<path d="M62.0568 72.5633H59.9554V74.6647H62.0568V72.5633Z" fill="black"/>
<path d="M64.1582 72.5633H62.0568V74.6647H64.1582V72.5633Z" fill="black"/>
<path d="M66.2597 72.5633H64.1582V74.6647H66.2597V72.5633Z" fill="black"/>
<path d="M68.3611 72.5633H66.2597V74.6647H68.3611V72.5633Z" fill="black"/>
<path d="M76.7669 72.5633H74.6654V74.6647H76.7669V72.5633Z" fill="black"/>
<path d="M78.8683 72.5633H76.7669V74.6647H78.8683V72.5633Z" fill="black"/>
<path d="M83.0712 72.5633H80.9697V74.6647H83.0712V72.5633Z" fill="black"/>
<path d="M26.3324 74.6647H24.231V76.7661H26.3324V74.6647Z" fill="black"/>
<path d="M30.5353 74.6647H28.4338V76.7661H30.5353V74.6647Z" fill="black"/>
<path d="M32.6367 74.6647H30.5353V76.7661H32.6367V74.6647Z" fill="black"/>
<path d="M34.7381 74.6647H32.6367V76.7661H34.7381V74.6647Z" fill="black"/>
<path d="M38.941 74.6647H36.8396V76.7661H38.941V74.6647Z" fill="black"/>
<path d="M47.3468 74.6647H45.2453V76.7661H47.3468V74.6647Z" fill="black"/>
<path d="M49.4482 74.6647H47.3468V76.7661H49.4482V74.6647Z" fill="black"/>
<path d="M55.7525 74.6647H53.6511V76.7661H55.7525V74.6647Z" fill="black"/>
<path d="M57.8539 74.6647H55.7525V76.7661H57.8539V74.6647Z" fill="black"/>
<path d="M64.1582 74.6647H62.0568V76.7661H64.1582V74.6647Z" fill="black"/>
<path d="M66.2597 74.6647H64.1582V76.7661H66.2597V74.6647Z" fill="black"/>
<path d="M68.3611 74.6647H66.2597V76.7661H68.3611V74.6647Z" fill="black"/>
<path d="M70.4626 74.6647H68.3611V76.7661H70.4626V74.6647Z" fill="black"/>
<path d="M72.564 74.6647H70.4626V76.7661H72.564V74.6647Z" fill="black"/>
<path d="M74.6654 74.6647H72.564V76.7661H74.6654V74.6647Z" fill="black"/>
<path d="M76.7669 74.6647H74.6654V76.7661H76.7669V74.6647Z" fill="black"/>
<path d="M78.8683 74.6647H76.7669V76.7661H78.8683V74.6647Z" fill="black"/>
<path d="M80.9697 74.6647H78.8683V76.7661H80.9697V74.6647Z" fill="black"/>
<path d="M83.0712 74.6647H80.9697V76.7661H83.0712V74.6647Z" fill="black"/>
<path d="M85.1726 74.6647H83.0712V76.7661H85.1726V74.6647Z" fill="black"/>
<path d="M26.3324 76.7661H24.231V78.8676H26.3324V76.7661Z" fill="black"/>
<path d="M30.5353 76.7661H28.4338V78.8676H30.5353V76.7661Z" fill="black"/>
<path d="M32.6367 76.7661H30.5353V78.8676H32.6367V76.7661Z" fill="black"/>
<path d="M34.7381 76.7661H32.6367V78.8676H34.7381V76.7661Z" fill="black"/>
<path d="M38.941 76.7661H36.8396V78.8676H38.941V76.7661Z" fill="black"/>
<path d="M45.2453 76.7661H43.1439V78.8676H45.2453V76.7661Z" fill="black"/>
<path d="M47.3468 76.7661H45.2453V78.8676H47.3468V76.7661Z" fill="black"/>
<path d="M49.4482 76.7661H47.3468V78.8676H49.4482V76.7661Z" fill="black"/>
<path d="M51.5496 76.7661H49.4482V78.8676H51.5496V76.7661Z" fill="black"/>
<path d="M57.8539 76.7661H55.7525V78.8676H57.8539V76.7661Z" fill="black"/>
<path d="M59.9554 76.7661H57.8539V78.8676H59.9554V76.7661Z" fill="black"/>
<path d="M64.1582 76.7661H62.0568V78.8676H64.1582V76.7661Z" fill="black"/>
<path d="M76.7669 76.7661H74.6654V78.8676H76.7669V76.7661Z" fill="black"/>
<path d="M78.8683 76.7661H76.7669V78.8676H78.8683V76.7661Z" fill="black"/>
<path d="M26.3324 78.8676H24.231V80.969H26.3324V78.8676Z" fill="black"/>
<path d="M30.5353 78.8676H28.4338V80.969H30.5353V78.8676Z" fill="black"/>
<path d="M32.6367 78.8676H30.5353V80.969H32.6367V78.8676Z" fill="black"/>
<path d="M34.7381 78.8676H32.6367V80.969H34.7381V78.8676Z" fill="black"/>
<path d="M38.941 78.8676H36.8396V80.969H38.941V78.8676Z" fill="black"/>
<path d="M47.3468 78.8676H45.2453V80.969H47.3468V78.8676Z" fill="black"/>
<path d="M49.4482 78.8676H47.3468V80.969H49.4482V78.8676Z" fill="black"/>
<path d="M53.6511 78.8676H51.5496V80.969H53.6511V78.8676Z" fill="black"/>
<path d="M55.7525 78.8676H53.6511V80.969H55.7525V78.8676Z" fill="black"/>
<path d="M68.3611 78.8676H66.2597V80.969H68.3611V78.8676Z" fill="black"/>
<path d="M70.4626 78.8676H68.3611V80.969H70.4626V78.8676Z" fill="black"/>
<path d="M74.6654 78.8676H72.564V80.969H74.6654V78.8676Z" fill="black"/>
<path d="M26.3324 80.969H24.231V83.0704H26.3324V80.969Z" fill="black"/>
<path d="M38.941 80.969H36.8396V83.0704H38.941V80.969Z" fill="black"/>
<path d="M47.3468 80.969H45.2453V83.0704H47.3468V80.969Z" fill="black"/>
<path d="M49.4482 80.969H47.3468V83.0704H49.4482V80.969Z" fill="black"/>
<path d="M51.5496 80.969H49.4482V83.0704H51.5496V80.969Z" fill="black"/>
<path d="M55.7525 80.969H53.6511V83.0704H55.7525V80.969Z" fill="black"/>
<path d="M57.8539 80.969H55.7525V83.0704H57.8539V80.969Z" fill="black"/>
<path d="M59.9554 80.969H57.8539V83.0704H59.9554V80.969Z" fill="black"/>
<path d="M64.1582 80.969H62.0568V83.0704H64.1582V80.969Z" fill="black"/>
<path d="M66.2597 80.969H64.1582V83.0704H66.2597V80.969Z" fill="black"/>
<path d="M70.4626 80.969H68.3611V83.0704H70.4626V80.969Z" fill="black"/>
<path d="M72.564 80.969H70.4626V83.0704H72.564V80.969Z" fill="black"/>
<path d="M74.6654 80.969H72.564V83.0704H74.6654V80.969Z" fill="black"/>
<path d="M76.7669 80.969H74.6654V83.0704H76.7669V80.969Z" fill="black"/>
<path d="M83.0712 80.969H80.9697V83.0704H83.0712V80.969Z" fill="black"/>
<path d="M85.1726 80.969H83.0712V83.0704H85.1726V80.969Z" fill="black"/>
<path d="M26.3324 83.0704H24.231V85.1719H26.3324V83.0704Z" fill="black"/>
<path d="M28.4338 83.0704H26.3324V85.1719H28.4338V83.0704Z" fill="black"/>
<path d="M30.5353 83.0704H28.4338V85.1719H30.5353V83.0704Z" fill="black"/>
<path d="M32.6367 83.0704H30.5353V85.1719H32.6367V83.0704Z" fill="black"/>
<path d="M34.7381 83.0704H32.6367V85.1719H34.7381V83.0704Z" fill="black"/>
<path d="M36.8396 83.0704H34.7381V85.1719H36.8396V83.0704Z" fill="black"/>
<path d="M38.941 83.0704H36.8396V85.1719H38.941V83.0704Z" fill="black"/>
<path d="M45.2453 83.0704H43.1439V85.1719H45.2453V83.0704Z" fill="black"/>
<path d="M51.5496 83.0704H49.4482V85.1719H51.5496V83.0704Z" fill="black"/>
<path d="M55.7525 83.0704H53.6511V85.1719H55.7525V83.0704Z" fill="black"/>
<path d="M62.0568 83.0704H59.9554V85.1719H62.0568V83.0704Z" fill="black"/>
<path d="M64.1582 83.0704H62.0568V85.1719H64.1582V83.0704Z" fill="black"/>
<path d="M66.2597 83.0704H64.1582V85.1719H66.2597V83.0704Z" fill="black"/>
<path d="M70.4626 83.0704H68.3611V85.1719H70.4626V83.0704Z" fill="black"/>
<path d="M78.8683 83.0704H76.7669V85.1719H78.8683V83.0704Z" fill="black"/>
<path d="M80.9697 83.0704H78.8683V85.1719H80.9697V83.0704Z" fill="black"/>
<defs>
<linearGradient id="paint0_linear_3_105" x1="232.188" y1="88.806" x2="220.153" y2="76.4366" gradientUnits="userSpaceOnUse">
<stop stop-color="#00A0FF"/>
<stop offset="0.0066" stop-color="#00A1FF"/>
<stop offset="0.2601" stop-color="#00BEFF"/>
<stop offset="0.5122" stop-color="#00D2FF"/>
<stop offset="0.7604" stop-color="#00DFFF"/>
<stop offset="1" stop-color="#00E3FF"/>
</linearGradient>
<linearGradient id="paint1_linear_3_105" x1="241.061" y1="80.7055" x2="223.22" y2="80.7055" gradientUnits="userSpaceOnUse">
<stop stop-color="#FFE000"/>
<stop offset="0.4087" stop-color="#FFBD00"/>
<stop offset="0.7754" stop-color="#FFA500"/>
<stop offset="1" stop-color="#FF9C00"/>
</linearGradient>
<linearGradient id="paint2_linear_3_105" x1="234.419" y1="79.0594" x2="218.099" y2="62.2856" gradientUnits="userSpaceOnUse">
<stop stop-color="#FF3A44"/>
<stop offset="1" stop-color="#C31162"/>
</linearGradient>
<linearGradient id="paint3_linear_3_105" x1="221.494" y1="94.928" x2="228.782" y2="87.4378" gradientUnits="userSpaceOnUse">
<stop stop-color="#32A071"/>
<stop offset="0.0685" stop-color="#2DA771"/>
<stop offset="0.4762" stop-color="#15CF74"/>
<stop offset="0.8009" stop-color="#06E775"/>
<stop offset="1" stop-color="#00F076"/>
</linearGradient>
</defs>
</svg>
