<svg width="174" height="24" viewBox="0 0 174 24" fill="none" xmlns="http://www.w3.org/2000/svg">
<path d="M132.697 13.0872L139.373 23.6564H132.974L126.812 13.8667H126.772L125.192 11.4112H126.14C128.747 11.4112 128.668 10.4368 128.668 7.86436C128.668 5.87657 128.155 5.29192 126.14 5.29192H121.163L117.766 0.0690918H127.088C132.342 0.147045 134.949 1.27736 134.949 6.88995C134.909 9.89113 134.909 11.9179 132.697 13.0872ZM117.11 12.5415L123.968 23.6564H130.367L117.11 2.71948V12.5415Z" fill="white"/>
<path d="M170.708 0.00476416C171.957 0.00476416 172.827 0.316575 173.319 0.979173C173.773 1.56382 173.962 2.53823 174 3.86342L174 23.6589H168.361L168.361 6.30704L162.306 20.1047C162.089 20.6366 161.823 21.1457 161.511 21.6247C161.267 22.0479 160.946 22.4185 160.565 22.7161C160.219 23.0343 159.804 23.2616 159.354 23.3787C158.873 23.511 158.376 23.5765 157.878 23.5736H156.402C155.904 23.5765 155.407 23.511 154.926 23.3787C154.468 23.2529 154.042 23.0269 153.677 22.7161C153.315 22.3984 152.997 22.0312 152.731 21.6247C152.419 21.1457 152.153 20.6366 151.936 20.1047L145.919 6.30704L145.919 23.542C145.919 23.581 145.881 23.6199 145.881 23.6589H140.28C140.28 23.6199 140.242 23.581 140.242 23.542L140.242 3.9024C140.242 2.53823 140.393 1.60279 140.885 0.979173C141.377 0.355551 142.248 0.00476416 143.534 0.00476416H146.865C147.295 -0.0116693 147.726 0.0144344 148.151 0.0827169C148.546 0.156012 148.92 0.315504 149.249 0.550433C149.56 0.80166 149.829 1.10464 150.044 1.44689C150.282 1.86265 150.497 2.2921 150.687 2.73311L157.045 18.1169H157.272L163.63 2.73311C163.858 2.22642 164.085 1.79768 164.274 1.44689C164.512 1.11162 164.792 0.810193 165.106 0.550433C165.419 0.31028 165.782 0.149973 166.166 0.0827169L167.415 0.00476416H170.708Z" fill="white"/>
<path d="M95.0935 0.472787C96.4893 0.13698 97.923 -0.0202161 99.3595 0.0050707L114.366 0.0440471V5.69562H99.557C98.9193 5.68521 98.2828 5.75064 97.661 5.8905C97.2806 5.97064 96.9272 6.14501 96.634 6.39719C96.3726 6.70303 96.1837 7.06255 96.081 7.44956C95.9423 8.08995 95.876 8.74356 95.8835 9.39837L95.8835 14.2635C95.8741 14.9313 95.9403 15.598 96.081 16.2513C96.1501 16.6502 96.3434 17.018 96.634 17.3036C96.9085 17.5684 97.2492 17.7567 97.6215 17.8493C98.2571 17.9865 98.9064 18.0519 99.557 18.0442H114.366V23.6568H99.3595C97.9229 23.6847 96.4888 23.5275 95.0935 23.1891C93.9579 22.9215 92.9108 22.3713 92.052 21.591C91.2194 20.8176 90.6182 19.8334 90.314 18.7458C89.938 17.4409 89.7648 16.0873 89.8005 14.7312L89.8005 8.93066C89.7847 7.57559 89.9575 6.2248 90.314 4.91609C90.6422 3.8388 91.2399 2.86034 92.052 2.07082C92.9213 1.30527 93.9645 0.757188 95.0935 0.472787Z" fill="white"/>
<path d="M84.5486 8.00421C84.6182 7.92299 84.6499 7.82301 84.6435 7.71679C84.6435 7.64181 84.6309 7.57308 84.5929 7.50435C84.5549 7.44186 84.4979 7.39188 84.4346 7.36064C84.3776 7.3294 84.3143 7.3044 84.2446 7.29815C84.156 7.28566 84.0736 7.27941 83.985 7.28566H83.4087V8.85398H83.7887V8.27914H83.9407L84.4092 8.85398H84.8842L84.3079 8.17917C84.4029 8.14168 84.4789 8.07919 84.5486 8.00421ZM84.2066 7.8605C84.2066 7.8605 84.1686 7.91674 84.137 7.93548C84.1053 7.96047 84.0673 7.97922 84.0293 7.97922C83.9786 7.99172 83.928 7.99797 83.871 7.99797H83.7823V7.55434H83.8963C83.9407 7.55434 83.985 7.55434 84.0293 7.56058C84.061 7.56058 84.099 7.57308 84.1243 7.59182C84.156 7.60432 84.1813 7.62931 84.2003 7.66056C84.2129 7.6918 84.2193 7.72304 84.2193 7.75428C84.2193 7.79177 84.2129 7.82926 84.2003 7.86675L84.2066 7.8605ZM85.1438 6.99199C84.5232 6.37965 83.5164 6.3859 82.9022 6.99823C82.2879 7.61057 82.2879 8.60405 82.9085 9.21014C83.5291 9.81623 84.5359 9.81623 85.1501 9.20389C85.4477 8.91022 85.6124 8.51658 85.6124 8.10419C85.6187 7.68555 85.4477 7.28566 85.1438 6.99199ZM84.8968 8.9727C84.6689 9.21014 84.3459 9.34135 84.0166 9.34135C83.6874 9.34135 83.3644 9.21014 83.1365 8.9727C82.6489 8.49158 82.6489 7.71679 83.1365 7.23567C83.3644 6.99823 83.6874 6.86702 84.0166 6.86702C84.3459 6.86702 84.6689 6.99199 84.8968 7.22942C85.3844 7.71054 85.3844 8.49158 84.8968 8.9727ZM70.3516 18.3639L66.6219 7.92298H59.9413L66.4256 23.7H74.056L80.5909 7.92298H74.0306L70.3516 18.3639ZM15.3431 10.7035C15.3431 10.7035 15.3114 10.691 15.2988 10.6847C15.6597 10.5473 16.008 10.3786 16.3373 10.1786C18.9018 8.47908 19.5857 5.05501 17.8634 2.52444C16.8375 1.01234 15.1215 0.10009 13.2725 0.0813446H0V23.7H11.1765C11.3918 23.7 11.5944 23.7 11.8034 23.6937H14.8302C18.4712 23.5625 20.8585 20.6196 20.8585 17.0018C20.8585 13.8526 18.3003 11.4283 15.3368 10.7097L15.3431 10.7035ZM6.52224 4.43018H9.73271C10.1 4.43642 10.4673 4.49266 10.8155 4.59263C11.5247 4.88005 12.0693 5.47364 12.2846 6.2047C12.3289 6.3859 12.3543 6.5671 12.3543 6.75455C12.3543 7.16694 12.2846 7.57308 12.1453 7.96048C11.9807 8.30413 11.7337 8.6103 11.4298 8.84774C11.3158 8.92272 11.2018 8.9852 11.0815 9.04143C10.6826 9.23513 10.2456 9.3476 9.80236 9.37884C9.38443 9.39759 9.18813 9.41009 8.15597 9.41009H6.52224V4.43642V4.43018ZM12.6646 18.7263C12.0567 19.1137 11.3411 19.3262 10.6129 19.3262H6.52858V13.4652H9.986C10.233 13.4652 10.4419 13.4652 10.5622 13.4652C11.0752 13.4652 11.5817 13.5402 12.0693 13.6964C12.1643 13.7277 12.2593 13.7652 12.3543 13.8027C13.779 14.515 14.3489 16.2333 13.6334 17.6391C13.4118 18.0765 13.0762 18.4452 12.6646 18.7201V18.7263ZM34.6312 7.96048L28.9955 15.0523V0.0688477H22.6632V23.7H28.9955L31.7184 20.2947L34.2513 23.7H41.4701L35.3848 15.6459L41.4891 7.96048H34.6312ZM57.858 8.57906C56.5662 7.64806 53.4254 7.19193 50.6012 7.19193C49.4551 7.20443 48.3153 7.3044 47.1818 7.4856C45.814 7.6918 44.4716 8.0417 43.1798 8.52283L44.9972 12.1344C46.1876 11.422 47.5237 10.9784 48.9042 10.8222C49.74 10.691 50.5949 10.6785 51.4308 10.7847C51.95 10.8347 52.4502 11.0159 52.8808 11.3096C53.4191 11.7095 53.7104 12.3593 53.6534 13.0216V13.1403C51.2598 13.1153 48.8725 13.384 46.5486 13.9339C44.4019 14.5525 42.1603 16.4332 42.1603 18.92C42.249 21.7568 44.6109 24.0062 47.4857 23.9874C47.5617 23.9874 48.2646 23.9999 48.2646 23.9999C50.1643 23.8999 52.0133 23.3251 53.6217 22.3254L54.6792 23.725H59.7894V12.7342C59.7894 10.8347 59.1435 9.51006 57.8517 8.57906H57.858ZM53.6281 19.3949C52.8365 20.1947 51.7727 20.6883 50.6392 20.7695C50.5442 20.7695 50.4492 20.7695 50.3543 20.7508C50.3099 20.7508 50.2656 20.7383 50.2276 20.7383C50.2023 20.7383 50.1706 20.7258 50.1453 20.7258C48.9865 20.5009 48.2266 19.3949 48.4546 18.2515C48.6192 17.4142 49.2841 16.7581 50.1326 16.5894C50.1516 16.5832 50.1643 16.5832 50.1896 16.5707C51.0571 16.3832 53.6217 16.1458 53.6217 16.1458V19.4011L53.6281 19.3949Z" fill="white"/>
</svg>
