<svg width="20" height="16" viewBox="0 0 20 16" fill="none" xmlns="http://www.w3.org/2000/svg">
<path d="M3.5 5C3.89782 5 4.27936 4.84196 4.56066 4.56066C4.84196 4.27936 5 3.89782 5 3.5C5 3.10218 4.84196 2.72064 4.56066 2.43934C4.27936 2.15804 3.89782 2 3.5 2C3.10218 2 2.72064 2.15804 2.43934 2.43934C2.15804 2.72064 2 3.10218 2 3.5C2 3.89782 2.15804 4.27936 2.43934 4.56066C2.72064 4.84196 3.10218 5 3.5 5ZM15.41 7.58C15.77 7.94 16 8.44 16 9C16 9.55 15.78 10.05 15.41 10.41L10.41 15.41C10.2245 15.5964 10.004 15.7444 9.7612 15.8453C9.51837 15.9463 9.25798 15.9982 8.995 15.9982C8.73202 15.9982 8.47163 15.9463 8.2288 15.8453C7.98597 15.7444 7.76548 15.5964 7.58 15.41L0.59 8.42C0.22 8.05 0 7.55 0 7V2C0 0.89 0.89 0 2 0H7C7.55 0 8.05 0.22 8.41 0.58L15.41 7.58ZM11.54 1.71L12.54 0.71L19.41 7.58C19.78 7.94 20 8.45 20 9C20 9.55 19.78 10.05 19.42 10.41L14.04 15.79L13.04 14.79L18.75 9L11.54 1.71Z" fill="#A36957"/>
</svg>
